<?xml version="1.0" encoding="UTF-8"?>
<svg version="1.1" xmlns="http://www.w3.org/2000/svg" width="29" height="30">
<path d="M0 0 C3.51287536 2.94101193 5.3743193 4.94174227 6.00390625 9.58203125 C6.20110479 13.82498054 5.92803608 16.70879383 4.1875 20.625 C0.61083188 24.38050153 -3.10002941 27.00334964 -8.3984375 27.41015625 C-14.21641885 26.95318837 -18.31878063 24.50954862 -22.1875 20.125 C-23.8809133 15.79738823 -23.95244209 11.83257384 -23.3125 7.25 C-21.14689611 2.37739124 -18.22597405 -0.00428383 -13.4609375 -2.12109375 C-8.38598801 -3.60666987 -4.56430915 -2.41133314 0 0 Z " fill="#72BA91" transform="translate(23.3125,2.75)"/>
<path d="M0 0 C1.32 1.32 2.64 2.64 4 4 C4.66 2.68 5.32 1.36 6 0 C8.60032365 5.03812708 8.22023972 9.41539922 7 15 C4.75 17.5 4.75 17.5 2 19 C0.8553125 19.6496875 0.8553125 19.6496875 -0.3125 20.3125 C-4.13240792 21.28968575 -7.12229927 20.65723741 -11 20 C-11 18.68 -11 17.36 -11 16 C-10.113125 16.185625 -9.22625 16.37125 -8.3125 16.5625 C-5.06169475 16.99185164 -3.07638645 17.08089253 0 16 C1.73576725 14.07825769 2.84618015 12.3076397 4 10 C3.38125 10.495 2.7625 10.99 2.125 11.5 C0 13 0 13 -2 13 C-2 13.66 -2 14.32 -2 15 C-2.66 14.67 -3.32 14.34 -4 14 C-3.34 13.01 -2.68 12.02 -2 11 C-4.31 10.34 -6.62 9.68 -9 9 C-8.34 9.639375 -7.68 10.27875 -7 10.9375 C-5 13 -5 13 -5 14 C-6.98 14 -8.96 14 -11 14 C-11.309375 13.21625 -11.61875 12.4325 -11.9375 11.625 C-12.92875038 9.07669872 -12.92875038 9.07669872 -14 7 C-13.195625 6.731875 -12.39125 6.46375 -11.5625 6.1875 C-10.716875 5.795625 -9.87125 5.40375 -9 5 C-8.67 4.01 -8.34 3.02 -8 2 C-6.02 2.66 -4.04 3.32 -2 4 C-2 3.01 -2 2.02 -2 1 C-1.34 0.67 -0.68 0.34 0 0 Z " fill="#6EC092" transform="translate(20,9)"/>
<path d="M0 0 C3.55970449 2.98021771 5.46189454 4.98320232 5.93359375 9.72265625 C5.99632486 12.28725143 6.03406048 14.70705625 5.6875 17.25 C5.0275 17.91 4.3675 18.57 3.6875 19.25 C4.0175 16.61 4.3475 13.97 4.6875 11.25 C4.0275 11.25 3.3675 11.25 2.6875 11.25 C3.0175 10.26 3.3475 9.27 3.6875 8.25 C3.3575 7.92 3.0275 7.59 2.6875 7.25 C2.0275 8.57 1.3675 9.89 0.6875 11.25 C-0.055 10.30125 -0.7975 9.3525 -1.5625 8.375 C-3.59095219 5.92467599 -5.2702848 4.37674637 -8.3125 3.25 C-8.6425 3.91 -8.9725 4.57 -9.3125 5.25 C-9.3125 4.59 -9.3125 3.93 -9.3125 3.25 C-10.6325 3.25 -11.9525 3.25 -13.3125 3.25 C-13.3125 3.91 -13.3125 4.57 -13.3125 5.25 C-14.3025 5.91 -15.2925 6.57 -16.3125 7.25 C-17.52534876 10.30429073 -17.52534876 10.30429073 -18.3125 13.25 C-18.6425 13.25 -18.9725 13.25 -19.3125 13.25 C-19.4375 6.625 -19.4375 6.625 -18.3125 3.25 C-17.9825 2.92 -17.6525 2.59 -17.3125 2.25 C-17.6425 1.59 -17.9725 0.93 -18.3125 0.25 C-11.55511273 -3.26947254 -6.83371577 -3.61026493 0 0 Z " fill="#75B390" transform="translate(23.3125,2.75)"/>
<path d="M0 0 C1.98 0.99 1.98 0.99 4 2 C4 3.32 4 4.64 4 6 C4.99 5.34 5.98 4.68 7 4 C6.67 3.67 6.34 3.34 6 3 C6 2.34 6 1.68 6 1 C8.875 0.8125 8.875 0.8125 12 1 C12.66 1.99 13.32 2.98 14 4 C13.34 4 12.68 4 12 4 C12.33 4.33 12.66 4.66 13 5 C13.61875 4.505 14.2375 4.01 14.875 3.5 C17 2 17 2 19 2 C18.39816251 4.02045442 17.72693904 6.02111039 17 8 C15 9 15 9 11 9 C10.34 9.66 9.68 10.32 9 11 C8.67 10.34 8.34 9.68 8 9 C5.97536745 8.34786708 5.97536745 8.34786708 4 8 C4 8.99 4 9.98 4 11 C2.68 10.67 1.36 10.34 0 10 C0.33 9.34 0.66 8.68 1 8 C1 5.16032769 0.59732819 2.76264289 0 0 Z " fill="#219353" transform="translate(5,17)"/>
<path d="M0 0 C1.32 0 2.64 0 4 0 C3.875 1.75 3.875 1.75 3 4 C-1.57808122 7.90811811 -5.17268222 8.7134106 -11 9 C-11.99 8.67 -12.98 8.34 -14 8 C-14 6.68 -14 5.36 -14 4 C-13.113125 4.185625 -12.22625 4.37125 -11.3125 4.5625 C-8.06169475 4.99185164 -6.07638645 5.08089253 -3 4 C-1.99357052 2.67151309 -0.99307821 1.33849671 0 0 Z " fill="#8EBCA2" transform="translate(23,21)"/>
<path d="M0 0 C0.66 0.33 1.32 0.66 2 1 C2 1.33 2 1.66 2 2 C3.134375 1.896875 4.26875 1.79375 5.4375 1.6875 C10.80478533 1.63949208 14.60676024 4.15252979 19 7 C18.67 8.65 18.34 10.3 18 12 C17.278125 11.236875 16.55625 10.47375 15.8125 9.6875 C13.30209033 7.28866409 11.03191698 5.64589779 8 4 C7.67 4.66 7.34 5.32 7 6 C7 5.34 7 4.68 7 4 C5.68 4 4.36 4 3 4 C3 4.66 3 5.32 3 6 C2.01 6.66 1.02 7.32 0 8 C-1.21284876 11.05429073 -1.21284876 11.05429073 -2 14 C-2.33 14 -2.66 14 -3 14 C-3.125 7.375 -3.125 7.375 -2 4 C-1.67 3.67 -1.34 3.34 -1 3 C-1.33 2.34 -1.66 1.68 -2 1 C-1.34 0.67 -0.68 0.34 0 0 Z " fill="#14954C" transform="translate(7,2)"/>
<path d="M0 0 C1.32 1.32 2.64 2.64 4 4 C4.66 2.68 5.32 1.36 6 0 C8.37311758 4.59791531 7.76083581 6.76925379 7 12 C6.01 11.67 5.02 11.34 4 11 C4.33 10.01 4.66 9.02 5 8 C1.3791799 6.98617037 -2.27811418 6.50102309 -6 6 C-6 5.01 -6 4.02 -6 3 C-4.68 3.33 -3.36 3.66 -2 4 C-2 3.01 -2 2.02 -2 1 C-1.34 0.67 -0.68 0.34 0 0 Z " fill="#AADABF" transform="translate(20,9)"/>
<path d="M0 0 C6.52307692 -0.36923077 6.52307692 -0.36923077 8.9375 1.5 C9.288125 1.995 9.63875 2.49 10 3 C7.6739143 3.38063221 5.33944736 3.71269945 3 4 C2.67 3.67 2.34 3.34 2 3 C1.7525 3.639375 1.505 4.27875 1.25 4.9375 C0 7 0 7 -2.125 7.75 C-3.053125 7.87375 -3.053125 7.87375 -4 8 C-3.67 6.35 -3.34 4.7 -3 3 C-2.01 2.67 -1.02 2.34 0 2 C0 1.34 0 0.68 0 0 Z " fill="#A5D8BB" transform="translate(10,6)"/>
<path d="M0 0 C0 1.32 0 2.64 0 4 C-3.63 4 -7.26 4 -11 4 C-11.33 3.34 -11.66 2.68 -12 2 C-9.67178678 -2.65642643 -4.2230553 -0.62307373 0 0 Z " fill="#9FCAB2" transform="translate(20,1)"/>
<path d="M0 0 C1.98 0.99 1.98 0.99 4 2 C4 3.32 4 4.64 4 6 C5.98 6 7.96 6 10 6 C9.01 7.485 9.01 7.485 8 9 C6.68 8.67 5.36 8.34 4 8 C4 8.99 4 9.98 4 11 C2.68 10.67 1.36 10.34 0 10 C0.33 9.34 0.66 8.68 1 8 C1 5.16032769 0.59732819 2.76264289 0 0 Z " fill="#36A165" transform="translate(5,17)"/>
<path d="M0 0 C0.99 0.495 0.99 0.495 2 1 C1.67 2.32 1.34 3.64 1 5 C1.99 5 2.98 5 4 5 C5.49821059 8.37097383 6 10.20442119 6 14 C5.01 14 4.02 14 3 14 C0.56574762 9.03006806 -0.34615998 5.65394631 0 0 Z " fill="#A6C2B2" transform="translate(1,12)"/>
<path d="M0 0 C0.33 0.66 0.66 1.32 1 2 C4.465 1.505 4.465 1.505 8 1 C7.01 1.495 7.01 1.495 6 2 C6 2.99 6 3.98 6 5 C4.02 4.34 2.04 3.68 0 3 C-0.33 4.32 -0.66 5.64 -1 7 C-2.32 7.33 -3.64 7.66 -5 8 C-3.62845496 5.04590299 -2.01136276 2.55991624 0 0 Z " fill="#2DA561" transform="translate(12,8)"/>
<path d="M0 0 C2.37311758 4.59791531 1.76083581 6.76925379 1 12 C0.01 11.67 -0.98 11.34 -2 11 C-1.67 10.01 -1.34 9.02 -1 8 C-1.66 7.67 -2.32 7.34 -3 7 C-3 6.34 -3 5.68 -3 5 C-2.34 5 -1.68 5 -1 5 C-0.67 3.35 -0.34 1.7 0 0 Z " fill="#C0D5C9" transform="translate(26,9)"/>
<path d="M0 0 C0.66 0.33 1.32 0.66 2 1 C2.125 3.375 2.125 3.375 2 6 C1.34 6.66 0.68 7.32 0 8 C-0.71408334 9.98356483 -1.38617742 11.98315437 -2 14 C-2.33 14 -2.66 14 -3 14 C-3.125 7.375 -3.125 7.375 -2 4 C-1.67 3.67 -1.34 3.34 -1 3 C-1.33 2.34 -1.66 1.68 -2 1 C-1.34 0.67 -0.68 0.34 0 0 Z " fill="#3D9B66" transform="translate(7,2)"/>
<path d="M0 0 C4 0 4 0 5.484375 1.27734375 C9 5.88888889 9 5.88888889 9 7 C7.02 7 5.04 7 3 7 C2.690625 6.21625 2.38125 5.4325 2.0625 4.625 C1.07124962 2.07669872 1.07124962 2.07669872 0 0 Z " fill="#C2E5D1" transform="translate(6,16)"/>
<path d="M0 0 C2.875 -0.1875 2.875 -0.1875 6 0 C6.66 0.99 7.32 1.98 8 3 C5.69 3.33 3.38 3.66 1 4 C1 3.34 1 2.68 1 2 C0.67 1.34 0.34 0.68 0 0 Z " fill="#2EA663" transform="translate(11,18)"/>
<path d="M0 0 C1.65 0 3.3 0 5 0 C4.6875 1.9375 4.6875 1.9375 4 4 C3.01 4.33 2.02 4.66 1 5 C1 5.66 1 6.32 1 7 C0.34 6.67 -0.32 6.34 -1 6 C-0.34 5.01 0.32 4.02 1 3 C0.67 2.01 0.34 1.02 0 0 Z " fill="#B5DFC8" transform="translate(17,17)"/>
<path d="M0 0 C0.66 0 1.32 0 2 0 C2.33 1.65 2.66 3.3 3 5 C3.66 5 4.32 5 5 5 C4.67 5.99 4.34 6.98 4 8 C2.68 8 1.36 8 0 8 C-1.125 2.25 -1.125 2.25 0 0 Z " fill="#97B7A5" transform="translate(2,9)"/>
<path d="M0 0 C0.99 0.495 0.99 0.495 2 1 C1.67 2.32 1.34 3.64 1 5 C1.66 5 2.32 5 3 5 C3 6.32 3 7.64 3 9 C2.34 9 1.68 9 1 9 C-0.4783226 6.04335481 -0.06032783 3.25770263 0 0 Z " fill="#E1E6E3" transform="translate(1,12)"/>
</svg>
