<?xml version="1.0" encoding="UTF-8"?>
<svg xmlns="http://www.w3.org/2000/svg" xmlns:xlink="http://www.w3.org/1999/xlink" width="31px" height="30px" viewBox="0 0 31 30" version="1.1">
<g id="surface1">
<path style=" stroke:none;fill-rule:nonzero;fill:rgb(6.27451%,13.333333%,18.823529%);fill-opacity:1;" d="M 16.042969 1.363281 C 16.691406 1.808594 16.691406 1.808594 17.132812 2.453125 C 17.199219 3.339844 17.199219 3.339844 17.132812 4.089844 C 19.652344 4.800781 19.652344 4.800781 22.195312 4.738281 C 22.84375 4.636719 22.84375 4.636719 23.589844 4.996094 C 24.203125 5.453125 24.203125 5.453125 24.472656 6 C 24.445312 6.320312 24.417969 6.640625 24.390625 6.972656 C 24.363281 8.277344 24.929688 9.027344 25.695312 10.042969 C 26.324219 10.953125 26.648438 11.703125 26.648438 12.816406 C 26.933594 12.839844 27.222656 12.863281 27.515625 12.886719 C 28.652344 13.109375 29.132812 13.332031 29.914062 14.183594 C 30.230469 15.117188 30.25 15.613281 29.945312 16.550781 C 29.300781 17.257812 29.058594 17.292969 28.160156 17.503906 C 27.335938 17.738281 27.015625 17.847656 26.558594 18.589844 C 26.378906 19.0625 26.214844 19.542969 26.0625 20.027344 C 25.847656 20.683594 25.59375 21.171875 25.222656 21.75 C 24.710938 22.703125 24.671875 23.210938 24.746094 24.273438 C 24.65625 24.453125 24.566406 24.632812 24.472656 24.816406 C 24.292969 24.816406 24.113281 24.816406 23.929688 24.816406 C 23.929688 25 23.929688 25.179688 23.929688 25.363281 C 23.644531 25.398438 23.359375 25.429688 23.0625 25.464844 C 22.148438 25.617188 21.503906 25.8125 20.667969 26.183594 C 18.421875 27.121094 18.421875 27.121094 17.132812 27 C 17.152344 27.253906 17.175781 27.507812 17.199219 27.765625 C 17.132812 28.636719 17.132812 28.636719 16.691406 29.148438 C 15.851562 29.546875 15.328125 29.589844 14.414062 29.453125 C 13.765625 28.976562 13.765625 28.976562 13.324219 28.363281 C 13.324219 28.003906 13.324219 27.644531 13.324219 27.273438 C 13.015625 27.210938 12.707031 27.148438 12.390625 27.085938 C 9.320312 26.296875 6.675781 24.171875 5.03125 21.476562 C 4.324219 20.214844 3.808594 19.195312 3.808594 17.726562 C 3.515625 17.703125 3.222656 17.683594 2.921875 17.660156 C 1.902344 17.453125 1.902344 17.453125 1.242188 17.011719 C 0.636719 16.089844 0.644531 15.535156 0.816406 14.453125 C 1.492188 13.558594 1.914062 13.15625 3.007812 12.886719 C 3.949219 12.484375 3.976562 12.332031 4.351562 11.421875 C 4.4375 11.199219 4.523438 10.980469 4.613281 10.753906 C 5.808594 7.945312 8.363281 5.761719 11.113281 4.621094 C 12.292969 4.125 12.957031 3.820312 13.511719 2.640625 C 13.628906 2.308594 13.746094 1.976562 13.867188 1.636719 C 14.640625 1.25 15.1875 1.277344 16.042969 1.363281 Z M 16.042969 1.363281 "/>
<path style=" stroke:none;fill-rule:nonzero;fill:rgb(9.019608%,16.862745%,23.529412%);fill-opacity:1;" d="M 14.683594 2.726562 C 15.132812 2.816406 15.582031 2.90625 16.042969 3 C 16.042969 4.980469 16.042969 6.960938 16.042969 9 C 16.582031 9 17.121094 9 17.675781 9 C 19.375 9.765625 20.566406 10.941406 21.484375 12.546875 C 21.484375 12.90625 21.484375 13.265625 21.484375 13.636719 C 22.46875 13.546875 23.457031 13.457031 24.472656 13.363281 C 24.472656 13.273438 24.472656 13.183594 24.472656 13.089844 C 24.191406 13.058594 23.914062 13.023438 23.625 12.988281 C 22.855469 12.777344 22.605469 12.59375 22.128906 11.941406 C 21.855469 11.453125 21.582031 10.964844 21.316406 10.476562 C 20.363281 8.8125 18.871094 8.410156 17.132812 7.910156 C 17.132812 7.367188 17.132812 6.828125 17.132812 6.273438 C 18.601562 6.128906 19.511719 6.5 20.667969 7.363281 C 21.195312 7.976562 21.195312 7.976562 21.484375 8.453125 C 21.660156 8.363281 21.839844 8.273438 22.027344 8.183594 C 21.847656 7.910156 21.667969 7.640625 21.484375 7.363281 C 21.585938 6.765625 21.585938 6.765625 21.753906 6.273438 C 22.214844 6.050781 22.214844 6.050781 22.84375 6 C 23.96875 6.90625 24.636719 8.003906 25.289062 9.273438 C 25.472656 9.621094 25.472656 9.621094 25.660156 9.972656 C 26.648438 11.890625 26.648438 11.890625 26.648438 12.816406 C 26.933594 12.839844 27.222656 12.863281 27.515625 12.886719 C 28.652344 13.109375 29.132812 13.332031 29.914062 14.183594 C 30.230469 15.117188 30.25 15.613281 29.945312 16.550781 C 29.300781 17.257812 29.058594 17.292969 28.160156 17.503906 C 27.335938 17.738281 27.015625 17.847656 26.558594 18.589844 C 26.378906 19.0625 26.214844 19.542969 26.0625 20.027344 C 25.847656 20.683594 25.59375 21.171875 25.222656 21.75 C 24.710938 22.703125 24.671875 23.210938 24.746094 24.273438 C 24.65625 24.453125 24.566406 24.632812 24.472656 24.816406 C 24.292969 24.816406 24.113281 24.816406 23.929688 24.816406 C 23.929688 25 23.929688 25.179688 23.929688 25.363281 C 23.644531 25.398438 23.359375 25.429688 23.0625 25.464844 C 22.148438 25.617188 21.503906 25.8125 20.667969 26.183594 C 20.304688 26.332031 19.941406 26.480469 19.578125 26.625 C 19.40625 26.695312 19.230469 26.765625 19.050781 26.839844 C 18.394531 27.027344 17.8125 27.011719 17.132812 27 C 17.066406 26.035156 17.03125 25.070312 16.996094 24.101562 C 16.96875 23.695312 16.96875 23.695312 16.941406 23.277344 C 16.886719 21.269531 16.886719 21.269531 17.601562 20.480469 C 18.1875 20.054688 18.1875 20.054688 18.769531 19.71875 C 19.679688 19.117188 20.066406 18.199219 20.394531 17.183594 C 20.484375 16.640625 20.574219 16.101562 20.667969 15.546875 C 22.460938 15.546875 24.257812 15.546875 26.105469 15.546875 C 26.105469 15.277344 26.105469 15.003906 26.105469 14.726562 C 25.953125 14.730469 25.800781 14.730469 25.644531 14.730469 C 24.953125 14.738281 24.261719 14.742188 23.574219 14.746094 C 23.214844 14.746094 23.214844 14.746094 22.847656 14.75 C 22.617188 14.753906 22.386719 14.753906 22.148438 14.753906 C 21.9375 14.753906 21.722656 14.757812 21.503906 14.757812 C 20.9375 14.726562 20.9375 14.726562 20.121094 14.453125 C 20.078125 14.652344 20.03125 14.851562 19.984375 15.054688 C 19.136719 18.433594 19.136719 18.433594 17.601562 19.53125 C 16.300781 20.195312 15.015625 20.167969 13.597656 19.910156 C 12.46875 19.273438 11.710938 18.449219 11.011719 17.371094 C 10.722656 15.800781 10.613281 14.441406 11.335938 12.988281 C 12.777344 11.347656 13.925781 10.949219 16.042969 10.636719 C 16.042969 10.457031 16.042969 10.277344 16.042969 10.089844 C 15.59375 10.089844 15.148438 10.089844 14.683594 10.089844 C 14.632812 8.914062 14.582031 7.738281 14.53125 6.5625 C 14.515625 6.226562 14.5 5.890625 14.484375 5.542969 C 14.472656 5.226562 14.457031 4.90625 14.445312 4.578125 C 14.433594 4.28125 14.417969 3.988281 14.40625 3.683594 C 14.414062 3 14.414062 3 14.683594 2.726562 Z M 24.746094 12 C 25.015625 12.816406 25.015625 12.816406 25.015625 12.816406 Z M 24.746094 12 "/>
<path style=" stroke:none;fill-rule:nonzero;fill:rgb(10.196078%,16.078431%,21.960784%);fill-opacity:1;" d="M 14.683594 2.726562 C 15.132812 2.816406 15.582031 2.90625 16.042969 3 C 16.042969 4.980469 16.042969 6.960938 16.042969 9 C 16.582031 9 17.121094 9 17.675781 9 C 19.386719 9.769531 20.539062 10.949219 21.484375 12.546875 C 21.617188 13.085938 21.617188 13.085938 21.753906 13.636719 C 23.460938 13.726562 25.164062 13.816406 26.921875 13.910156 C 27.011719 14.089844 27.101562 14.269531 27.191406 14.453125 C 26.535156 14.785156 26.109375 14.761719 25.375 14.761719 C 25.125 14.765625 24.871094 14.765625 24.609375 14.765625 C 24.347656 14.761719 24.082031 14.761719 23.8125 14.761719 C 23.417969 14.761719 23.417969 14.761719 23.011719 14.765625 C 22.761719 14.765625 22.507812 14.765625 22.25 14.761719 C 22.015625 14.761719 21.785156 14.761719 21.546875 14.761719 C 20.9375 14.726562 20.9375 14.726562 20.121094 14.453125 C 20.078125 14.652344 20.03125 14.851562 19.984375 15.054688 C 19.136719 18.433594 19.136719 18.433594 17.601562 19.53125 C 16.300781 20.195312 15.015625 20.167969 13.597656 19.910156 C 12.46875 19.273438 11.710938 18.449219 11.011719 17.371094 C 10.722656 15.800781 10.613281 14.441406 11.335938 12.988281 C 12.777344 11.347656 13.925781 10.949219 16.042969 10.636719 C 16.042969 10.457031 16.042969 10.277344 16.042969 10.089844 C 15.59375 10.089844 15.148438 10.089844 14.683594 10.089844 C 14.632812 8.914062 14.582031 7.738281 14.53125 6.5625 C 14.515625 6.226562 14.5 5.890625 14.484375 5.542969 C 14.472656 5.226562 14.457031 4.90625 14.445312 4.578125 C 14.433594 4.28125 14.417969 3.988281 14.40625 3.683594 C 14.414062 3 14.414062 3 14.683594 2.726562 Z M 14.683594 2.726562 "/>
<path style=" stroke:none;fill-rule:nonzero;fill:rgb(7.843137%,15.686275%,20.784314%);fill-opacity:1;" d="M 13.050781 3.546875 C 13.839844 4.726562 13.738281 5.800781 13.765625 7.191406 C 13.78125 7.453125 13.796875 7.710938 13.8125 7.976562 C 13.828125 8.738281 13.8125 9.355469 13.597656 10.089844 C 13.082031 10.582031 12.585938 10.867188 11.949219 11.1875 C 11.296875 11.519531 11 11.878906 10.640625 12.511719 C 10.539062 12.679688 10.4375 12.847656 10.335938 13.019531 C 9.976562 13.828125 9.761719 14.695312 9.515625 15.546875 C 6.824219 15.679688 6.824219 15.679688 4.078125 15.816406 C 3.988281 16.089844 3.898438 16.359375 3.808594 16.636719 C 5.421875 16.636719 7.039062 16.636719 8.703125 16.636719 C 8.703125 16.726562 8.703125 16.816406 8.703125 16.910156 C 8.386719 16.921875 8.070312 16.9375 7.746094 16.949219 C 7.328125 16.96875 6.910156 16.992188 6.492188 17.011719 C 6.183594 17.023438 6.183594 17.023438 5.867188 17.035156 C 4.882812 17.089844 4.109375 17.171875 3.167969 17.5 C 2.929688 17.574219 2.691406 17.648438 2.449219 17.726562 C 1.667969 17.277344 1.308594 17.066406 0.816406 16.363281 C 0.628906 15.410156 0.628906 15.410156 0.816406 14.453125 C 1.492188 13.558594 1.914062 13.15625 3.007812 12.886719 C 3.949219 12.484375 3.976562 12.332031 4.351562 11.421875 C 4.4375 11.199219 4.523438 10.980469 4.613281 10.753906 C 5.984375 7.53125 8.964844 5.425781 12.078125 4.117188 C 12.75 3.882812 12.75 3.882812 13.050781 3.546875 Z M 13.050781 3.546875 "/>
<path style=" stroke:none;fill-rule:nonzero;fill:rgb(7.45098%,14.901961%,20.784314%);fill-opacity:1;" d="M 15.226562 1.226562 C 16.042969 1.363281 16.042969 1.363281 16.691406 1.808594 C 17.242188 2.621094 17.21875 3.125 17.132812 4.089844 C 19.652344 4.800781 19.652344 4.800781 22.195312 4.738281 C 22.84375 4.636719 22.84375 4.636719 23.589844 4.996094 C 24.203125 5.453125 24.203125 5.453125 24.472656 6 C 24.484375 6.636719 24.484375 7.273438 24.472656 7.910156 C 24.113281 7.730469 23.753906 7.550781 23.386719 7.363281 C 23.386719 7.003906 23.386719 6.644531 23.386719 6.273438 C 22.9375 6.273438 22.488281 6.273438 22.027344 6.273438 C 21.773438 6.984375 21.714844 7.265625 22.007812 7.976562 C 22.105469 8.136719 22.199219 8.292969 22.296875 8.453125 C 21.894531 8.589844 21.894531 8.589844 21.484375 8.726562 C 21.335938 8.519531 21.191406 8.3125 21.039062 8.097656 C 19.9375 6.847656 18.753906 6.464844 17.132812 6.273438 C 17.132812 6.8125 17.132812 7.351562 17.132812 7.910156 C 17.476562 7.941406 17.476562 7.941406 17.828125 7.976562 C 19.804688 8.410156 20.816406 9.304688 21.957031 10.910156 C 22.296875 11.453125 22.296875 11.453125 22.558594 12.058594 C 22.652344 12.21875 22.746094 12.378906 22.84375 12.546875 C 23.476562 12.648438 24.109375 12.738281 24.746094 12.816406 C 25.015625 13.089844 25.285156 13.359375 25.5625 13.636719 C 24.214844 13.636719 22.871094 13.636719 21.484375 13.636719 C 21.3125 13.207031 21.3125 13.207031 21.140625 12.765625 C 20.210938 10.648438 18.910156 9.921875 16.859375 9 C 16.726562 9.40625 16.726562 9.40625 16.585938 9.816406 C 16.585938 9.546875 16.585938 9.277344 16.585938 9 C 16.410156 9 16.230469 9 16.042969 9 C 15.953125 7.019531 15.863281 5.039062 15.773438 3 C 15.414062 3 15.054688 3 14.683594 3 C 14.683594 5.339844 14.683594 7.679688 14.683594 10.089844 C 15.132812 10.089844 15.582031 10.089844 16.042969 10.089844 C 16.042969 10.269531 16.042969 10.449219 16.042969 10.636719 C 16.3125 10.769531 16.3125 10.769531 16.585938 10.910156 C 16.410156 10.917969 16.234375 10.921875 16.050781 10.929688 C 14.0625 11.058594 12.960938 11.472656 11.589844 12.988281 C 10.855469 14.519531 10.914062 15.945312 11.453125 17.539062 C 12.257812 18.695312 12.914062 19.496094 14.308594 19.78125 C 14.980469 19.851562 15.640625 19.894531 16.316406 19.910156 C 16.316406 20 16.316406 20.089844 16.316406 20.183594 C 15.644531 20.316406 15.644531 20.316406 14.957031 20.453125 C 14.957031 20.722656 14.957031 20.996094 14.957031 21.273438 C 13.210938 21.199219 12.109375 20.609375 10.878906 19.363281 C 10.023438 18.132812 9.789062 17.339844 9.789062 15.816406 C 7.90625 15.816406 6.019531 15.816406 4.078125 15.816406 C 4.078125 15.726562 4.078125 15.636719 4.078125 15.546875 C 6.769531 15.410156 6.769531 15.410156 9.515625 15.273438 C 9.695312 14.550781 9.875 13.832031 10.0625 13.089844 C 10.746094 11.707031 11.71875 10.832031 13.050781 10.089844 C 13.230469 10.089844 13.410156 10.089844 13.597656 10.089844 C 13.582031 9.867188 13.570312 9.640625 13.554688 9.40625 C 13.496094 8.386719 13.445312 7.363281 13.390625 6.339844 C 13.371094 5.984375 13.347656 5.628906 13.324219 5.265625 C 13.308594 4.925781 13.292969 4.582031 13.277344 4.230469 C 13.253906 3.761719 13.253906 3.761719 13.226562 3.28125 C 13.324219 2.453125 13.324219 2.453125 13.820312 1.804688 C 14.414062 1.363281 14.414062 1.363281 15.226562 1.226562 Z M 15.226562 1.226562 "/>
<path style=" stroke:none;fill-rule:nonzero;fill:rgb(7.058824%,14.509804%,19.607843%);fill-opacity:1;" d="M 28.007812 13.363281 C 28.820312 13.453125 29.261719 13.542969 29.878906 14.097656 C 30.304688 14.976562 30.199219 15.441406 29.914062 16.363281 C 29.277344 17.242188 28.949219 17.433594 27.871094 17.625 C 26.902344 17.890625 26.902344 17.890625 26.59375 18.570312 C 26.414062 19.050781 26.242188 19.53125 26.082031 20.019531 C 25.851562 20.667969 25.589844 21.171875 25.222656 21.75 C 24.710938 22.703125 24.671875 23.210938 24.746094 24.273438 C 24.65625 24.453125 24.566406 24.632812 24.472656 24.816406 C 24.292969 24.816406 24.113281 24.816406 23.929688 24.816406 C 23.929688 25 23.929688 25.179688 23.929688 25.363281 C 23.644531 25.398438 23.359375 25.429688 23.0625 25.464844 C 22.160156 25.613281 21.492188 25.8125 20.667969 26.183594 C 19.722656 26.597656 19.28125 26.726562 18.21875 26.726562 C 18.21875 26.097656 18.21875 25.46875 18.21875 24.816406 C 18.671875 24.632812 18.671875 24.632812 19.136719 24.441406 C 21.800781 23.101562 23.546875 20.78125 24.472656 18 C 23.84375 18 23.21875 18 22.570312 18 C 22.546875 18.191406 22.523438 18.382812 22.503906 18.578125 C 22.042969 20.351562 20.785156 21.628906 19.308594 22.636719 C 18.507812 22.875 18.507812 22.875 17.949219 22.910156 C 17.84375 22.296875 17.84375 22.296875 17.949219 21.546875 C 18.476562 21.160156 19.023438 20.800781 19.578125 20.453125 C 20.429688 19.582031 20.980469 18.8125 21.386719 17.671875 C 21.457031 17.476562 21.527344 17.28125 21.597656 17.082031 C 21.675781 16.863281 21.675781 16.863281 21.753906 16.636719 C 21.941406 16.628906 22.128906 16.621094 22.324219 16.617188 C 23.171875 16.585938 24.019531 16.550781 24.863281 16.515625 C 25.308594 16.5 25.308594 16.5 25.761719 16.484375 C 26.042969 16.472656 26.324219 16.460938 26.613281 16.449219 C 26.875 16.441406 27.136719 16.429688 27.402344 16.417969 C 28 16.429688 28 16.429688 28.28125 16.089844 C 28.292969 15.453125 28.292969 14.816406 28.28125 14.183594 C 28.101562 14.183594 27.921875 14.183594 27.738281 14.183594 C 27.828125 13.910156 27.917969 13.640625 28.007812 13.363281 Z M 28.007812 13.363281 "/>
<path style=" stroke:none;fill-rule:nonzero;fill:rgb(7.843137%,17.647059%,24.705882%);fill-opacity:1;" d="M 14.734375 11.863281 C 16.164062 11.882812 16.867188 12.214844 17.882812 13.199219 C 18.542969 14.054688 18.597656 14.996094 18.589844 16.054688 C 18.417969 17.070312 17.832031 17.8125 17.132812 18.546875 C 16.125 19.050781 14.96875 18.945312 13.867188 18.816406 C 12.8125 18.207031 12.175781 17.484375 11.691406 16.363281 C 11.542969 15.007812 11.539062 14.457031 12.203125 13.261719 C 13.066406 12.191406 13.367188 11.910156 14.734375 11.863281 Z M 14.734375 11.863281 "/>
<path style=" stroke:none;fill-rule:nonzero;fill:rgb(22.745098%,46.666667%,81.568627%);fill-opacity:1;" d="M 27.464844 14.453125 C 27.824219 14.542969 28.183594 14.632812 28.550781 14.726562 C 28.585938 15.375 28.585938 15.375 28.550781 16.089844 C 28.007812 16.636719 28.007812 16.636719 27.371094 16.699219 C 27.113281 16.695312 26.855469 16.691406 26.585938 16.691406 C 26.167969 16.6875 26.167969 16.6875 25.738281 16.683594 C 25.445312 16.679688 25.148438 16.675781 24.847656 16.671875 C 24.550781 16.667969 24.257812 16.664062 23.949219 16.664062 C 23.21875 16.65625 22.488281 16.648438 21.753906 16.636719 C 21.71875 16.84375 21.683594 17.046875 21.644531 17.257812 C 21.226562 19.148438 20.0625 20.484375 18.492188 21.546875 C 18.3125 21.546875 18.132812 21.546875 17.949219 21.546875 C 17.949219 21.996094 17.949219 22.445312 17.949219 22.910156 C 20.019531 22.011719 21.347656 20.941406 22.265625 18.835938 C 22.363281 18.558594 22.464844 18.285156 22.570312 18 C 23.199219 18 23.828125 18 24.472656 18 C 24.21875 20.101562 23.050781 21.410156 21.617188 22.859375 C 21.488281 22.988281 21.359375 23.121094 21.226562 23.253906 C 20.261719 24.203125 19.589844 24.816406 18.21875 24.816406 C 18.308594 25.539062 18.398438 26.257812 18.492188 27 C 18.042969 27 17.59375 27 17.132812 27 C 17.066406 26.035156 17.03125 25.070312 16.996094 24.101562 C 16.96875 23.695312 16.96875 23.695312 16.941406 23.277344 C 16.886719 21.269531 16.886719 21.269531 17.601562 20.480469 C 18.1875 20.058594 18.1875 20.058594 18.769531 19.722656 C 19.679688 19.117188 20.050781 18.191406 20.394531 17.183594 C 20.484375 16.730469 20.574219 16.28125 20.667969 15.816406 C 22.820312 15.816406 24.972656 15.816406 27.191406 15.816406 C 27.28125 15.367188 27.371094 14.917969 27.464844 14.453125 Z M 27.464844 14.453125 "/>
<path style=" stroke:none;fill-rule:nonzero;fill:rgb(36.470588%,87.45098%,90.588235%);fill-opacity:1;" d="M 13.050781 3.546875 C 13.839844 4.726562 13.738281 5.800781 13.765625 7.191406 C 13.78125 7.453125 13.796875 7.710938 13.8125 7.976562 C 13.828125 8.738281 13.8125 9.355469 13.597656 10.089844 C 13.082031 10.582031 12.585938 10.867188 11.949219 11.183594 C 11.28125 11.527344 10.984375 11.910156 10.621094 12.5625 C 10.519531 12.738281 10.414062 12.917969 10.308594 13.101562 C 10.007812 13.710938 10.007812 13.710938 9.789062 14.726562 C 7.90625 14.726562 6.019531 14.726562 4.078125 14.726562 C 3.945312 14.324219 3.945312 14.324219 3.808594 13.910156 C 5.511719 13.910156 7.21875 13.910156 8.972656 13.910156 C 9.0625 13.367188 9.152344 12.828125 9.246094 12.273438 C 9.976562 11.140625 10.921875 10.183594 12.066406 9.476562 C 12.820312 9.074219 12.820312 9.074219 13.019531 8.386719 C 13.03125 8.230469 13.042969 8.070312 13.050781 7.910156 C 10.578125 8.882812 8.96875 10.351562 7.886719 12.816406 C 7.257812 12.816406 6.628906 12.816406 5.984375 12.816406 C 6.621094 10.261719 8.542969 8.347656 10.605469 6.816406 C 11.175781 6.578125 11.175781 6.578125 11.691406 6.410156 C 11.960938 6.273438 12.230469 6.140625 12.507812 6 C 12.75 5.25 12.753906 4.617188 12.78125 3.816406 C 12.871094 3.726562 12.960938 3.636719 13.050781 3.546875 Z M 13.050781 3.546875 "/>
<path style=" stroke:none;fill-rule:nonzero;fill:rgb(41.568627%,43.529412%,50.980392%);fill-opacity:1;" d="M 16.921875 11.09375 C 18.210938 11.679688 19.007812 12.300781 19.578125 13.636719 C 19.859375 15.539062 19.734375 17.042969 18.648438 18.648438 C 17.648438 19.679688 16.699219 20.039062 15.277344 20.078125 C 13.710938 20.042969 12.90625 19.632812 11.828125 18.503906 C 10.832031 17.269531 10.757812 16.125 10.792969 14.574219 C 10.964844 13.234375 11.707031 12.5 12.679688 11.640625 C 14.003906 10.699219 15.363281 10.617188 16.921875 11.09375 Z M 12.476562 12.785156 C 11.742188 14.007812 11.457031 14.929688 11.691406 16.363281 C 12.238281 17.449219 12.863281 18.144531 13.867188 18.816406 C 14.789062 18.96875 15.664062 18.964844 16.585938 18.816406 C 17.445312 18.152344 17.894531 17.535156 18.492188 16.636719 C 18.609375 15.179688 18.621094 14.269531 17.675781 13.089844 C 17.039062 12.351562 16.574219 12.046875 15.609375 11.875 C 13.835938 11.769531 13.835938 11.769531 12.476562 12.785156 Z M 12.476562 12.785156 "/>
<path style=" stroke:none;fill-rule:nonzero;fill:rgb(21.176471%,47.45098%,82.745098%);fill-opacity:1;" d="M 3.808594 15.816406 C 5.78125 15.816406 7.753906 15.816406 9.789062 15.816406 C 10.058594 16.71875 10.328125 17.617188 10.605469 18.546875 C 11.371094 19.855469 12.460938 20.511719 13.867188 21 C 14.496094 21.089844 15.125 21.179688 15.773438 21.273438 C 15.90625 24.511719 15.90625 24.511719 16.042969 27.816406 C 15.683594 28 15.324219 28.179688 14.957031 28.363281 C 14.414062 27.816406 14.414062 27.816406 14.375 27.230469 C 14.390625 26.992188 14.402344 26.757812 14.417969 26.511719 C 14.433594 26.253906 14.445312 26 14.460938 25.734375 C 14.480469 25.464844 14.496094 25.195312 14.515625 24.921875 C 14.539062 24.515625 14.539062 24.515625 14.5625 24.101562 C 14.597656 23.429688 14.640625 22.761719 14.683594 22.089844 C 14.394531 22.058594 14.101562 22.027344 13.800781 21.992188 C 12.167969 21.714844 10.9375 20.894531 9.824219 19.671875 C 9.246094 18.816406 9.246094 18.816406 8.703125 16.910156 C 7.085938 16.820312 5.472656 16.730469 3.808594 16.636719 C 3.808594 16.367188 3.808594 16.097656 3.808594 15.816406 Z M 3.808594 15.816406 "/>
<path style=" stroke:none;fill-rule:nonzero;fill:rgb(40%,41.176471%,45.098039%);fill-opacity:1;" d="M 5.710938 17.726562 C 6.558594 17.558594 6.558594 17.558594 7.613281 17.726562 C 8.097656 18.359375 8.441406 19.023438 8.8125 19.722656 C 9.859375 21.488281 11.429688 22.507812 13.324219 23.183594 C 13.324219 23.8125 13.324219 24.441406 13.324219 25.089844 C 11.082031 24.921875 9.140625 23.40625 7.613281 21.816406 C 6.632812 20.539062 6.070312 19.292969 5.710938 17.726562 Z M 5.710938 17.726562 "/>
<path style=" stroke:none;fill-rule:nonzero;fill:rgb(37.254902%,40%,44.705882%);fill-opacity:1;" d="M 22.570312 18 C 23.199219 18 23.828125 18 24.472656 18 C 24.21875 20.101562 23.050781 21.410156 21.617188 22.859375 C 21.488281 22.988281 21.359375 23.121094 21.226562 23.253906 C 20.261719 24.203125 19.589844 24.816406 18.21875 24.816406 C 18.308594 25.539062 18.398438 26.257812 18.492188 27 C 18.3125 27 18.132812 27 17.949219 27 C 17.949219 25.648438 17.949219 24.300781 17.949219 22.910156 C 18.273438 22.769531 18.597656 22.628906 18.933594 22.484375 C 20.871094 21.503906 21.839844 20 22.570312 18 Z M 22.570312 18 "/>
<path style=" stroke:none;fill-rule:nonzero;fill:rgb(45.882353%,47.45098%,50.588235%);fill-opacity:1;" d="M 17.132812 6.273438 C 18.558594 6.132812 19.542969 6.503906 20.667969 7.363281 C 21.03125 7.816406 21.394531 8.269531 21.753906 8.726562 C 22.007812 8.765625 22.007812 8.765625 22.265625 8.800781 C 23.179688 9.117188 23.402344 9.792969 23.863281 10.621094 C 24.027344 10.914062 24.195312 11.210938 24.367188 11.511719 C 24.746094 12.273438 24.746094 12.273438 24.746094 12.816406 C 23.914062 13.003906 23.914062 13.003906 22.84375 12.816406 C 22.277344 12.109375 21.851562 11.378906 21.421875 10.582031 C 20.625 9.320312 19.683594 8.671875 18.269531 8.25 C 18.054688 8.183594 17.839844 8.117188 17.617188 8.050781 C 17.457031 8.003906 17.296875 7.957031 17.132812 7.910156 C 17.132812 7.367188 17.132812 6.828125 17.132812 6.273438 Z M 17.132812 6.273438 "/>
<path style=" stroke:none;fill-rule:nonzero;fill:rgb(45.882353%,47.45098%,50.588235%);fill-opacity:1;" d="M 12.78125 6 C 12.78125 6.628906 12.78125 7.261719 12.78125 7.910156 C 12.496094 8.0625 12.207031 8.210938 11.914062 8.371094 C 10.164062 9.375 8.707031 10.960938 7.886719 12.816406 C 7.257812 12.816406 6.628906 12.816406 5.984375 12.816406 C 6.625 10.246094 8.546875 8.375 10.605469 6.816406 C 12.070312 6 12.070312 6 12.78125 6 Z M 12.78125 6 "/>
<path style=" stroke:none;fill-rule:nonzero;fill:rgb(40.392157%,43.529412%,48.627451%);fill-opacity:1;" d="M 18.492188 15.273438 C 18.671875 15.542969 18.851562 15.8125 19.035156 16.089844 C 19.214844 16.089844 19.394531 16.089844 19.578125 16.089844 C 19.433594 17.328125 18.980469 18.113281 18.21875 19.089844 C 16.957031 20.003906 15.945312 20.09375 14.417969 20.058594 C 13.082031 19.816406 12.21875 19.078125 11.421875 18 C 11.230469 17.390625 11.230469 17.390625 11.148438 16.910156 C 11.507812 16.820312 11.867188 16.730469 12.238281 16.636719 C 12.355469 16.851562 12.472656 17.0625 12.59375 17.285156 C 13.023438 18.058594 13.023438 18.058594 13.867188 18.546875 C 15.21875 18.761719 16.261719 18.769531 17.402344 17.984375 C 18.03125 17.058594 18.257812 16.359375 18.492188 15.273438 Z M 18.492188 15.273438 "/>
<path style=" stroke:none;fill-rule:nonzero;fill:rgb(28.235294%,53.72549%,81.960784%);fill-opacity:1;" d="M 17.132812 9.273438 C 18.742188 9.351562 19.59375 10.054688 20.667969 11.183594 C 21.285156 12.046875 21.492188 12.585938 21.753906 13.636719 C 23.460938 13.726562 25.164062 13.816406 26.921875 13.910156 C 27.054688 14.179688 27.054688 14.179688 27.191406 14.453125 C 26.527344 14.789062 26.089844 14.757812 25.347656 14.753906 C 25.089844 14.753906 24.835938 14.753906 24.570312 14.75 C 24.167969 14.746094 24.167969 14.746094 23.761719 14.746094 C 23.488281 14.742188 23.21875 14.742188 22.941406 14.742188 C 22.273438 14.738281 21.605469 14.734375 20.9375 14.726562 C 20.867188 14.53125 20.800781 14.332031 20.726562 14.128906 C 20.007812 12.304688 19.359375 11.355469 17.617188 10.421875 C 17.457031 10.3125 17.296875 10.203125 17.132812 10.089844 C 17.132812 9.820312 17.132812 9.550781 17.132812 9.273438 Z M 17.132812 9.273438 "/>
<path style=" stroke:none;fill-rule:nonzero;fill:rgb(7.843137%,15.686275%,21.568627%);fill-opacity:1;" d="M 14.785156 11.898438 C 16.203125 11.917969 16.203125 11.917969 17.046875 12.546875 C 17.164062 12.726562 17.28125 12.90625 17.402344 13.089844 C 17.132812 13 16.863281 12.910156 16.585938 12.816406 C 15.5 12.714844 14.492188 12.6875 13.460938 13.074219 C 12.808594 13.972656 12.722656 14.992188 12.78125 16.089844 C 13.113281 16.960938 13.113281 16.960938 13.867188 17.453125 C 14.421875 17.472656 14.980469 17.476562 15.535156 17.472656 C 15.832031 17.46875 16.128906 17.464844 16.4375 17.464844 C 16.667969 17.460938 16.894531 17.457031 17.132812 17.453125 C 17.132812 17.816406 17.132812 18.175781 17.132812 18.546875 C 16.125 19.050781 14.96875 18.945312 13.867188 18.816406 C 12.8125 18.207031 12.175781 17.484375 11.691406 16.363281 C 11.542969 15.007812 11.539062 14.457031 12.203125 13.261719 C 13.089844 12.160156 13.378906 11.917969 14.785156 11.898438 Z M 14.785156 11.898438 "/>
<path style=" stroke:none;fill-rule:nonzero;fill:rgb(5.882353%,13.72549%,18.431373%);fill-opacity:1;" d="M 21.484375 23.183594 C 21.660156 23.273438 21.839844 23.363281 22.027344 23.453125 C 22.117188 23.722656 22.207031 23.996094 22.296875 24.273438 C 22.566406 24.453125 22.835938 24.632812 23.113281 24.816406 C 23.023438 25.089844 22.933594 25.359375 22.84375 25.636719 C 22.664062 25.613281 22.484375 25.589844 22.296875 25.566406 C 21.3125 25.652344 20.691406 26.003906 19.839844 26.488281 C 19.308594 26.726562 19.308594 26.726562 18.21875 26.726562 C 18.21875 26.097656 18.21875 25.46875 18.21875 24.816406 C 18.433594 24.722656 18.644531 24.628906 18.863281 24.53125 C 19.140625 24.40625 19.414062 24.28125 19.699219 24.152344 C 19.972656 24.03125 20.246094 23.90625 20.53125 23.78125 C 21.179688 23.515625 21.179688 23.515625 21.484375 23.183594 Z M 21.484375 23.183594 "/>
<path style=" stroke:none;fill-rule:nonzero;fill:rgb(34.509804%,83.137255%,85.098039%);fill-opacity:1;" d="M 14.683594 2.726562 C 15.132812 2.816406 15.582031 2.90625 16.042969 3 C 15.953125 5.339844 15.863281 7.679688 15.773438 10.089844 C 15.414062 10.089844 15.054688 10.089844 14.683594 10.089844 C 14.632812 8.914062 14.582031 7.738281 14.53125 6.5625 C 14.515625 6.226562 14.5 5.890625 14.484375 5.542969 C 14.472656 5.226562 14.457031 4.90625 14.445312 4.578125 C 14.433594 4.28125 14.417969 3.988281 14.40625 3.683594 C 14.414062 3 14.414062 3 14.683594 2.726562 Z M 14.683594 2.726562 "/>
<path style=" stroke:none;fill-rule:nonzero;fill:rgb(9.019608%,21.568627%,28.627451%);fill-opacity:1;" d="M 2.449219 14.453125 C 3.453125 14.644531 3.453125 14.644531 3.808594 15 C 3.808594 15.539062 3.808594 16.078125 3.808594 16.636719 C 5.421875 16.636719 7.039062 16.636719 8.703125 16.636719 C 8.703125 16.726562 8.703125 16.816406 8.703125 16.910156 C 8.386719 16.921875 8.070312 16.9375 7.746094 16.949219 C 7.328125 16.96875 6.910156 16.992188 6.492188 17.011719 C 6.183594 17.023438 6.183594 17.023438 5.867188 17.035156 C 4.878906 17.089844 4.113281 17.171875 3.167969 17.503906 C 2.449219 17.726562 2.449219 17.726562 1.929688 17.480469 C 1.558594 17.109375 1.1875 16.738281 0.816406 16.363281 C 0.882812 15.851562 0.882812 15.851562 1.085938 15.273438 C 1.632812 14.949219 1.632812 14.949219 2.175781 14.726562 C 2.265625 14.636719 2.355469 14.546875 2.449219 14.453125 Z M 2.449219 14.453125 "/>
<path style=" stroke:none;fill-rule:nonzero;fill:rgb(52.156863%,51.372549%,54.509804%);fill-opacity:1;" d="M 15.125 10.890625 C 15.460938 10.894531 15.460938 10.894531 15.800781 10.898438 C 16.054688 10.902344 16.054688 10.902344 16.316406 10.910156 C 16.40625 11.089844 16.496094 11.269531 16.585938 11.453125 C 16.363281 11.496094 16.140625 11.542969 15.914062 11.585938 C 14.089844 11.945312 14.089844 11.945312 12.59375 12.972656 C 12.070312 13.949219 11.933594 14.464844 11.949219 15.578125 C 11.953125 15.953125 11.953125 15.953125 11.957031 16.332031 C 11.957031 16.523438 11.960938 16.710938 11.964844 16.910156 C 11.605469 16.820312 11.246094 16.730469 10.878906 16.636719 C 10.78125 15.277344 10.71875 14.226562 11.335938 12.988281 C 12.480469 11.683594 13.375 10.867188 15.125 10.890625 Z M 15.125 10.890625 "/>
<path style=" stroke:none;fill-rule:nonzero;fill:rgb(4.313725%,10.980392%,16.470588%);fill-opacity:1;" d="M 13.597656 3.273438 C 13.957031 3.453125 14.3125 3.632812 14.683594 3.816406 C 14.683594 5.886719 14.683594 7.957031 14.683594 10.089844 C 14.234375 10.179688 13.785156 10.269531 13.324219 10.363281 C 13.414062 8.023438 13.503906 5.683594 13.597656 3.273438 Z M 13.597656 3.273438 "/>
<path style=" stroke:none;fill-rule:nonzero;fill:rgb(30.588235%,87.45098%,98.823529%);fill-opacity:1;" d="M 3.808594 15.816406 C 5.78125 15.816406 7.753906 15.816406 9.789062 15.816406 C 9.878906 16.628906 9.96875 17.4375 10.0625 18.273438 C 9.703125 18.183594 9.34375 18.09375 8.972656 18 C 8.882812 17.640625 8.792969 17.28125 8.703125 16.910156 C 7.085938 16.820312 5.472656 16.730469 3.808594 16.636719 C 3.808594 16.367188 3.808594 16.097656 3.808594 15.816406 Z M 3.808594 15.816406 "/>
<path style=" stroke:none;fill-rule:nonzero;fill:rgb(45.490196%,46.27451%,50.980392%);fill-opacity:1;" d="M 11.421875 16.636719 C 11.691406 16.636719 11.960938 16.636719 12.238281 16.636719 C 12.359375 16.84375 12.484375 17.050781 12.609375 17.265625 C 13.132812 18.128906 13.5 18.402344 14.414062 18.816406 C 15.417969 19.015625 15.417969 19.015625 16.316406 19.089844 C 16.316406 19.359375 16.316406 19.632812 16.316406 19.910156 C 15.089844 20.066406 14.035156 20.167969 12.941406 19.523438 C 11.296875 18.117188 11.296875 18.117188 11.148438 16.910156 C 11.238281 16.820312 11.328125 16.730469 11.421875 16.636719 Z M 11.421875 16.636719 "/>
<path style=" stroke:none;fill-rule:nonzero;fill:rgb(32.156863%,88.235294%,94.117647%);fill-opacity:1;" d="M 9.789062 12.816406 C 10.0625 13.636719 10.0625 13.636719 9.789062 14.726562 C 7.90625 14.726562 6.019531 14.726562 4.078125 14.726562 C 3.988281 14.457031 3.898438 14.1875 3.808594 13.910156 C 5.511719 13.910156 7.21875 13.910156 8.972656 13.910156 C 8.972656 13.730469 8.972656 13.550781 8.972656 13.363281 C 9.242188 13.183594 9.511719 13.003906 9.789062 12.816406 Z M 9.789062 12.816406 "/>
<path style=" stroke:none;fill-rule:nonzero;fill:rgb(30.196078%,90.588235%,94.509804%);fill-opacity:1;" d="M 16.585938 12.546875 C 17.285156 13.058594 17.285156 13.058594 17.675781 13.636719 C 17.675781 13.816406 17.675781 13.996094 17.675781 14.183594 C 17.496094 14.183594 17.316406 14.183594 17.132812 14.183594 C 17.132812 14 17.132812 13.820312 17.132812 13.636719 C 15.347656 13.480469 15.347656 13.480469 13.699219 14.046875 C 13.152344 15.039062 13.25 15.785156 13.324219 16.910156 C 12.769531 16.457031 12.527344 16.238281 12.441406 15.511719 C 12.554688 14.441406 12.652344 13.800781 13.324219 12.9375 C 14.433594 12.40625 15.378906 12.316406 16.585938 12.546875 Z M 16.585938 12.546875 "/>
<path style=" stroke:none;fill-rule:nonzero;fill:rgb(42.352941%,47.843137%,57.647059%);fill-opacity:1;" d="M 16.316406 14.453125 C 16.585938 14.726562 16.585938 14.726562 16.621094 15.546875 C 16.585938 16.363281 16.585938 16.363281 16.316406 16.636719 C 15.363281 16.671875 15.363281 16.671875 14.414062 16.636719 C 14.324219 16.546875 14.234375 16.457031 14.140625 16.363281 C 14.226562 15.410156 14.226562 15.410156 14.414062 14.453125 C 15.140625 14.089844 15.542969 14.253906 16.316406 14.453125 Z M 16.316406 14.453125 "/>
<path style=" stroke:none;fill-rule:nonzero;fill:rgb(22.745098%,42.745098%,71.764706%);fill-opacity:1;" d="M 27.464844 14.453125 C 27.824219 14.542969 28.183594 14.632812 28.550781 14.726562 C 28.585938 15.375 28.585938 15.375 28.550781 16.089844 C 28.007812 16.636719 28.007812 16.636719 27.421875 16.699219 C 27.1875 16.695312 26.949219 16.691406 26.707031 16.691406 C 26.449219 16.6875 26.195312 16.6875 25.929688 16.683594 C 25.664062 16.679688 25.394531 16.675781 25.121094 16.671875 C 24.847656 16.667969 24.578125 16.664062 24.300781 16.664062 C 23.632812 16.65625 22.964844 16.648438 22.296875 16.636719 C 22.296875 16.546875 22.296875 16.457031 22.296875 16.363281 C 23.195312 16.273438 24.09375 16.183594 25.015625 16.089844 C 25.015625 16 25.015625 15.910156 25.015625 15.816406 C 25.734375 15.816406 26.453125 15.816406 27.191406 15.816406 C 27.28125 15.367188 27.371094 14.917969 27.464844 14.453125 Z M 27.464844 14.453125 "/>
<path style=" stroke:none;fill-rule:nonzero;fill:rgb(4.313725%,12.156863%,18.823529%);fill-opacity:1;" d="M 3.535156 14.726562 C 5.507812 14.726562 7.484375 14.726562 9.515625 14.726562 C 9.515625 14.996094 9.515625 15.265625 9.515625 15.546875 C 6.691406 15.679688 6.691406 15.679688 3.808594 15.816406 C 3.71875 15.457031 3.628906 15.097656 3.535156 14.726562 Z M 3.535156 14.726562 "/>
<path style=" stroke:none;fill-rule:nonzero;fill:rgb(9.411765%,15.294118%,20.392157%);fill-opacity:1;" d="M 16.042969 1.363281 C 16.3125 1.542969 16.582031 1.722656 16.859375 1.910156 C 16.769531 2.089844 16.679688 2.269531 16.585938 2.453125 C 16.285156 2.535156 15.980469 2.613281 15.671875 2.691406 C 14.625 3.019531 14.417969 3.191406 13.867188 4.089844 C 13.597656 4.226562 13.597656 4.226562 13.324219 4.363281 C 13.191406 2.652344 13.191406 2.652344 13.765625 1.789062 C 14.59375 1.246094 15.070312 1.238281 16.042969 1.363281 Z M 16.042969 1.363281 "/>
<path style=" stroke:none;fill-rule:nonzero;fill:rgb(11.372549%,29.019608%,34.901961%);fill-opacity:1;" d="M 15.773438 3.816406 C 15.863281 3.816406 15.953125 3.816406 16.042969 3.816406 C 16.042969 5.527344 16.042969 7.238281 16.042969 9 C 16.582031 9 17.121094 9 17.675781 9 C 17.496094 9.089844 17.316406 9.179688 17.132812 9.273438 C 17.222656 9.542969 17.3125 9.8125 17.402344 10.089844 C 17.582031 10.179688 17.761719 10.269531 17.949219 10.363281 C 17.949219 10.8125 17.949219 11.261719 17.949219 11.726562 C 16.414062 11.324219 16.414062 11.324219 15.992188 10.707031 C 15.730469 9.972656 15.710938 9.394531 15.71875 8.613281 C 15.722656 8.191406 15.722656 8.191406 15.722656 7.765625 C 15.730469 7.476562 15.734375 7.183594 15.738281 6.886719 C 15.742188 6.59375 15.742188 6.296875 15.746094 5.996094 C 15.75 5.269531 15.761719 4.542969 15.773438 3.816406 Z M 15.773438 3.816406 "/>
<path style=" stroke:none;fill-rule:nonzero;fill:rgb(13.333333%,22.745098%,29.019608%);fill-opacity:1;" d="M 14.785156 11.898438 C 16.203125 11.917969 16.203125 11.917969 17.046875 12.546875 C 17.164062 12.726562 17.28125 12.90625 17.402344 13.089844 C 17.132812 13 16.863281 12.910156 16.585938 12.816406 C 15.464844 12.710938 14.476562 12.640625 13.460938 13.175781 C 12.988281 13.644531 12.988281 13.644531 12.78125 14.453125 C 12.511719 14.453125 12.242188 14.453125 11.964844 14.453125 C 11.964844 15.085938 11.964844 15.714844 11.964844 16.363281 C 11.875 16.363281 11.785156 16.363281 11.691406 16.363281 C 11.578125 14.691406 11.691406 13.894531 12.78125 12.546875 C 13.484375 11.839844 13.808594 11.910156 14.785156 11.898438 Z M 14.785156 11.898438 "/>
<path style=" stroke:none;fill-rule:nonzero;fill:rgb(21.176471%,43.137255%,79.215686%);fill-opacity:1;" d="M 14.683594 22.089844 C 14.773438 22.089844 14.863281 22.089844 14.957031 22.089844 C 15.046875 23.171875 15.136719 24.25 15.226562 25.363281 C 15.316406 24.824219 15.40625 24.285156 15.5 23.726562 C 15.589844 23.726562 15.679688 23.726562 15.773438 23.726562 C 15.863281 25.078125 15.953125 26.425781 16.042969 27.816406 C 15.503906 28.089844 15.503906 28.089844 14.957031 28.363281 C 14.414062 27.816406 14.414062 27.816406 14.375 27.230469 C 14.390625 26.992188 14.402344 26.757812 14.417969 26.511719 C 14.433594 26.253906 14.445312 26 14.460938 25.734375 C 14.480469 25.464844 14.496094 25.195312 14.515625 24.921875 C 14.53125 24.648438 14.546875 24.378906 14.5625 24.101562 C 14.597656 23.429688 14.640625 22.761719 14.683594 22.089844 Z M 14.683594 22.089844 "/>
<path style=" stroke:none;fill-rule:nonzero;fill:rgb(29.019608%,81.176471%,92.941176%);fill-opacity:1;" d="M 17.132812 9.273438 C 18.554688 9.34375 19.269531 9.855469 20.308594 10.753906 C 20.667969 11.183594 20.667969 11.183594 20.667969 12 C 19.734375 11.824219 19.074219 11.460938 18.289062 10.941406 C 18.070312 10.804688 17.851562 10.664062 17.628906 10.519531 C 17.382812 10.308594 17.382812 10.308594 17.132812 10.089844 C 17.132812 9.820312 17.132812 9.550781 17.132812 9.273438 Z M 17.132812 9.273438 "/>
<path style=" stroke:none;fill-rule:nonzero;fill:rgb(41.568627%,99.607843%,99.607843%);fill-opacity:1;" d="M 14.957031 4.636719 C 15.136719 4.996094 15.316406 5.355469 15.5 5.726562 C 15.589844 5.816406 15.679688 5.90625 15.773438 6 C 15.792969 6.691406 15.796875 7.371094 15.789062 8.0625 C 15.789062 8.257812 15.785156 8.449219 15.785156 8.648438 C 15.78125 9.128906 15.777344 9.609375 15.773438 10.089844 C 15.503906 10.089844 15.234375 10.089844 14.957031 10.089844 C 14.957031 8.289062 14.957031 6.492188 14.957031 4.636719 Z M 14.957031 4.636719 "/>
<path style=" stroke:none;fill-rule:nonzero;fill:rgb(3.921569%,11.372549%,18.039216%);fill-opacity:1;" d="M 9.246094 12 C 9.007812 13.328125 9.007812 13.328125 8.703125 13.636719 C 7.921875 13.65625 7.152344 13.660156 6.375 13.652344 C 6.152344 13.652344 5.933594 13.652344 5.707031 13.648438 C 5.164062 13.644531 4.621094 13.640625 4.078125 13.636719 C 4.078125 13.546875 4.078125 13.457031 4.078125 13.363281 C 5.019531 13.230469 5.019531 13.230469 5.984375 13.089844 C 5.984375 13 5.984375 12.910156 5.984375 12.816406 C 6.28125 12.785156 6.578125 12.75 6.882812 12.714844 C 7.792969 12.5625 8.378906 12 9.246094 12 Z M 9.246094 12 "/>
<path style=" stroke:none;fill-rule:nonzero;fill:rgb(9.019608%,18.039216%,25.490196%);fill-opacity:1;" d="M 22.296875 23.183594 C 22.960938 23.285156 22.960938 23.285156 23.65625 23.453125 C 23.746094 23.632812 23.835938 23.816406 23.929688 24 C 24.199219 24.089844 24.46875 24.179688 24.746094 24.273438 C 24.65625 24.453125 24.566406 24.632812 24.472656 24.816406 C 24.292969 24.816406 24.113281 24.816406 23.929688 24.816406 C 23.929688 25 23.929688 25.179688 23.929688 25.363281 C 23.570312 25.453125 23.210938 25.542969 22.84375 25.636719 C 22.84375 25.367188 22.84375 25.097656 22.84375 24.816406 C 22.574219 24.636719 22.304688 24.457031 22.027344 24.273438 C 22.117188 23.914062 22.207031 23.550781 22.296875 23.183594 Z M 22.296875 23.183594 "/>
<path style=" stroke:none;fill-rule:nonzero;fill:rgb(24.705882%,49.411765%,89.803922%);fill-opacity:1;" d="M 14.683594 21.273438 C 15.042969 21.273438 15.402344 21.273438 15.773438 21.273438 C 15.832031 23.164062 15.613281 24.878906 15.226562 26.726562 C 15.136719 26.726562 15.046875 26.726562 14.957031 26.726562 C 14.867188 24.925781 14.777344 23.128906 14.683594 21.273438 Z M 14.683594 21.273438 "/>
<path style=" stroke:none;fill-rule:nonzero;fill:rgb(20.392157%,38.823529%,69.803922%);fill-opacity:1;" d="M 17.675781 21.816406 C 17.765625 21.816406 17.855469 21.816406 17.949219 21.816406 C 17.949219 23.527344 17.949219 25.238281 17.949219 27 C 17.679688 27 17.410156 27 17.132812 27 C 17.074219 25.1875 17.265625 23.582031 17.675781 21.816406 Z M 17.675781 21.816406 "/>
<path style=" stroke:none;fill-rule:nonzero;fill:rgb(35.294118%,88.627451%,92.941176%);fill-opacity:1;" d="M 22.027344 6 C 22.480469 6.078125 22.9375 6.167969 23.386719 6.273438 C 23.386719 6.722656 23.386719 7.171875 23.386719 7.636719 C 22.738281 7.808594 22.738281 7.808594 22.027344 7.910156 C 21.847656 7.730469 21.667969 7.550781 21.484375 7.363281 C 21.628906 6.398438 21.628906 6.398438 22.027344 6 Z M 22.027344 6 "/>
<path style=" stroke:none;fill-rule:nonzero;fill:rgb(21.176471%,43.137255%,79.215686%);fill-opacity:1;" d="M 17.949219 20.453125 C 18.304688 20.632812 18.664062 20.816406 19.035156 21 C 18.777344 21.160156 18.777344 21.160156 18.511719 21.320312 C 17.808594 21.941406 17.75 22.316406 17.609375 23.234375 C 17.566406 23.480469 17.527344 23.722656 17.484375 23.976562 C 17.457031 24.164062 17.429688 24.351562 17.402344 24.546875 C 17.3125 24.546875 17.222656 24.546875 17.132812 24.546875 C 17.109375 23.964844 17.09375 23.386719 17.082031 22.808594 C 17.070312 22.484375 17.0625 22.160156 17.050781 21.828125 C 17.078125 21.554688 17.105469 21.28125 17.132812 21 C 17.402344 20.820312 17.671875 20.640625 17.949219 20.453125 Z M 17.949219 20.453125 "/>
<path style=" stroke:none;fill-rule:nonzero;fill:rgb(24.705882%,52.156863%,85.490196%);fill-opacity:1;" d="M 10.0625 18 C 10.753906 18.804688 11.238281 19.398438 11.421875 20.453125 C 11.511719 20.632812 11.601562 20.816406 11.691406 21 C 10.527344 20.566406 9.972656 19.792969 9.246094 18.816406 C 9.246094 18.636719 9.246094 18.457031 9.246094 18.273438 C 9.515625 18.183594 9.785156 18.09375 10.0625 18 Z M 10.0625 18 "/>
<path style=" stroke:none;fill-rule:nonzero;fill:rgb(37.647059%,87.058824%,90.588235%);fill-opacity:1;" d="M 13.324219 13.089844 C 13.683594 13.089844 14.042969 13.089844 14.414062 13.089844 C 14.414062 13.269531 14.414062 13.449219 14.414062 13.636719 C 14.144531 13.855469 14.144531 13.855469 13.867188 14.078125 C 13.070312 15.03125 13.242188 15.691406 13.324219 16.910156 C 12.914062 16.578125 12.914062 16.578125 12.507812 16.089844 C 12.46875 15.492188 12.46875 15.492188 12.558594 14.847656 C 12.585938 14.632812 12.613281 14.417969 12.640625 14.199219 C 12.78125 13.636719 12.78125 13.636719 13.324219 13.089844 Z M 13.324219 13.089844 "/>
<path style=" stroke:none;fill-rule:nonzero;fill:rgb(4.705882%,11.764706%,17.254902%);fill-opacity:1;" d="M 17.402344 17.726562 C 17.132812 18.546875 17.132812 18.546875 16.585938 18.816406 C 15.859375 18.855469 15.140625 18.828125 14.414062 18.816406 C 14.589844 18.726562 14.769531 18.636719 14.957031 18.546875 C 14.957031 18.367188 14.957031 18.183594 14.957031 18 C 15.886719 17.558594 16.417969 17.363281 17.402344 17.726562 Z M 17.402344 17.726562 "/>
<path style=" stroke:none;fill-rule:nonzero;fill:rgb(36.078431%,91.372549%,93.72549%);fill-opacity:1;" d="M 2.449219 14.453125 C 3.023438 14.558594 3.023438 14.558594 3.535156 14.726562 C 3.535156 15.175781 3.535156 15.628906 3.535156 16.089844 C 3.175781 16.179688 2.816406 16.269531 2.449219 16.363281 C 2.269531 15.914062 2.089844 15.464844 1.902344 15 C 2.082031 14.820312 2.261719 14.640625 2.449219 14.453125 Z M 2.449219 14.453125 "/>
<path style=" stroke:none;fill-rule:nonzero;fill:rgb(52.941176%,53.72549%,58.823529%);fill-opacity:1;" d="M 19.035156 13.363281 C 19.214844 13.453125 19.394531 13.542969 19.578125 13.636719 C 19.578125 14.445312 19.578125 15.257812 19.578125 16.089844 C 19.308594 16.179688 19.039062 16.269531 18.761719 16.363281 C 18.421875 14.285156 18.421875 14.285156 19.035156 13.363281 Z M 19.035156 13.363281 "/>
<path style=" stroke:none;fill-rule:nonzero;fill:rgb(32.941176%,58.823529%,89.411765%);fill-opacity:1;" d="M 27.464844 14.453125 C 28.027344 14.574219 28.027344 14.574219 28.550781 14.726562 C 28.550781 15.175781 28.550781 15.628906 28.550781 16.089844 C 28.195312 16.179688 27.835938 16.269531 27.464844 16.363281 C 27.359375 15.820312 27.269531 15.273438 27.191406 14.726562 C 27.28125 14.636719 27.371094 14.546875 27.464844 14.453125 Z M 27.464844 14.453125 "/>
<path style=" stroke:none;fill-rule:nonzero;fill:rgb(45.882353%,46.666667%,52.156863%);fill-opacity:1;" d="M 17.949219 12 C 18.761719 12.273438 18.761719 12.273438 19.085938 12.835938 C 19.160156 13.007812 19.230469 13.183594 19.308594 13.363281 C 18.949219 13.722656 18.589844 14.082031 18.21875 14.453125 C 17.777344 13.753906 17.664062 13.453125 17.777344 12.613281 C 17.832031 12.410156 17.890625 12.207031 17.949219 12 Z M 17.949219 12 "/>
<path style=" stroke:none;fill-rule:nonzero;fill:rgb(56.078431%,56.862745%,61.176471%);fill-opacity:1;" d="M 13.867188 10.910156 C 14.675781 10.910156 15.484375 10.910156 16.316406 10.910156 C 16.40625 11.089844 16.496094 11.269531 16.585938 11.453125 C 15.839844 11.703125 15.402344 11.757812 14.632812 11.746094 C 14.121094 11.734375 14.121094 11.734375 13.597656 11.726562 C 13.6875 11.457031 13.777344 11.1875 13.867188 10.910156 Z M 13.867188 10.910156 "/>
<path style=" stroke:none;fill-rule:nonzero;fill:rgb(25.490196%,50.196078%,83.529412%);fill-opacity:1;" d="M 21.753906 15.816406 C 22.832031 15.816406 23.90625 15.816406 25.015625 15.816406 C 25.105469 16 25.195312 16.179688 25.289062 16.363281 C 23.539062 16.5 23.539062 16.5 21.753906 16.636719 C 21.753906 16.367188 21.753906 16.097656 21.753906 15.816406 Z M 21.753906 15.816406 "/>
<path style=" stroke:none;fill-rule:nonzero;fill:rgb(24.705882%,53.72549%,85.490196%);fill-opacity:1;" d="M 20.667969 11.726562 C 20.9375 11.996094 21.207031 12.265625 21.484375 12.546875 C 21.304688 13.175781 21.125 13.804688 20.9375 14.453125 C 20.523438 13.652344 20.175781 12.839844 19.851562 12 C 20.121094 11.910156 20.390625 11.820312 20.667969 11.726562 Z M 20.667969 11.726562 "/>
<path style=" stroke:none;fill-rule:nonzero;fill:rgb(25.490196%,70.588235%,92.941176%);fill-opacity:1;" d="M 9.789062 15.816406 C 9.878906 16.628906 9.96875 17.4375 10.0625 18.273438 C 9.703125 18.183594 9.34375 18.09375 8.972656 18 C 8.785156 17.371094 8.785156 17.371094 8.703125 16.636719 C 9.320312 15.816406 9.320312 15.816406 9.789062 15.816406 Z M 9.789062 15.816406 "/>
<path style=" stroke:none;fill-rule:nonzero;fill:rgb(11.764706%,24.313725%,32.941176%);fill-opacity:1;" d="M 13.050781 14.726562 C 13.140625 14.996094 13.230469 15.265625 13.324219 15.546875 C 13.59375 15.457031 13.863281 15.367188 14.140625 15.273438 C 14.050781 15.992188 13.960938 16.710938 13.867188 17.453125 C 13.597656 17.363281 13.328125 17.273438 13.050781 17.183594 C 13.050781 16.371094 13.050781 15.5625 13.050781 14.726562 Z M 13.050781 14.726562 "/>
<path style=" stroke:none;fill-rule:nonzero;fill:rgb(12.156863%,22.352941%,29.803922%);fill-opacity:1;" d="M 17.402344 13.089844 C 17.671875 13.269531 17.941406 13.449219 18.21875 13.636719 C 18.128906 13.90625 18.039062 14.175781 17.949219 14.453125 C 17.679688 14.542969 17.410156 14.632812 17.132812 14.726562 C 16.804688 15.273438 16.804688 15.273438 16.585938 15.816406 C 16.410156 15.277344 16.230469 14.738281 16.042969 14.183594 C 16.222656 14.183594 16.402344 14.183594 16.585938 14.183594 C 16.585938 14 16.585938 13.820312 16.585938 13.636719 C 16.765625 13.636719 16.945312 13.636719 17.132812 13.636719 C 17.132812 13.816406 17.132812 13.996094 17.132812 14.183594 C 17.3125 14.183594 17.492188 14.183594 17.675781 14.183594 C 17.585938 13.820312 17.496094 13.460938 17.402344 13.089844 Z M 17.402344 13.089844 "/>
<path style=" stroke:none;fill-rule:nonzero;fill:rgb(44.313725%,46.666667%,52.156863%);fill-opacity:1;" d="M 18.492188 15.273438 C 18.671875 15.542969 18.851562 15.8125 19.035156 16.089844 C 19.214844 16.089844 19.394531 16.089844 19.578125 16.089844 C 19.488281 16.539062 19.398438 16.992188 19.308594 17.453125 C 19.039062 17.453125 18.769531 17.453125 18.492188 17.453125 C 18.191406 16.558594 18.273438 16.167969 18.492188 15.273438 Z M 18.492188 15.273438 "/>
<path style=" stroke:none;fill-rule:nonzero;fill:rgb(6.27451%,18.039216%,24.705882%);fill-opacity:1;" d="M 11.964844 14.453125 C 12.144531 14.453125 12.324219 14.453125 12.507812 14.453125 C 12.6875 15.265625 12.867188 16.074219 13.050781 16.910156 C 12.785156 17 12.515625 17.089844 12.238281 17.183594 C 11.800781 16.304688 11.949219 15.425781 11.964844 14.453125 Z M 11.964844 14.453125 "/>
<path style=" stroke:none;fill-rule:nonzero;fill:rgb(5.882353%,11.372549%,16.078431%);fill-opacity:1;" d="M 1.632812 13.363281 C 1.902344 13.453125 2.171875 13.542969 2.449219 13.636719 C 2.308594 13.742188 2.167969 13.851562 2.023438 13.960938 C 1.828125 14.203125 1.828125 14.203125 1.632812 14.453125 C 1.695312 15.179688 1.695312 15.179688 1.902344 15.816406 C 1.542969 15.636719 1.1875 15.457031 0.816406 15.273438 C 1.019531 13.976562 1.019531 13.976562 1.632812 13.363281 Z M 1.632812 13.363281 "/>
<path style=" stroke:none;fill-rule:nonzero;fill:rgb(25.098039%,43.529412%,78.039216%);fill-opacity:1;" d="M 22.296875 23.183594 C 22.65625 23.183594 23.015625 23.183594 23.386719 23.183594 C 23.296875 23.632812 23.207031 24.082031 23.113281 24.546875 C 22.753906 24.457031 22.394531 24.367188 22.027344 24.273438 C 22.117188 23.914062 22.207031 23.550781 22.296875 23.183594 Z M 22.296875 23.183594 "/>
<path style=" stroke:none;fill-rule:nonzero;fill:rgb(20.392157%,42.352941%,73.72549%);fill-opacity:1;" d="M 13.050781 21 C 13.859375 21.136719 13.859375 21.136719 14.683594 21.273438 C 14.683594 21.542969 14.683594 21.8125 14.683594 22.089844 C 14.054688 22 13.429688 21.910156 12.78125 21.816406 C 12.871094 21.546875 12.960938 21.277344 13.050781 21 Z M 13.050781 21 "/>
<path style=" stroke:none;fill-rule:nonzero;fill:rgb(25.490196%,59.215686%,93.72549%);fill-opacity:1;" d="M 21.210938 13.089844 C 21.390625 13.269531 21.570312 13.449219 21.753906 13.636719 C 22.296875 13.746094 22.839844 13.835938 23.386719 13.910156 C 22.84375 14.453125 22.84375 14.453125 21.855469 14.488281 C 21.554688 14.476562 21.25 14.464844 20.9375 14.453125 C 21.027344 14.003906 21.117188 13.554688 21.210938 13.089844 Z M 21.210938 13.089844 "/>
<path style=" stroke:none;fill-rule:nonzero;fill:rgb(52.54902%,62.745098%,67.45098%);fill-opacity:1;" d="M 12.507812 6 C 12.597656 6 12.6875 6 12.78125 6 C 12.78125 6.628906 12.78125 7.261719 12.78125 7.910156 C 12.332031 8 11.882812 8.089844 11.421875 8.183594 C 11.78125 7.460938 12.140625 6.742188 12.507812 6 Z M 12.507812 6 "/>
<path style=" stroke:none;fill-rule:nonzero;fill:rgb(13.72549%,19.607843%,25.882353%);fill-opacity:1;" d="M 15.226562 1.363281 C 15.675781 1.453125 16.125 1.542969 16.585938 1.636719 C 16.585938 1.90625 16.585938 2.175781 16.585938 2.453125 C 16.050781 2.542969 15.511719 2.632812 14.957031 2.726562 C 15.136719 2.636719 15.316406 2.546875 15.5 2.453125 C 15.410156 2.09375 15.320312 1.734375 15.226562 1.363281 Z M 15.226562 1.363281 "/>
<path style=" stroke:none;fill-rule:nonzero;fill:rgb(30.588235%,81.568627%,94.509804%);fill-opacity:1;" d="M 3.808594 15.816406 C 4.613281 15.816406 5.421875 15.816406 6.253906 15.816406 C 5.359375 16.265625 4.765625 16.476562 3.808594 16.636719 C 3.808594 16.367188 3.808594 16.097656 3.808594 15.816406 Z M 3.808594 15.816406 "/>
<path style=" stroke:none;fill-rule:nonzero;fill:rgb(5.490196%,14.901961%,22.745098%);fill-opacity:1;" d="M 14.957031 13.363281 C 15.496094 13.363281 16.03125 13.363281 16.585938 13.363281 C 16.585938 13.632812 16.585938 13.902344 16.585938 14.183594 C 15.960938 14.09375 15.332031 14 14.683594 13.910156 C 14.773438 13.730469 14.863281 13.550781 14.957031 13.363281 Z M 14.957031 13.363281 "/>
<path style=" stroke:none;fill-rule:nonzero;fill:rgb(21.176471%,68.235294%,78.823529%);fill-opacity:1;" d="M 17.402344 13.089844 C 17.589844 13.652344 17.589844 13.652344 17.675781 14.183594 C 17.496094 14.183594 17.316406 14.183594 17.132812 14.183594 C 17.132812 14 17.132812 13.820312 17.132812 13.636719 C 16.324219 13.546875 15.515625 13.457031 14.683594 13.363281 C 14.683594 13.273438 14.683594 13.183594 14.683594 13.089844 C 16.484375 12.785156 16.484375 12.785156 17.402344 13.089844 Z M 17.402344 13.089844 "/>
<path style=" stroke:none;fill-rule:nonzero;fill:rgb(32.156863%,92.156863%,94.901961%);fill-opacity:1;" d="M 17.132812 9.273438 C 17.804688 9.40625 17.804688 9.40625 18.492188 9.546875 C 18.492188 9.816406 18.492188 10.085938 18.492188 10.363281 C 18.042969 10.273438 17.59375 10.183594 17.132812 10.089844 C 17.132812 9.820312 17.132812 9.550781 17.132812 9.273438 Z M 17.132812 9.273438 "/>
<path style=" stroke:none;fill-rule:nonzero;fill:rgb(72.941176%,74.901961%,76.862745%);fill-opacity:1;" d="M 25.832031 29.453125 C 26.28125 29.453125 26.730469 29.453125 27.191406 29.453125 C 27.191406 29.632812 27.191406 29.816406 27.191406 30 C 26.746094 30 26.296875 30 25.832031 30 C 25.832031 29.820312 25.832031 29.640625 25.832031 29.453125 Z M 25.832031 29.453125 "/>
<path style=" stroke:none;fill-rule:nonzero;fill:rgb(81.176471%,83.529412%,85.882353%);fill-opacity:1;" d="M 27.738281 29.726562 C 28.183594 29.726562 28.632812 29.726562 29.097656 29.726562 C 29.097656 29.816406 29.097656 29.90625 29.097656 30 C 28.648438 30 28.199219 30 27.738281 30 C 27.738281 29.910156 27.738281 29.820312 27.738281 29.726562 Z M 27.738281 29.726562 "/>
<path style=" stroke:none;fill-rule:nonzero;fill:rgb(85.882353%,87.058824%,88.627451%);fill-opacity:1;" d="M 3.261719 29.726562 C 4.351562 30 4.351562 30 4.351562 30 Z M 3.261719 29.726562 "/>
</g>
</svg>
