<?xml version="1.0" encoding="UTF-8"?>
<svg xmlns="http://www.w3.org/2000/svg" xmlns:xlink="http://www.w3.org/1999/xlink" width="50px" height="47px" viewBox="0 0 50 47" version="1.1">
<g id="surface1">
<path style=" stroke:none;fill-rule:nonzero;fill:rgb(79.607844%,88.235295%,62.352943%);fill-opacity:1;" d="M 24.949219 0 L 25.148438 0.0976562 L 26.03125 0.742188 L 26.71875 1.238281 L 27.601562 1.878906 L 28.585938 2.574219 L 29.46875 3.214844 L 30.15625 3.710938 L 30.648438 4.058594 L 31.53125 4.699219 L 32.515625 5.394531 L 33.398438 6.035156 L 34.234375 6.628906 L 34.921875 7.125 L 35.804688 7.765625 L 36.640625 8.359375 L 37.328125 8.855469 L 38.164062 9.449219 L 39.046875 10.09375 L 40.71875 11.28125 L 41.601562 11.921875 L 42.289062 12.417969 L 43.171875 13.0625 L 44.105469 13.703125 L 44.84375 14.25 L 45.726562 14.890625 L 46.21875 15.238281 L 46.90625 15.734375 L 47.742188 16.328125 L 48.625 16.96875 L 49.460938 17.5625 L 49.851562 17.859375 L 50 17.910156 L 49.949219 18.15625 L 49.753906 18.652344 L 49.117188 20.679688 L 48.476562 22.558594 L 47.886719 24.390625 L 47.25 26.269531 L 46.070312 29.929688 L 45.433594 31.8125 L 44.792969 33.789062 L 44.203125 35.570312 L 43.566406 37.550781 L 42.925781 39.429688 L 42.289062 41.410156 L 41.699219 43.191406 L 41.0625 45.167969 L 40.519531 46.800781 L 40.472656 47 L 9.527344 47 L 9.28125 46.160156 L 8.105469 42.597656 L 7.464844 40.617188 L 6.828125 38.738281 L 6.140625 36.609375 L 5.550781 34.828125 L 4.960938 33 L 4.371094 31.265625 L 3.683594 29.140625 L 3.09375 27.359375 L 2.457031 25.378906 L 1.816406 23.5 L 1.128906 21.371094 L 0.539062 19.589844 L 0.0976562 18.207031 L 0 18.105469 L 0 17.910156 L 0.34375 17.710938 L 1.082031 17.167969 L 2.75 15.980469 L 3.632812 15.335938 L 5.304688 14.148438 L 6.1875 13.507812 L 7.023438 12.914062 L 7.90625 12.269531 L 9.578125 11.082031 L 10.460938 10.4375 L 10.953125 10.09375 L 11.835938 9.449219 L 12.671875 8.855469 L 13.554688 8.210938 L 14.390625 7.617188 L 14.882812 7.273438 L 15.765625 6.628906 L 16.257812 6.28125 L 17.140625 5.640625 L 17.976562 5.046875 L 18.859375 4.402344 L 19.5 3.957031 L 20.382812 3.316406 L 21.21875 2.722656 L 22.101562 2.078125 L 22.9375 1.484375 L 23.625 0.988281 L 24.507812 0.347656 Z M 24.949219 0 "/>
<path style=" stroke:none;fill-rule:nonzero;fill:rgb(50.588238%,76.078433%,14.509805%);fill-opacity:1;" d="M 24.949219 0 L 25.148438 0.0976562 L 26.03125 0.742188 L 26.71875 1.238281 L 27.601562 1.878906 L 28.585938 2.574219 L 29.46875 3.214844 L 30.15625 3.710938 L 30.648438 4.058594 L 31.53125 4.699219 L 32.515625 5.394531 L 33.398438 6.035156 L 34.234375 6.628906 L 34.921875 7.125 L 35.804688 7.765625 L 36.640625 8.359375 L 37.328125 8.855469 L 38.164062 9.449219 L 39.046875 10.09375 L 40.71875 11.28125 L 41.601562 11.921875 L 42.289062 12.417969 L 43.171875 13.0625 L 44.105469 13.703125 L 44.84375 14.25 L 45.726562 14.890625 L 46.21875 15.238281 L 46.90625 15.734375 L 47.742188 16.328125 L 48.625 16.96875 L 49.460938 17.5625 L 49.851562 17.859375 L 50 17.910156 L 49.949219 18.15625 L 49.753906 18.652344 L 49.117188 20.679688 L 48.476562 22.558594 L 47.886719 24.390625 L 47.25 26.269531 L 46.070312 29.929688 L 45.433594 31.8125 L 44.792969 33.789062 L 44.203125 35.570312 L 43.566406 37.550781 L 42.925781 39.429688 L 42.289062 41.410156 L 41.699219 43.191406 L 41.0625 45.167969 L 40.519531 46.800781 L 40.472656 47 L 9.527344 47 L 9.28125 46.160156 L 8.105469 42.597656 L 7.464844 40.617188 L 6.828125 38.738281 L 6.140625 36.609375 L 5.550781 34.828125 L 4.960938 33 L 4.371094 31.265625 L 3.683594 29.140625 L 3.09375 27.359375 L 2.457031 25.378906 L 1.816406 23.5 L 1.128906 21.371094 L 0.539062 19.589844 L 0.0976562 18.207031 L 0 18.105469 L 0 17.910156 L 0.34375 17.710938 L 1.082031 17.167969 L 2.75 15.980469 L 3.632812 15.335938 L 5.304688 14.148438 L 6.1875 13.507812 L 7.023438 12.914062 L 7.90625 12.269531 L 9.578125 11.082031 L 10.460938 10.4375 L 10.953125 10.09375 L 11.835938 9.449219 L 12.671875 8.855469 L 13.554688 8.210938 L 14.390625 7.617188 L 14.882812 7.273438 L 15.765625 6.628906 L 16.257812 6.28125 L 17.140625 5.640625 L 17.976562 5.046875 L 18.859375 4.402344 L 19.5 3.957031 L 20.382812 3.316406 L 21.21875 2.722656 L 22.101562 2.078125 L 22.9375 1.484375 L 23.625 0.988281 L 24.507812 0.347656 Z M 23.871094 8.015625 L 22.839844 8.113281 L 21.5625 8.3125 L 20.285156 8.609375 L 18.515625 9.203125 L 17.238281 9.746094 L 16.160156 10.339844 L 15.175781 10.933594 L 14.34375 11.527344 L 13.652344 12.070312 L 12.917969 12.714844 L 12.476562 13.160156 L 12.378906 13.210938 L 12.378906 13.308594 L 12.230469 13.359375 L 11.886719 13.753906 L 11.246094 14.445312 L 10.609375 15.289062 L 10.019531 16.128906 L 9.480469 17.019531 L 9.039062 17.808594 L 8.496094 18.949219 L 8.007812 20.285156 L 7.613281 21.570312 L 7.417969 22.410156 L 7.171875 23.996094 L 7.074219 25.429688 L 7.074219 26.667969 L 7.171875 28.101562 L 7.417969 29.683594 L 7.761719 31.070312 L 8.203125 32.40625 L 8.742188 33.691406 L 9.234375 34.679688 L 9.726562 35.523438 L 10.214844 36.265625 L 10.707031 36.957031 L 11.347656 37.75 L 12.035156 38.492188 L 12.476562 38.984375 L 12.867188 39.332031 L 13.507812 39.925781 L 14.195312 40.46875 L 15.03125 41.0625 L 15.816406 41.558594 L 16.699219 42.050781 L 17.484375 42.449219 L 18.515625 42.894531 L 19.597656 43.289062 L 20.679688 43.585938 L 22.101562 43.882812 L 23.183594 44.03125 L 23.773438 44.082031 L 26.179688 44.082031 L 27.601562 43.933594 L 29.125 43.636719 L 30.058594 43.386719 L 31.386719 42.941406 L 32.515625 42.449219 L 33.300781 42.050781 L 34.382812 41.457031 L 35.117188 40.964844 L 35.855469 40.421875 L 36.640625 39.777344 L 37.820312 38.6875 L 38.359375 38.09375 L 38.800781 37.601562 L 39.292969 36.957031 L 39.929688 36.066406 L 40.472656 35.175781 L 40.960938 34.285156 L 41.503906 33.148438 L 42.042969 31.710938 L 42.4375 30.328125 L 42.683594 29.140625 L 42.828125 28.101562 L 42.925781 26.667969 L 42.925781 25.378906 L 42.828125 23.996094 L 42.582031 22.410156 L 42.238281 21.027344 L 41.796875 19.691406 L 41.257812 18.402344 L 40.765625 17.414062 L 40.175781 16.425781 L 39.785156 15.832031 L 39.242188 15.089844 L 38.605469 14.296875 L 38.015625 13.65625 L 37.621094 13.210938 L 37.230469 12.863281 L 36.886719 12.515625 L 36.347656 12.070312 L 35.609375 11.476562 L 34.429688 10.6875 L 33.398438 10.09375 L 32.613281 9.695312 L 31.484375 9.203125 L 29.714844 8.609375 L 28.4375 8.3125 L 26.816406 8.0625 L 26.128906 8.015625 Z M 23.871094 8.015625 "/>
<path style=" stroke:none;fill-rule:nonzero;fill:rgb(11.764706%,10.196079%,7.843138%);fill-opacity:1;" d="M 24.558594 16.078125 L 25.539062 16.078125 L 26.472656 16.179688 L 27.652344 16.425781 L 28.535156 16.722656 L 29.222656 17.019531 L 30.109375 17.515625 L 30.941406 18.105469 L 31.628906 18.699219 L 32.171875 19.246094 L 32.710938 19.9375 L 33.105469 20.480469 L 33.546875 21.273438 L 33.9375 22.113281 L 34.085938 22.511719 L 35.363281 22.609375 L 36.296875 22.808594 L 36.886719 23.003906 L 36.933594 23.105469 L 36.640625 23.152344 L 36.542969 23.5 L 36.199219 23.847656 L 35.414062 24.242188 L 34.675781 24.488281 L 34.527344 24.488281 L 34.578125 24.835938 L 34.578125 26.519531 L 34.429688 27.558594 L 34.183594 28.546875 L 33.839844 29.484375 L 33.449219 30.277344 L 33.152344 30.820312 L 32.660156 31.515625 L 32.21875 32.058594 L 31.582031 32.75 L 31.484375 32.75 L 31.484375 32.851562 L 30.941406 33.296875 L 30.253906 33.789062 L 29.46875 34.234375 L 28.632812 34.632812 L 27.601562 34.976562 L 26.375 35.226562 L 25.980469 35.273438 L 24.164062 35.273438 L 22.9375 35.078125 L 21.757812 34.730469 L 20.875 34.335938 L 20.039062 33.890625 L 19.203125 33.296875 L 18.515625 32.703125 L 17.878906 32.058594 L 17.339844 31.367188 L 16.847656 30.625 L 16.355469 29.683594 L 15.914062 28.496094 L 15.667969 27.507812 L 15.570312 27.0625 L 14.929688 26.519531 L 14.292969 26.023438 L 13.800781 25.628906 L 13.210938 25.183594 L 13.210938 25.082031 L 14.144531 24.539062 L 14.046875 24.390625 L 14.097656 24.339844 L 15.617188 24.09375 L 15.914062 22.90625 L 16.304688 21.816406 L 16.894531 20.679688 L 17.4375 19.886719 L 17.976562 19.246094 L 18.269531 18.898438 L 18.371094 18.898438 L 18.371094 18.800781 L 18.761719 18.453125 L 18.957031 18.355469 L 18.957031 18.253906 L 19.695312 17.710938 L 20.335938 17.316406 L 21.121094 16.921875 L 21.855469 16.625 L 22.839844 16.328125 L 23.96875 16.128906 Z M 24.558594 16.078125 "/>
<path style=" stroke:none;fill-rule:nonzero;fill:rgb(97.254902%,93.725491%,0.784314%);fill-opacity:1;" d="M 24.949219 0 L 25.148438 0.0976562 L 26.03125 0.742188 L 26.71875 1.238281 L 27.601562 1.878906 L 28.585938 2.574219 L 29.46875 3.214844 L 30.15625 3.710938 L 30.648438 4.058594 L 31.53125 4.699219 L 32.515625 5.394531 L 33.398438 6.035156 L 34.234375 6.628906 L 34.921875 7.125 L 35.804688 7.765625 L 36.640625 8.359375 L 37.328125 8.855469 L 38.164062 9.449219 L 39.046875 10.09375 L 40.71875 11.28125 L 41.601562 11.921875 L 42.289062 12.417969 L 43.171875 13.0625 L 44.105469 13.703125 L 44.84375 14.25 L 45.726562 14.890625 L 46.21875 15.238281 L 46.90625 15.734375 L 47.742188 16.328125 L 48.625 16.96875 L 49.460938 17.5625 L 49.851562 17.859375 L 50 17.910156 L 49.949219 18.15625 L 49.753906 18.652344 L 49.117188 20.679688 L 48.476562 22.558594 L 47.886719 24.390625 L 47.25 26.269531 L 46.070312 29.929688 L 45.433594 31.8125 L 44.792969 33.789062 L 44.203125 35.570312 L 43.566406 37.550781 L 42.925781 39.429688 L 42.289062 41.410156 L 41.699219 43.191406 L 41.0625 45.167969 L 40.519531 46.800781 L 40.472656 47 L 9.527344 47 L 9.28125 46.160156 L 8.105469 42.597656 L 7.464844 40.617188 L 6.828125 38.738281 L 6.140625 36.609375 L 5.550781 34.828125 L 4.960938 33 L 4.371094 31.265625 L 3.683594 29.140625 L 3.09375 27.359375 L 2.457031 25.378906 L 1.816406 23.5 L 1.128906 21.371094 L 0.539062 19.589844 L 0.0976562 18.207031 L 0 18.105469 L 0 17.910156 L 0.34375 17.710938 L 1.082031 17.167969 L 2.75 15.980469 L 3.632812 15.335938 L 5.304688 14.148438 L 6.1875 13.507812 L 7.023438 12.914062 L 7.90625 12.269531 L 9.578125 11.082031 L 10.460938 10.4375 L 10.953125 10.09375 L 11.835938 9.449219 L 12.671875 8.855469 L 13.554688 8.210938 L 14.390625 7.617188 L 14.882812 7.273438 L 15.765625 6.628906 L 16.257812 6.28125 L 17.140625 5.640625 L 17.976562 5.046875 L 18.859375 4.402344 L 19.5 3.957031 L 20.382812 3.316406 L 21.21875 2.722656 L 22.101562 2.078125 L 22.9375 1.484375 L 23.625 0.988281 L 24.507812 0.347656 Z M 24.949219 1.238281 L 24.066406 1.878906 L 23.378906 2.375 L 22.542969 2.96875 L 21.660156 3.613281 L 20.824219 4.207031 L 19.941406 4.847656 L 19.105469 5.441406 L 18.222656 6.085938 L 16.550781 7.273438 L 15.667969 7.914062 L 14.832031 8.507812 L 13.949219 9.152344 L 12.277344 10.339844 L 11.394531 10.984375 L 9.726562 12.171875 L 8.839844 12.8125 L 8.007812 13.40625 L 7.121094 14.050781 L 5.453125 15.238281 L 4.566406 15.882812 L 3.878906 16.375 L 2.996094 17.019531 L 2.0625 17.660156 L 1.324219 18.207031 L 1.375 18.550781 L 2.160156 20.976562 L 3.78125 25.875 L 4.46875 28.003906 L 6.140625 33.046875 L 6.777344 35.027344 L 8.644531 40.667969 L 9.332031 42.792969 L 10.3125 45.761719 L 10.363281 45.8125 L 39.636719 45.8125 L 39.832031 45.316406 L 41.0625 41.605469 L 41.75 39.480469 L 43.269531 34.878906 L 43.910156 32.898438 L 45.921875 26.816406 L 46.511719 24.984375 L 48.675781 18.453125 L 48.675781 18.207031 L 47.789062 17.5625 L 46.953125 16.96875 L 46.070312 16.328125 L 45.089844 15.632812 L 44.203125 14.992188 L 43.371094 14.398438 L 42.484375 13.753906 L 41.648438 13.160156 L 40.960938 12.664062 L 40.078125 12.023438 L 39.144531 11.378906 L 38.359375 10.785156 L 37.425781 10.140625 L 36.691406 9.597656 L 35.855469 9.003906 L 34.96875 8.359375 L 34.136719 7.765625 L 33.25 7.125 L 32.417969 6.53125 L 31.53125 5.886719 L 30.597656 5.246094 L 29.8125 4.652344 L 28.878906 4.007812 L 28.09375 3.414062 L 27.160156 2.769531 L 26.226562 2.078125 L 25.292969 1.433594 L 25.050781 1.238281 Z M 24.949219 1.238281 "/>
<path style=" stroke:none;fill-rule:nonzero;fill:rgb(97.647059%,96.862745%,44.705883%);fill-opacity:1;" d="M 15.375 30.921875 L 15.570312 30.96875 L 16.503906 31.910156 L 17.042969 32.355469 L 17.484375 32.75 L 18.46875 33.492188 L 19.546875 34.1875 L 20.777344 34.828125 L 21.808594 35.226562 L 22.839844 35.523438 L 23.675781 35.671875 L 24.164062 35.71875 L 25.636719 35.71875 L 26.769531 35.570312 L 27.898438 35.273438 L 29.125 34.78125 L 29.910156 34.382812 L 30.992188 33.742188 L 31.679688 33.246094 L 32.121094 32.898438 L 32.90625 32.257812 L 33.546875 31.664062 L 34.332031 30.921875 L 34.675781 30.96875 L 35.65625 31.367188 L 36.445312 31.761719 L 37.378906 32.257812 L 37.671875 32.453125 L 37.574219 32.652344 L 37.132812 33.195312 L 36.347656 34.039062 L 35.265625 35.125 L 34.726562 35.570312 L 34.039062 36.164062 L 33.152344 36.808594 L 32.21875 37.402344 L 31.140625 37.996094 L 30.15625 38.441406 L 28.683594 38.9375 L 27.652344 39.183594 L 26.621094 39.332031 L 25.882812 39.382812 L 24.753906 39.382812 L 23.722656 39.28125 L 22.839844 39.132812 L 21.609375 38.835938 L 20.335938 38.390625 L 19.105469 37.847656 L 18.027344 37.253906 L 16.992188 36.609375 L 16.109375 35.96875 L 15.226562 35.273438 L 14.488281 34.632812 L 13.898438 34.085938 L 13.359375 33.542969 L 13.113281 33.34375 L 12.769531 32.949219 L 12.425781 32.601562 L 12.671875 32.355469 L 13.308594 31.960938 L 14.144531 31.515625 L 15.273438 30.96875 Z M 15.375 30.921875 "/>
<path style=" stroke:none;fill-rule:nonzero;fill:rgb(12.156863%,11.372549%,7.843138%);fill-opacity:1;" d="M 24.949219 0 L 25.148438 0.0976562 L 26.03125 0.742188 L 26.71875 1.238281 L 27.601562 1.878906 L 28.585938 2.574219 L 29.46875 3.214844 L 30.15625 3.710938 L 30.648438 4.058594 L 31.53125 4.699219 L 32.515625 5.394531 L 33.398438 6.035156 L 34.234375 6.628906 L 34.921875 7.125 L 35.804688 7.765625 L 36.640625 8.359375 L 37.328125 8.855469 L 38.164062 9.449219 L 39.046875 10.09375 L 40.71875 11.28125 L 41.601562 11.921875 L 42.289062 12.417969 L 43.171875 13.0625 L 44.105469 13.703125 L 44.84375 14.25 L 45.726562 14.890625 L 46.21875 15.238281 L 46.90625 15.734375 L 47.742188 16.328125 L 48.625 16.96875 L 49.460938 17.5625 L 49.851562 17.859375 L 50 17.910156 L 49.949219 18.15625 L 49.753906 18.652344 L 49.117188 20.679688 L 48.476562 22.558594 L 47.886719 24.390625 L 47.25 26.269531 L 46.070312 29.929688 L 45.433594 31.8125 L 44.792969 33.789062 L 44.203125 35.570312 L 43.566406 37.550781 L 42.925781 39.429688 L 42.289062 41.410156 L 41.699219 43.191406 L 41.0625 45.167969 L 40.519531 46.800781 L 40.472656 47 L 9.527344 47 L 9.28125 46.160156 L 8.105469 42.597656 L 7.464844 40.617188 L 6.828125 38.738281 L 6.140625 36.609375 L 5.550781 34.828125 L 4.960938 33 L 4.371094 31.265625 L 3.683594 29.140625 L 3.09375 27.359375 L 2.457031 25.378906 L 1.816406 23.5 L 1.128906 21.371094 L 0.539062 19.589844 L 0.0976562 18.207031 L 0 18.105469 L 0 17.910156 L 0.34375 17.710938 L 1.082031 17.167969 L 2.75 15.980469 L 3.632812 15.335938 L 5.304688 14.148438 L 6.1875 13.507812 L 7.023438 12.914062 L 7.90625 12.269531 L 9.578125 11.082031 L 10.460938 10.4375 L 10.953125 10.09375 L 11.835938 9.449219 L 12.671875 8.855469 L 13.554688 8.210938 L 14.390625 7.617188 L 14.882812 7.273438 L 15.765625 6.628906 L 16.257812 6.28125 L 17.140625 5.640625 L 17.976562 5.046875 L 18.859375 4.402344 L 19.5 3.957031 L 20.382812 3.316406 L 21.21875 2.722656 L 22.101562 2.078125 L 22.9375 1.484375 L 23.625 0.988281 L 24.507812 0.347656 Z M 24.949219 0.644531 L 23.183594 1.929688 L 22.199219 2.621094 L 21.316406 3.265625 L 19.644531 4.453125 L 18.761719 5.097656 L 17.925781 5.691406 L 17.042969 6.332031 L 16.207031 6.925781 L 15.324219 7.570312 L 13.652344 8.757812 L 12.769531 9.398438 L 11.933594 9.992188 L 11.050781 10.636719 L 10.214844 11.230469 L 9.527344 11.726562 L 8.695312 12.320312 L 7.808594 12.960938 L 6.972656 13.554688 L 6.089844 14.199219 L 4.421875 15.386719 L 3.535156 16.03125 L 2.703125 16.625 L 1.816406 17.265625 L 0.980469 17.859375 L 0.636719 18.105469 L 0.6875 18.453125 L 1.425781 20.679688 L 2.015625 22.511719 L 4.320312 29.484375 L 5.011719 31.613281 L 6.679688 36.660156 L 7.316406 38.640625 L 9.183594 44.277344 L 9.824219 46.257812 L 9.921875 46.457031 L 40.078125 46.457031 L 40.273438 45.960938 L 40.863281 44.128906 L 42.582031 38.9375 L 43.171875 37.105469 L 43.8125 35.226562 L 44.5 33.097656 L 45.480469 30.128906 L 46.167969 28.003906 L 48.132812 22.066406 L 48.820312 19.9375 L 49.363281 18.304688 L 49.3125 18.058594 L 47.640625 16.871094 L 46.757812 16.226562 L 45.921875 15.632812 L 45.039062 14.992188 L 43.371094 13.804688 L 42.484375 13.160156 L 41.648438 12.566406 L 40.765625 11.921875 L 39.097656 10.734375 L 38.210938 10.09375 L 37.378906 9.5 L 36.492188 8.855469 L 35.511719 8.164062 L 34.625 7.519531 L 33.792969 6.925781 L 32.90625 6.28125 L 32.074219 5.691406 L 31.1875 5.046875 L 29.519531 3.859375 L 28.632812 3.214844 L 26.964844 2.027344 L 26.082031 1.386719 L 25.246094 0.792969 L 25.050781 0.644531 Z M 24.949219 0.644531 "/>
<path style=" stroke:none;fill-rule:nonzero;fill:rgb(11.372549%,9.803922%,7.843138%);fill-opacity:1;" d="M 37.769531 26.519531 L 37.917969 26.667969 L 38.652344 28.25 L 39.195312 29.4375 L 39.195312 29.535156 L 41.257812 28.597656 L 41.699219 28.398438 L 41.796875 28.449219 L 41.40625 29.980469 L 41.0625 31.117188 L 40.519531 32.453125 L 39.980469 33.492188 L 39.585938 34.085938 L 39.046875 34.78125 L 38.554688 35.324219 L 38.261719 35.570312 L 38.851562 35.621094 L 38.652344 35.71875 L 37.671875 35.917969 L 37.132812 35.867188 L 36.296875 35.523438 L 35.65625 35.125 L 34.625 36.015625 L 33.9375 36.5625 L 33.105469 37.15625 L 32.5625 37.5 L 31.433594 38.144531 L 30.597656 38.539062 L 29.617188 38.9375 L 28.4375 39.28125 L 27.210938 39.53125 L 26.277344 39.628906 L 24.460938 39.628906 L 23.183594 39.480469 L 21.855469 39.183594 L 20.234375 38.640625 L 19.007812 38.09375 L 17.925781 37.5 L 17.042969 36.957031 L 16.0625 36.265625 L 15.175781 35.570312 L 14.6875 35.175781 L 14.488281 35.226562 L 13.652344 35.71875 L 13.015625 35.96875 L 12.769531 36.015625 L 12.230469 36.015625 L 11.589844 35.421875 L 11.003906 34.828125 L 10.511719 34.1875 L 9.96875 33.296875 L 9.578125 32.503906 L 9.183594 31.5625 L 8.792969 30.375 L 8.351562 28.695312 L 8.398438 28.496094 L 9.136719 28.84375 L 10.804688 29.585938 L 10.902344 29.585938 L 11.542969 28.25 L 12.179688 26.863281 L 12.277344 26.617188 L 12.328125 26.617188 L 12.523438 28.101562 L 12.820312 29.339844 L 13.164062 30.277344 L 13.703125 31.367188 L 13.949219 31.316406 L 15.175781 30.722656 L 15.519531 30.574219 L 16.304688 31.367188 L 16.699219 31.710938 L 17.289062 32.257812 L 17.976562 32.800781 L 18.714844 33.34375 L 19.253906 33.691406 L 20.285156 34.285156 L 21.21875 34.730469 L 22.542969 35.175781 L 23.527344 35.375 L 24.460938 35.472656 L 25.394531 35.472656 L 26.621094 35.324219 L 27.601562 35.078125 L 28.585938 34.730469 L 29.8125 34.136719 L 30.5 33.742188 L 31.238281 33.246094 L 32.023438 32.652344 L 32.5625 32.207031 L 33.152344 31.664062 L 33.546875 31.316406 L 34.28125 30.574219 L 35.167969 30.871094 L 36.347656 31.367188 L 36.933594 30.226562 L 37.328125 29.140625 L 37.574219 28.101562 L 37.671875 27.507812 Z M 15.375 30.921875 L 14.292969 31.464844 L 13.457031 31.859375 L 12.671875 32.355469 L 12.425781 32.601562 L 13.066406 33.246094 L 13.261719 33.492188 L 13.652344 33.839844 L 14.292969 34.484375 L 14.832031 34.929688 L 15.324219 35.375 L 16.109375 35.96875 L 16.992188 36.609375 L 17.878906 37.15625 L 18.664062 37.601562 L 19.449219 37.996094 L 20.335938 38.390625 L 21.953125 38.9375 L 23.328125 39.234375 L 24.066406 39.332031 L 24.753906 39.382812 L 25.882812 39.382812 L 27.015625 39.28125 L 28.144531 39.085938 L 29.320312 38.738281 L 30.402344 38.34375 L 31.628906 37.75 L 32.464844 37.253906 L 33.351562 36.660156 L 34.136719 36.066406 L 34.773438 35.523438 L 35.3125 35.078125 L 36.789062 33.59375 L 37.132812 33.195312 L 37.671875 32.554688 L 37.621094 32.40625 L 36.542969 31.8125 L 35.757812 31.414062 L 35.070312 31.117188 L 34.527344 30.921875 L 34.28125 30.96875 L 33.890625 31.367188 L 33.496094 31.710938 L 33.152344 32.058594 L 32.613281 32.503906 L 31.972656 33.046875 L 31.042969 33.691406 L 30.253906 34.1875 L 29.566406 34.582031 L 28.4375 35.078125 L 27.554688 35.375 L 26.769531 35.570312 L 25.636719 35.71875 L 24.164062 35.71875 L 23.085938 35.570312 L 21.953125 35.273438 L 21.023438 34.929688 L 19.890625 34.382812 L 18.910156 33.789062 L 18.074219 33.195312 L 17.386719 32.652344 L 16.699219 32.058594 L 16.109375 31.515625 L 15.519531 30.921875 Z M 15.375 30.921875 "/>
<path style=" stroke:none;fill-rule:nonzero;fill:rgb(11.372549%,9.803922%,7.843138%);fill-opacity:1;" d="M 24.949219 1.238281 L 25.195312 1.335938 L 25.980469 1.929688 L 26.769531 2.472656 L 27.652344 3.117188 L 28.488281 3.710938 L 29.371094 4.355469 L 30.207031 4.949219 L 31.089844 5.589844 L 32.074219 6.28125 L 32.957031 6.925781 L 33.792969 7.519531 L 34.675781 8.164062 L 36.347656 9.351562 L 37.230469 9.992188 L 38.066406 10.585938 L 38.949219 11.230469 L 40.617188 12.417969 L 41.503906 13.0625 L 42.339844 13.65625 L 43.222656 14.296875 L 44.890625 15.484375 L 45.777344 16.128906 L 46.609375 16.722656 L 47.496094 17.367188 L 48.476562 18.058594 L 48.675781 18.207031 L 48.625 18.550781 L 47.839844 20.976562 L 46.90625 23.796875 L 46.265625 25.777344 L 44.402344 31.414062 L 43.8125 33.246094 L 41.503906 40.222656 L 40.816406 42.347656 L 39.6875 45.761719 L 39.636719 45.8125 L 10.363281 45.8125 L 10.167969 45.316406 L 9.578125 43.535156 L 8.988281 41.707031 L 6.875 35.324219 L 6.238281 33.34375 L 4.765625 28.894531 L 4.175781 27.0625 L 1.324219 18.453125 L 1.324219 18.207031 L 2.210938 17.5625 L 3.191406 16.871094 L 4.078125 16.226562 L 4.910156 15.632812 L 5.796875 14.992188 L 6.628906 14.398438 L 7.515625 13.753906 L 8.351562 13.160156 L 9.726562 12.171875 L 10.558594 11.578125 L 11.445312 10.933594 L 13.113281 9.746094 L 13.996094 9.101562 L 14.832031 8.507812 L 15.71875 7.867188 L 17.386719 6.679688 L 18.269531 6.035156 L 19.105469 5.441406 L 19.988281 4.800781 L 20.824219 4.207031 L 21.710938 3.5625 L 23.378906 2.375 L 24.261719 1.730469 Z M 24.949219 1.582031 L 24.261719 2.078125 L 23.378906 2.722656 L 22.398438 3.414062 L 21.511719 4.058594 L 20.679688 4.652344 L 19.988281 5.144531 L 19.105469 5.789062 L 17.4375 6.976562 L 16.550781 7.617188 L 15.71875 8.210938 L 14.832031 8.855469 L 13.164062 10.042969 L 12.277344 10.6875 L 11.445312 11.28125 L 10.558594 11.921875 L 8.890625 13.109375 L 8.007812 13.753906 L 7.171875 14.347656 L 6.285156 14.992188 L 4.617188 16.179688 L 3.734375 16.820312 L 2.898438 17.414062 L 2.015625 18.058594 L 1.621094 18.355469 L 1.769531 18.847656 L 2.457031 20.976562 L 3.585938 24.390625 L 4.222656 26.371094 L 5.992188 31.710938 L 6.582031 33.542969 L 8.742188 40.074219 L 9.382812 42.050781 L 10.511719 45.464844 L 10.558594 45.515625 L 39.441406 45.515625 L 39.636719 45.019531 L 40.667969 41.902344 L 41.257812 40.074219 L 43.027344 34.730469 L 43.613281 32.898438 L 44.253906 31.019531 L 44.941406 28.894531 L 45.578125 26.914062 L 46.21875 25.035156 L 46.90625 22.90625 L 48.378906 18.453125 L 48.28125 18.253906 L 47.445312 17.660156 L 46.5625 17.019531 L 45.726562 16.425781 L 44.84375 15.78125 L 43.171875 14.59375 L 42.289062 13.953125 L 41.304688 13.257812 L 40.421875 12.617188 L 39.734375 12.121094 L 38.898438 11.527344 L 38.015625 10.882812 L 37.179688 10.289062 L 36.296875 9.648438 L 34.625 8.460938 L 33.742188 7.816406 L 32.90625 7.222656 L 31.53125 6.234375 L 30.699219 5.640625 L 29.8125 4.996094 L 28.976562 4.402344 L 28.09375 3.761719 L 26.425781 2.574219 L 25.539062 1.929688 L 25.050781 1.582031 Z M 24.949219 1.582031 "/>
<path style=" stroke:none;fill-rule:nonzero;fill:rgb(11.372549%,9.803922%,7.843138%);fill-opacity:1;" d="M 24.214844 7.71875 L 25.785156 7.71875 L 27.113281 7.816406 L 28.339844 8.015625 L 29.664062 8.3125 L 30.941406 8.707031 L 32.21875 9.203125 L 33.644531 9.894531 L 34.726562 10.539062 L 35.511719 11.082031 L 36.101562 11.527344 L 36.640625 11.972656 L 37.328125 12.566406 L 38.605469 13.851562 L 39.046875 14.398438 L 39.636719 15.140625 L 40.175781 15.929688 L 40.765625 16.871094 L 41.304688 17.859375 L 41.796875 18.949219 L 42.238281 20.136719 L 42.484375 20.925781 L 42.78125 22.015625 L 43.027344 23.402344 L 43.125 24.144531 L 43.222656 25.777344 L 43.171875 27.308594 L 43.074219 28.398438 L 42.828125 29.832031 L 42.484375 31.21875 L 42.09375 32.40625 L 41.601562 33.59375 L 41.207031 34.382812 L 40.71875 35.324219 L 40.03125 36.414062 L 39.390625 37.253906 L 38.996094 37.75 L 38.410156 38.441406 L 38.015625 38.835938 L 37.820312 39.085938 L 37.425781 39.429688 L 37.082031 39.777344 L 36.542969 40.222656 L 35.804688 40.816406 L 35.019531 41.359375 L 34.136719 41.902344 L 33.351562 42.347656 L 32.121094 42.941406 L 30.992188 43.386719 L 29.519531 43.832031 L 28.4375 44.082031 L 27.0625 44.277344 L 26.03125 44.378906 L 23.96875 44.378906 L 22.445312 44.230469 L 21.121094 43.980469 L 19.941406 43.683594 L 18.613281 43.238281 L 17.582031 42.792969 L 16.355469 42.199219 L 15.273438 41.558594 L 14.488281 41.015625 L 13.898438 40.570312 L 13.410156 40.171875 L 12.722656 39.578125 L 11.394531 38.242188 L 10.953125 37.699219 L 10.363281 36.957031 L 9.675781 35.96875 L 8.988281 34.78125 L 8.59375 34.039062 L 8.054688 32.800781 L 7.5625 31.367188 L 7.21875 30.03125 L 7.023438 29.042969 L 6.875 27.953125 L 6.777344 26.320312 L 6.828125 24.835938 L 6.925781 23.746094 L 7.171875 22.261719 L 7.464844 21.074219 L 7.710938 20.285156 L 8.105469 19.195312 L 8.59375 18.058594 L 9.183594 16.96875 L 9.625 16.226562 L 10.019531 15.632812 L 10.609375 14.84375 L 11.003906 14.347656 L 11.589844 13.65625 L 12.867188 12.367188 L 13.410156 11.921875 L 14.144531 11.328125 L 14.980469 10.734375 L 15.863281 10.191406 L 16.75 9.695312 L 17.878906 9.152344 L 19.203125 8.65625 L 20.335938 8.3125 L 21.660156 8.015625 L 22.886719 7.816406 Z M 23.871094 8.015625 L 22.839844 8.113281 L 21.5625 8.3125 L 20.285156 8.609375 L 18.515625 9.203125 L 17.238281 9.746094 L 16.160156 10.339844 L 15.175781 10.933594 L 14.34375 11.527344 L 13.652344 12.070312 L 12.917969 12.714844 L 12.476562 13.160156 L 12.378906 13.210938 L 12.378906 13.308594 L 12.230469 13.359375 L 11.886719 13.753906 L 11.246094 14.445312 L 10.609375 15.289062 L 10.019531 16.128906 L 9.480469 17.019531 L 9.039062 17.808594 L 8.496094 18.949219 L 8.007812 20.285156 L 7.613281 21.570312 L 7.417969 22.410156 L 7.171875 23.996094 L 7.074219 25.429688 L 7.074219 26.667969 L 7.171875 28.101562 L 7.417969 29.683594 L 7.761719 31.070312 L 8.203125 32.40625 L 8.742188 33.691406 L 9.234375 34.679688 L 9.726562 35.523438 L 10.214844 36.265625 L 10.707031 36.957031 L 11.347656 37.75 L 12.035156 38.492188 L 12.476562 38.984375 L 12.867188 39.332031 L 13.507812 39.925781 L 14.195312 40.46875 L 15.03125 41.0625 L 15.816406 41.558594 L 16.699219 42.050781 L 17.484375 42.449219 L 18.515625 42.894531 L 19.597656 43.289062 L 20.679688 43.585938 L 22.101562 43.882812 L 23.183594 44.03125 L 23.773438 44.082031 L 26.179688 44.082031 L 27.601562 43.933594 L 29.125 43.636719 L 30.058594 43.386719 L 31.386719 42.941406 L 32.515625 42.449219 L 33.300781 42.050781 L 34.382812 41.457031 L 35.117188 40.964844 L 35.855469 40.421875 L 36.640625 39.777344 L 37.820312 38.6875 L 38.359375 38.09375 L 38.800781 37.601562 L 39.292969 36.957031 L 39.929688 36.066406 L 40.472656 35.175781 L 40.960938 34.285156 L 41.503906 33.148438 L 42.042969 31.710938 L 42.4375 30.328125 L 42.683594 29.140625 L 42.828125 28.101562 L 42.925781 26.667969 L 42.925781 25.378906 L 42.828125 23.996094 L 42.582031 22.410156 L 42.238281 21.027344 L 41.796875 19.691406 L 41.257812 18.402344 L 40.765625 17.414062 L 40.175781 16.425781 L 39.785156 15.832031 L 39.242188 15.089844 L 38.605469 14.296875 L 38.015625 13.65625 L 37.621094 13.210938 L 37.230469 12.863281 L 36.886719 12.515625 L 36.347656 12.070312 L 35.609375 11.476562 L 34.429688 10.6875 L 33.398438 10.09375 L 32.613281 9.695312 L 31.484375 9.203125 L 29.714844 8.609375 L 28.4375 8.3125 L 26.816406 8.0625 L 26.128906 8.015625 Z M 23.871094 8.015625 "/>
<path style=" stroke:none;fill-rule:nonzero;fill:rgb(98.039216%,96.862745%,44.705883%);fill-opacity:1;" d="M 12.132812 27.65625 L 12.179688 27.65625 L 12.425781 28.894531 L 12.722656 29.882812 L 13.164062 30.921875 L 13.507812 31.5625 L 12.574219 32.15625 L 12.082031 32.554688 L 12.082031 32.75 L 11.933594 33.195312 L 11.984375 33.640625 L 12.277344 34.1875 L 12.574219 34.53125 L 12.574219 34.632812 L 12.722656 34.679688 L 12.722656 34.78125 L 12.820312 34.78125 L 13.164062 35.175781 L 13.359375 35.523438 L 12.917969 35.71875 L 12.277344 35.71875 L 11.542969 35.027344 L 11.050781 34.484375 L 10.460938 33.640625 L 9.921875 32.652344 L 9.527344 31.710938 L 9.183594 30.722656 L 8.839844 29.585938 L 8.742188 28.992188 L 9.039062 29.089844 L 10.460938 29.734375 L 11.003906 29.980469 L 11.394531 29.191406 L 12.082031 27.707031 Z M 12.132812 27.65625 "/>
<path style=" stroke:none;fill-rule:nonzero;fill:rgb(97.647059%,96.862745%,44.705883%);fill-opacity:1;" d="M 37.964844 27.507812 L 38.113281 27.707031 L 38.851562 29.339844 L 39.046875 29.734375 L 39.046875 29.882812 L 41.257812 28.894531 L 41.40625 28.941406 L 41.109375 30.03125 L 40.765625 31.117188 L 40.273438 32.355469 L 39.734375 33.394531 L 39.195312 34.1875 L 38.605469 34.878906 L 38.066406 35.421875 L 37.867188 35.570312 L 37.132812 35.570312 L 36.886719 35.472656 L 36.984375 35.226562 L 37.523438 34.632812 L 38.015625 34.039062 L 38.261719 33.492188 L 38.261719 32.851562 L 38.015625 32.40625 L 37.769531 32.257812 L 36.835938 31.710938 L 36.589844 31.5625 L 36.691406 31.316406 L 37.277344 30.078125 L 37.671875 28.894531 Z M 37.964844 27.507812 "/>
<path style=" stroke:none;fill-rule:nonzero;fill:rgb(96.862745%,96.470588%,44.705883%);fill-opacity:1;" d="M 29.222656 21.667969 L 30.355469 21.667969 L 30.550781 21.867188 L 30.597656 22.558594 L 30.84375 22.660156 L 30.941406 22.808594 L 30.941406 23.003906 L 29.46875 23.449219 L 28.78125 23.699219 L 28.683594 23.699219 L 28.683594 23.550781 L 28.585938 23.597656 L 28.535156 23.796875 L 28.390625 23.847656 L 28.191406 23.550781 L 28.09375 23.5 L 28.191406 23.746094 L 28.191406 23.945312 L 26.914062 24.539062 L 26.671875 24.6875 L 26.425781 24.636719 L 25.882812 24.292969 L 23.085938 23.847656 L 21.710938 23.847656 L 20.921875 24.042969 L 20.480469 24.292969 L 20.285156 24.390625 L 20.285156 24.242188 L 20.777344 23.796875 L 20.824219 23.699219 L 20.921875 23.699219 L 21.023438 23.5 L 21.511719 23.300781 L 21.660156 22.855469 L 22.054688 22.410156 L 22.296875 22.261719 L 22.398438 22.066406 L 22.886719 22.164062 L 23.96875 21.917969 L 24.707031 21.917969 L 24.707031 22.214844 L 24.65625 22.3125 L 24.65625 22.660156 L 25.292969 23.003906 L 25.34375 23.152344 L 25.589844 23.253906 L 25.785156 23.351562 L 25.933594 23.300781 L 25.980469 23.105469 L 26.082031 22.90625 L 26.570312 22.957031 L 26.964844 23.105469 L 27.308594 23.152344 L 28.289062 23.054688 L 28.488281 22.757812 L 28.683594 21.816406 L 29.125 21.71875 Z M 29.222656 21.667969 "/>
<path style=" stroke:none;fill-rule:nonzero;fill:rgb(98.039216%,98.431373%,97.254902%);fill-opacity:1;" d="M 14.390625 24.6875 L 14.636719 24.785156 L 15.472656 25.378906 L 16.601562 26.171875 L 18.171875 27.261719 L 19.007812 27.855469 L 19.253906 27.953125 L 20.628906 27.507812 L 21.757812 27.210938 L 22.101562 27.160156 L 23.429688 27.160156 L 24.066406 27.308594 L 24.558594 27.507812 L 25.050781 27.804688 L 25.589844 28.050781 L 25.441406 28.199219 L 24.949219 28.496094 L 24.410156 28.25 L 23.96875 28.152344 L 23.527344 28.101562 L 23.035156 28.101562 L 21.757812 28.25 L 19.84375 28.695312 L 18.910156 28.894531 L 18.371094 28.941406 L 17.582031 28.300781 L 16.207031 27.210938 L 15.421875 26.566406 L 14.980469 26.222656 L 14.292969 25.675781 L 13.703125 25.230469 L 13.753906 25.082031 Z M 14.390625 24.6875 "/>
<path style=" stroke:none;fill-rule:nonzero;fill:rgb(96.470588%,96.470588%,44.705883%);fill-opacity:1;" d="M 20.1875 18.847656 L 20.285156 18.847656 L 20.335938 18.949219 L 20.578125 18.898438 L 20.777344 18.847656 L 20.824219 18.898438 L 20.824219 19.394531 L 21.023438 19.640625 L 20.972656 20.085938 L 20.972656 20.730469 L 20.921875 20.976562 L 20.679688 20.925781 L 20.234375 20.777344 L 19.546875 20.730469 L 19.007812 20.679688 L 18.859375 20.628906 L 18.910156 20.730469 L 18.664062 20.777344 L 20.039062 21.074219 L 20.285156 21.519531 L 20.679688 22.113281 L 21.023438 22.164062 L 20.972656 22.511719 L 20.726562 22.707031 L 20.335938 22.808594 L 19.597656 22.808594 L 19.402344 22.609375 L 19.351562 22.363281 L 19.203125 22.3125 L 18.714844 22.3125 L 18.320312 22.511719 L 18.125 22.757812 L 18.074219 23.550781 L 17.09375 23.648438 L 17.140625 23.894531 L 16.453125 23.996094 L 16.453125 23.648438 L 16.304688 23.402344 L 16.257812 22.808594 L 16.453125 22.707031 L 16.503906 22.410156 L 16.75 21.867188 L 16.945312 21.816406 L 17.09375 22.015625 L 17.339844 21.964844 L 17.683594 21.816406 L 17.878906 21.816406 L 17.730469 21.472656 L 17.976562 21.222656 L 18.222656 21.027344 L 18.371094 20.730469 L 18.46875 20.480469 L 18.320312 20.285156 L 18.320312 20.183594 L 18.125 20.085938 L 18.074219 19.988281 L 18.269531 19.542969 L 18.515625 19.195312 L 18.8125 19.246094 L 19.007812 19.292969 L 19.253906 19.292969 L 19.402344 19.394531 L 19.402344 19.542969 L 19.988281 19.542969 L 19.890625 19.394531 L 20.089844 19.492188 L 20.234375 19.542969 Z M 20.1875 18.847656 "/>
<path style=" stroke:none;fill-rule:nonzero;fill:rgb(94.901961%,96.862745%,91.37255%);fill-opacity:1;" d="M 17.484375 24.09375 L 18.761719 24.09375 L 19.449219 24.242188 L 19.941406 24.441406 L 20.234375 24.636719 L 20.136719 24.6875 L 19.203125 24.488281 L 18.320312 24.390625 L 17.339844 24.390625 L 16.601562 24.488281 L 15.914062 24.6875 L 15.914062 24.886719 L 16.355469 24.785156 L 16.992188 24.636719 L 18.714844 24.636719 L 19.351562 24.738281 L 19.351562 24.785156 L 17.878906 24.785156 L 17.09375 24.886719 L 16.503906 25.082031 L 16.40625 25.082031 L 16.550781 25.28125 L 17.238281 25.082031 L 17.976562 24.984375 L 18.859375 24.984375 L 19.695312 25.082031 L 19.695312 25.132812 L 18.320312 25.183594 L 17.484375 25.332031 L 17.042969 25.480469 L 17.042969 25.675781 L 17.828125 25.480469 L 18.46875 25.378906 L 19.449219 25.378906 L 20.1875 25.480469 L 20.1875 25.527344 L 18.859375 25.578125 L 18.222656 25.675781 L 17.582031 25.875 L 17.582031 26.121094 L 18.320312 25.875 L 19.007812 25.777344 L 20.039062 25.777344 L 20.875 25.875 L 20.875 25.925781 L 19.300781 25.972656 L 18.371094 26.171875 L 18.125 26.269531 L 18.171875 26.46875 L 18.714844 26.320312 L 19.105469 26.222656 L 19.546875 26.171875 L 20.679688 26.171875 L 21.070312 26.222656 L 21.070312 26.269531 L 19.941406 26.371094 L 18.910156 26.617188 L 18.8125 26.714844 L 18.910156 26.863281 L 19.546875 26.667969 L 20.1875 26.566406 L 21.414062 26.566406 L 22.640625 26.765625 L 22.886719 26.816406 L 22.886719 26.863281 L 21.90625 26.964844 L 20.679688 27.261719 L 19.644531 27.605469 L 19.203125 27.707031 L 18.222656 27.011719 L 17.4375 26.46875 L 15.324219 24.984375 L 14.734375 24.589844 L 14.929688 24.488281 L 16.648438 24.191406 Z M 17.484375 24.09375 "/>
<path style=" stroke:none;fill-rule:nonzero;fill:rgb(0%,56.862748%,85.09804%);fill-opacity:1;" d="M 30.894531 28.300781 L 31.386719 28.449219 L 31.730469 28.597656 L 31.679688 29.78125 L 31.53125 30.871094 L 31.285156 32.007812 L 31.238281 32.15625 L 30.894531 32.15625 L 30.699219 30.773438 L 30.402344 29.4375 L 30.207031 29.632812 L 30.355469 30.226562 L 30.550781 31.265625 L 30.648438 31.960938 L 30.648438 32.257812 L 30.011719 32.503906 L 29.8125 32.554688 L 29.421875 32.007812 L 29.027344 31.414062 L 28.585938 30.773438 L 28.585938 30.625 L 29.320312 30.574219 L 29.46875 30.128906 L 29.519531 29.683594 L 29.320312 29.140625 L 29.125 29.042969 L 29.519531 28.792969 L 29.8125 28.644531 L 29.960938 28.644531 L 29.960938 28.792969 L 30.550781 28.597656 L 30.648438 28.597656 L 30.648438 28.496094 Z M 30.894531 28.300781 "/>
<path style=" stroke:none;fill-rule:nonzero;fill:rgb(0%,57.254905%,85.490197%);fill-opacity:1;" d="M 21.070312 18.058594 L 21.316406 18.105469 L 22.25 18.652344 L 23.429688 19.441406 L 24.117188 19.9375 L 24.066406 20.136719 L 23.675781 20.480469 L 22.839844 21.125 L 22.347656 21.421875 L 22.003906 20.925781 L 20.824219 19.144531 L 20.777344 18.898438 L 20.53125 18.75 L 20.578125 18.550781 L 21.023438 18.15625 Z M 21.070312 18.058594 "/>
<path style=" stroke:none;fill-rule:nonzero;fill:rgb(97.254902%,98.039216%,96.078432%);fill-opacity:1;" d="M 28.488281 29.386719 L 29.175781 29.386719 L 29.273438 29.535156 L 29.273438 30.03125 L 29.125 30.328125 L 28.976562 30.375 L 24.214844 30.722656 L 23.429688 30.722656 L 23.429688 30.03125 L 23.378906 29.832031 L 25.492188 29.632812 Z M 28.488281 29.386719 "/>
<path style=" stroke:none;fill-rule:nonzero;fill:rgb(89.411765%,74.117649%,1.568628%);fill-opacity:1;" d="M 24.902344 11.773438 L 25 11.824219 L 25.394531 13.109375 L 25.394531 13.210938 L 26.914062 13.210938 L 26.867188 13.359375 L 26.03125 13.953125 L 25.785156 14.148438 L 25.933594 14.742188 L 26.179688 15.484375 L 26.128906 15.632812 L 25.246094 14.992188 L 25 14.792969 L 24.753906 14.890625 L 24.019531 15.4375 L 23.675781 15.632812 L 23.820312 15.089844 L 24.066406 14.347656 L 24.019531 14.101562 L 23.085938 13.40625 L 22.9375 13.308594 L 22.9375 13.210938 L 24.460938 13.210938 L 24.558594 12.765625 Z M 24.902344 11.773438 "/>
<path style=" stroke:none;fill-rule:nonzero;fill:rgb(0%,57.254905%,85.490197%);fill-opacity:1;" d="M 20.039062 29.238281 L 20.1875 29.289062 L 20.679688 29.980469 L 21.464844 30.820312 L 21.757812 31.117188 L 21.660156 31.316406 L 21.21875 31.761719 L 20.875 32.15625 L 20.578125 32.503906 L 20.285156 32.304688 L 19.644531 31.761719 L 19.105469 31.21875 L 18.664062 30.671875 L 18.46875 30.328125 L 19.402344 29.683594 L 19.988281 29.289062 Z M 20.039062 29.238281 "/>
<path style=" stroke:none;fill-rule:nonzero;fill:rgb(0%,57.254905%,85.490197%);fill-opacity:1;" d="M 29.421875 18.847656 L 29.8125 19.097656 L 30.304688 19.492188 L 30.597656 19.738281 L 30.597656 19.839844 L 30.796875 19.9375 L 31.042969 20.183594 L 31.679688 20.976562 L 31.628906 21.125 L 30.597656 21.816406 L 30.355469 21.71875 L 29.714844 21.667969 L 28.929688 20.828125 L 28.289062 20.183594 L 28.585938 19.839844 L 28.929688 19.441406 L 29.371094 18.949219 Z M 29.421875 18.847656 "/>
<path style=" stroke:none;fill-rule:nonzero;fill:rgb(0%,57.254905%,85.490197%);fill-opacity:1;" d="M 27.945312 30.671875 L 28.242188 30.671875 L 28.585938 31.167969 L 29.617188 32.703125 L 29.566406 32.800781 L 29.46875 32.800781 L 29.421875 32.949219 L 29.027344 33.34375 L 28.734375 33.246094 L 27.945312 32.75 L 27.257812 32.304688 L 26.375 31.664062 L 25.980469 31.316406 L 26.226562 31.070312 L 26.425781 30.96875 L 26.425781 30.871094 L 26.570312 30.773438 Z M 27.945312 30.671875 "/>
<path style=" stroke:none;fill-rule:nonzero;fill:rgb(0%,57.254905%,85.490197%);fill-opacity:1;" d="M 25.738281 18.847656 L 25.933594 18.898438 L 26.425781 19.144531 L 26.914062 19.441406 L 27.601562 19.9375 L 27.898438 20.183594 L 27.652344 20.480469 L 27.554688 20.480469 L 27.457031 20.679688 L 26.964844 21.125 L 26.425781 21.621094 L 26.179688 21.570312 L 25.980469 21.324219 L 25.882812 21.273438 L 25.882812 21.175781 L 25.785156 21.175781 L 25.539062 20.925781 L 25.492188 20.777344 L 25.292969 20.679688 L 24.707031 20.136719 L 24.605469 20.085938 L 24.707031 19.886719 L 25.097656 19.492188 L 25.441406 19.195312 Z M 25.738281 18.847656 "/>
<path style=" stroke:none;fill-rule:nonzero;fill:rgb(96.470588%,96.470588%,44.705883%);fill-opacity:1;" d="M 33.007812 24.835938 L 33.203125 24.835938 L 33.203125 24.933594 L 32.710938 25.230469 L 32.515625 25.332031 L 32.464844 25.824219 L 32.367188 25.925781 L 31.925781 26.074219 L 31.628906 26.320312 L 31.53125 26.519531 L 31.628906 26.816406 L 31.628906 27.261719 L 31.386719 28.050781 L 31.1875 27.953125 L 30.796875 27.558594 L 30.84375 27.457031 L 30.453125 27.210938 L 30.453125 27.113281 L 30.207031 27.0625 L 30.109375 26.964844 L 30.011719 26.320312 L 29.8125 25.925781 L 29.617188 25.726562 L 29.566406 25.480469 L 29.863281 25.378906 L 31.972656 25.035156 Z M 33.007812 24.835938 "/>
<path style=" stroke:none;fill-rule:nonzero;fill:rgb(0%,55.686277%,82.745099%);fill-opacity:1;" d="M 20.921875 19.839844 L 21.023438 19.839844 L 21.414062 20.433594 L 21.855469 21.027344 L 21.953125 21.421875 L 22.003906 21.964844 L 22.199219 21.816406 L 22.398438 21.917969 L 22.445312 22.066406 L 22.25 22.363281 L 21.953125 22.558594 L 21.660156 22.957031 L 21.511719 23.351562 L 21.023438 23.550781 L 20.921875 23.699219 L 20.824219 23.699219 L 20.726562 23.894531 L 20.578125 23.894531 L 20.285156 23.003906 L 20.433594 22.855469 L 20.726562 22.757812 L 20.726562 22.660156 L 20.972656 22.410156 L 21.023438 22.164062 L 20.679688 22.164062 L 20.089844 21.273438 L 20.039062 21.125 L 18.613281 20.828125 L 18.664062 20.730469 L 18.859375 20.679688 L 18.859375 20.53125 L 19.007812 20.628906 L 19.546875 20.679688 L 20.335938 20.730469 L 20.726562 20.925781 L 20.921875 20.976562 Z M 20.921875 19.839844 "/>
<path style=" stroke:none;fill-rule:nonzero;fill:rgb(0%,56.862748%,84.313726%);fill-opacity:1;" d="M 24.363281 20.183594 L 24.753906 20.480469 L 25.492188 21.175781 L 26.082031 21.769531 L 25.980469 21.964844 L 25.441406 22.410156 L 24.949219 22.808594 L 24.707031 22.757812 L 24.605469 22.660156 L 24.605469 22.3125 L 24.707031 21.917969 L 23.96875 21.964844 L 23.132812 22.164062 L 22.839844 22.164062 L 22.542969 21.769531 L 22.59375 21.570312 L 23.328125 21.027344 L 23.96875 20.53125 Z M 24.363281 20.183594 "/>
<path style=" stroke:none;fill-rule:nonzero;fill:rgb(0%,57.254905%,85.490197%);fill-opacity:1;" d="M 21.953125 31.316406 L 22.199219 31.464844 L 22.640625 31.8125 L 23.378906 32.304688 L 24.117188 32.75 L 23.917969 33.046875 L 23.429688 33.59375 L 23.28125 33.789062 L 22.9375 33.742188 L 21.757812 33.246094 L 20.875 32.75 L 20.824219 32.554688 L 21.5625 31.761719 L 21.90625 31.367188 Z M 21.953125 31.316406 "/>
<path style=" stroke:none;fill-rule:nonzero;fill:rgb(0%,56.862748%,85.09804%);fill-opacity:1;" d="M 28.046875 20.382812 L 28.289062 20.480469 L 28.878906 21.074219 L 29.222656 21.472656 L 29.320312 21.667969 L 29.027344 21.816406 L 28.683594 21.816406 L 28.632812 22.261719 L 28.535156 22.757812 L 28.339844 23.054688 L 28.289062 23.105469 L 27.503906 23.105469 L 27.210938 22.757812 L 26.769531 22.214844 L 26.523438 21.917969 L 26.621094 21.71875 L 27.210938 21.175781 L 27.601562 20.828125 Z M 28.046875 20.382812 "/>
<path style=" stroke:none;fill-rule:nonzero;fill:rgb(0%,57.254905%,85.490197%);fill-opacity:1;" d="M 25.738281 31.515625 L 25.933594 31.613281 L 26.867188 32.304688 L 27.601562 32.800781 L 28.832031 33.542969 L 28.78125 33.789062 L 28.535156 33.839844 L 27.40625 33.640625 L 26.570312 33.445312 L 25.246094 33 L 24.605469 32.703125 L 24.707031 32.503906 L 25.636719 31.5625 Z M 25.738281 31.515625 "/>
<path style=" stroke:none;fill-rule:nonzero;fill:rgb(0%,57.254905%,85.490197%);fill-opacity:1;" d="M 21.367188 17.5625 L 22.101562 17.613281 L 23.28125 17.859375 L 24.558594 18.253906 L 25.292969 18.550781 L 25.539062 18.75 L 24.65625 19.640625 L 24.410156 19.839844 L 24.214844 19.738281 L 23.328125 19.097656 L 22.347656 18.453125 L 21.316406 17.859375 Z M 21.367188 17.5625 "/>
<path style=" stroke:none;fill-rule:nonzero;fill:rgb(97.254902%,98.039216%,95.686275%);fill-opacity:1;" d="M 25.6875 26.023438 L 26.472656 26.023438 L 27.554688 26.171875 L 28.4375 26.371094 L 28.632812 26.320312 L 29.566406 26.914062 L 29.714844 27.0625 L 28.488281 26.914062 L 27.457031 26.816406 L 26.867188 26.816406 L 26.082031 26.914062 L 25.441406 27.113281 L 25 27.457031 L 24.753906 27.359375 L 23.820312 26.714844 L 23.820312 26.617188 L 24.753906 26.222656 L 25.34375 26.074219 Z M 25.6875 26.023438 "/>
<path style=" stroke:none;fill-rule:nonzero;fill:rgb(0%,57.254905%,85.490197%);fill-opacity:1;" d="M 26.816406 17.613281 L 27.210938 17.710938 L 27.945312 18.007812 L 28.734375 18.402344 L 29.222656 18.699219 L 28.929688 19.097656 L 28.488281 19.589844 L 28.289062 19.839844 L 28.046875 19.988281 L 27.160156 19.34375 L 26.179688 18.75 L 26.03125 18.652344 L 26.128906 18.402344 L 26.523438 18.007812 Z M 26.816406 17.613281 "/>
<path style=" stroke:none;fill-rule:nonzero;fill:rgb(94.117647%,96.470588%,89.803922%);fill-opacity:1;" d="M 21.855469 24.042969 L 22.886719 24.042969 L 23.675781 24.144531 L 23.675781 24.191406 L 22.199219 24.292969 L 21.414062 24.488281 L 21.167969 24.539062 L 21.265625 24.785156 L 22.054688 24.539062 L 22.347656 24.488281 L 24.066406 24.488281 L 24.363281 24.539062 L 24.363281 24.589844 L 23.183594 24.636719 L 22.445312 24.785156 L 21.855469 24.933594 L 21.953125 25.183594 L 22.496094 24.984375 L 23.429688 24.835938 L 24.3125 24.835938 L 25.148438 24.933594 L 25.148438 24.984375 L 23.917969 25.035156 L 23.230469 25.132812 L 22.59375 25.332031 L 22.640625 25.527344 L 23.183594 25.378906 L 23.625 25.28125 L 24.066406 25.230469 L 25.050781 25.230469 L 25.492188 25.28125 L 25.492188 25.378906 L 24.460938 25.429688 L 23.722656 25.578125 L 23.28125 25.726562 L 23.378906 25.925781 L 24.261719 25.675781 L 25.050781 25.628906 L 24.804688 25.824219 L 24.65625 25.925781 L 24.117188 26.074219 L 23.96875 26.121094 L 23.871094 26.269531 L 23.722656 26.320312 L 23.625 26.46875 L 23.378906 26.417969 L 22.59375 25.925781 L 21.414062 25.132812 L 20.578125 24.589844 L 20.628906 24.441406 L 21.167969 24.191406 Z M 21.855469 24.042969 "/>
<path style=" stroke:none;fill-rule:nonzero;fill:rgb(0%,56.862748%,85.09804%);fill-opacity:1;" d="M 29.8125 28.644531 L 29.960938 28.644531 L 29.960938 28.84375 L 29.8125 28.992188 L 29.714844 29.4375 L 29.714844 29.882812 L 29.863281 29.929688 L 29.960938 29.734375 L 30.207031 29.632812 L 30.355469 30.226562 L 30.550781 31.265625 L 30.648438 31.960938 L 30.648438 32.257812 L 30.011719 32.503906 L 29.8125 32.554688 L 29.421875 32.007812 L 29.027344 31.414062 L 28.585938 30.773438 L 28.585938 30.625 L 29.320312 30.574219 L 29.46875 30.128906 L 29.519531 29.683594 L 29.320312 29.140625 L 29.125 29.042969 L 29.519531 28.792969 Z M 29.8125 28.644531 "/>
<path style=" stroke:none;fill-rule:nonzero;fill:rgb(0%,57.254905%,85.490197%);fill-opacity:1;" d="M 30.109375 17.910156 L 30.304688 17.957031 L 30.894531 18.402344 L 31.386719 18.847656 L 31.628906 19.046875 L 32.316406 19.839844 L 32.660156 20.332031 L 32.660156 20.433594 L 31.972656 20.878906 L 31.828125 20.828125 L 31.285156 20.136719 L 30.5 19.34375 L 29.863281 18.847656 L 29.617188 18.601562 Z M 30.109375 17.910156 "/>
<path style=" stroke:none;fill-rule:nonzero;fill:rgb(0%,57.254905%,85.490197%);fill-opacity:1;" d="M 22.542969 30.722656 L 22.789062 30.773438 L 23.035156 31.019531 L 24.558594 30.921875 L 25.097656 30.921875 L 25.539062 31.265625 L 25.441406 31.464844 L 24.804688 32.058594 L 24.460938 32.453125 L 24.3125 32.554688 L 23.625 32.207031 L 23.035156 31.8125 L 22.496094 31.414062 L 22.199219 31.167969 L 22.296875 30.96875 Z M 22.542969 30.722656 "/>
<path style=" stroke:none;fill-rule:nonzero;fill:rgb(0%,57.254905%,85.490197%);fill-opacity:1;" d="M 33.054688 27.308594 L 33.203125 27.308594 L 33.152344 27.855469 L 32.957031 28.792969 L 32.464844 30.277344 L 31.679688 31.859375 L 31.582031 31.910156 L 31.628906 31.464844 L 31.828125 30.425781 L 31.925781 29.484375 L 31.972656 27.707031 L 32.5625 27.457031 Z M 33.054688 27.308594 "/>
<path style=" stroke:none;fill-rule:nonzero;fill:rgb(0%,57.254905%,85.490197%);fill-opacity:1;" d="M 22.199219 17.117188 L 24.410156 17.117188 L 25.492188 17.265625 L 26.425781 17.464844 L 26.570312 17.5625 L 25.980469 18.253906 L 25.785156 18.503906 L 25.34375 18.355469 L 24.753906 18.105469 L 23.574219 17.710938 L 22.25 17.414062 L 21.5625 17.316406 L 21.464844 17.21875 Z M 22.199219 17.117188 "/>
<path style=" stroke:none;fill-rule:nonzero;fill:rgb(0%,57.254905%,85.490197%);fill-opacity:1;" d="M 18.171875 30.523438 L 18.371094 30.625 L 18.8125 31.21875 L 19.5 31.960938 L 20.382812 32.703125 L 20.039062 33.246094 L 19.890625 33.394531 L 19.644531 33.296875 L 19.105469 32.898438 L 19.105469 32.800781 L 18.910156 32.703125 L 18.515625 32.355469 L 18.515625 32.257812 L 18.320312 32.15625 L 17.78125 31.515625 L 17.484375 31.117188 L 17.582031 30.921875 Z M 18.171875 30.523438 "/>
<path style=" stroke:none;fill-rule:nonzero;fill:rgb(0%,57.254905%,85.490197%);fill-opacity:1;" d="M 24.363281 32.898438 L 24.804688 33.046875 L 25.933594 33.492188 L 27.257812 33.839844 L 28.339844 34.039062 L 28.390625 34.136719 L 27.457031 34.234375 L 26.128906 34.285156 L 24.902344 34.1875 L 23.96875 34.039062 L 23.574219 33.890625 L 23.675781 33.640625 L 24.019531 33.246094 L 24.117188 33.246094 L 24.214844 33.046875 Z M 24.363281 32.898438 "/>
<path style=" stroke:none;fill-rule:nonzero;fill:rgb(96.470588%,97.647059%,94.117647%);fill-opacity:1;" d="M 26.472656 27.0625 L 27.800781 27.0625 L 29.175781 27.210938 L 30.304688 27.410156 L 30.699219 27.753906 L 30.894531 28.003906 L 30.355469 27.902344 L 29.46875 27.753906 L 28.929688 27.707031 L 27.308594 27.707031 L 26.425781 27.855469 L 25.882812 28.003906 L 25.636719 28.003906 L 25.195312 27.65625 L 25.441406 27.410156 L 25.785156 27.210938 Z M 26.472656 27.0625 "/>
<path style=" stroke:none;fill-rule:nonzero;fill:rgb(11.372549%,9.803922%,7.843138%);fill-opacity:1;" d="M 32.21875 34.582031 L 32.464844 34.632812 L 32.660156 34.828125 L 32.613281 35.027344 L 32.417969 35.175781 L 32.269531 35.175781 L 32.21875 35.523438 L 31.972656 35.769531 L 31.828125 35.867188 L 31.53125 35.96875 L 31.285156 36.214844 L 30.355469 36.757812 L 29.421875 37.203125 L 29.125 37.253906 L 28.976562 37.253906 L 28.734375 37.453125 L 28.390625 37.5 L 28.242188 37.304688 L 28.144531 37.007812 L 27.652344 37.253906 L 27.308594 37.601562 L 27.160156 37.898438 L 27.160156 38.292969 L 27.503906 38.390625 L 27.996094 38.390625 L 28.683594 38.242188 L 28.832031 38.292969 L 28.4375 38.539062 L 28.046875 38.6875 L 27.601562 38.738281 L 27.160156 38.589844 L 26.914062 38.195312 L 26.964844 37.75 L 27.257812 37.253906 L 26.816406 37.351562 L 26.671875 37.402344 L 26.621094 37.253906 L 26.71875 37.105469 L 27.257812 36.957031 L 28.09375 36.808594 L 27.847656 35.96875 L 27.800781 35.769531 L 27.847656 35.671875 L 28.046875 35.769531 L 28.390625 36.957031 L 28.4375 37.15625 L 28.832031 37.105469 L 28.929688 36.859375 L 29.078125 36.859375 L 29.078125 36.957031 L 29.46875 36.859375 L 30.253906 36.460938 L 31.140625 35.96875 L 31.238281 35.867188 L 31.238281 35.375 L 31.335938 35.226562 L 31.582031 35.273438 L 31.679688 35.421875 L 31.679688 35.570312 L 31.925781 35.421875 L 32.023438 35.175781 L 32.121094 34.679688 Z M 32.21875 34.582031 "/>
<path style=" stroke:none;fill-rule:nonzero;fill:rgb(11.372549%,9.803922%,7.843138%);fill-opacity:1;" d="M 21.5625 35.421875 L 21.660156 35.472656 L 20.972656 36.660156 L 20.972656 36.957031 L 22.101562 37.5 L 23.132812 37.898438 L 23.820312 37.996094 L 23.820312 37.898438 L 23.429688 37.847656 L 23.574219 37.601562 L 23.722656 37.550781 L 24.117188 37.550781 L 24.605469 37.847656 L 24.65625 38.046875 L 24.410156 38.195312 L 25 38.242188 L 25.097656 36.808594 L 25.292969 36.660156 L 25.394531 37.15625 L 25.292969 37.15625 L 25.246094 37.945312 L 25.148438 38.34375 L 24.949219 38.539062 L 24.558594 38.539062 L 24.164062 38.390625 L 24.019531 38.242188 L 23.230469 38.242188 L 22.054688 37.796875 L 21.414062 37.5 L 20.777344 37.15625 L 20.679688 37.054688 L 20.679688 36.90625 L 20.335938 36.90625 L 20.039062 36.808594 L 19.84375 36.957031 L 19.402344 36.957031 L 18.8125 36.808594 L 18.320312 36.511719 L 18.46875 36.460938 L 19.253906 36.660156 L 19.941406 36.757812 L 19.890625 36.609375 L 19.695312 36.460938 L 19.695312 36.214844 L 19.941406 36.066406 L 20.1875 36.164062 L 20.234375 36.5625 L 20.726562 36.710938 L 20.824219 36.460938 L 21.367188 35.523438 Z M 21.5625 35.421875 "/>
<path style=" stroke:none;fill-rule:nonzero;fill:rgb(0%,57.254905%,85.490197%);fill-opacity:1;" d="M 16.0625 27.558594 L 16.355469 27.605469 L 16.992188 28.152344 L 17.191406 28.300781 L 17.484375 29.089844 L 17.878906 29.882812 L 18.074219 30.179688 L 18.074219 30.328125 L 17.484375 30.722656 L 17.238281 30.773438 L 16.894531 30.179688 L 16.453125 29.238281 L 16.109375 28.199219 L 16.011719 27.804688 Z M 16.0625 27.558594 "/>
<path style=" stroke:none;fill-rule:nonzero;fill:rgb(11.372549%,9.803922%,7.843138%);fill-opacity:1;" d="M 9.480469 20.828125 L 9.96875 20.878906 L 10.460938 21.125 L 10.65625 21.371094 L 10.707031 21.472656 L 10.707031 21.867188 L 10.460938 22.707031 L 9.871094 22.558594 L 8.742188 22.214844 L 8.644531 22.164062 L 8.742188 21.71875 L 8.9375 21.175781 L 9.183594 20.925781 Z M 9.480469 20.828125 "/>
<path style=" stroke:none;fill-rule:nonzero;fill:rgb(11.372549%,9.803922%,7.843138%);fill-opacity:1;" d="M 19.695312 39.578125 L 20.136719 39.726562 L 20.875 40.023438 L 21.21875 40.171875 L 22.25 40.46875 L 22.347656 40.519531 L 22.25 40.816406 L 21.757812 40.71875 L 21.367188 42.050781 L 21.167969 42.101562 L 20.972656 42.003906 L 21.367188 40.570312 L 20.875 40.421875 L 20.089844 40.074219 L 19.890625 40.023438 L 19.84375 40.371094 L 20.578125 40.667969 L 20.628906 40.765625 L 20.53125 41.015625 L 19.644531 40.667969 L 19.5 41.160156 L 19.746094 41.210938 L 20.382812 41.457031 L 20.335938 41.753906 L 20.039062 41.707031 L 19.058594 41.308594 L 19.105469 41.015625 Z M 19.695312 39.578125 "/>
<path style=" stroke:none;fill-rule:nonzero;fill:rgb(11.372549%,9.803922%,7.843138%);fill-opacity:1;" d="M 14.488281 36.265625 L 14.6875 36.363281 L 15.175781 36.757812 L 15.421875 37.007812 L 15.421875 37.402344 L 15.175781 37.648438 L 14.980469 37.699219 L 15.03125 37.996094 L 14.882812 38.242188 L 14.6875 38.390625 L 14.292969 38.390625 L 13.457031 37.75 L 13.410156 37.648438 L 13.898438 37.007812 L 14.441406 36.3125 Z M 14.488281 36.265625 "/>
<path style=" stroke:none;fill-rule:nonzero;fill:rgb(11.372549%,9.803922%,7.843138%);fill-opacity:1;" d="M 27.847656 9.695312 L 28.289062 9.746094 L 28.4375 9.796875 L 28.535156 11.03125 L 29.027344 10.09375 L 29.078125 9.945312 L 29.664062 10.042969 L 29.566406 10.636719 L 29.320312 11.824219 L 29.273438 11.921875 L 28.929688 11.875 L 29.027344 11.28125 L 29.175781 10.539062 L 28.585938 11.773438 L 28.242188 11.726562 L 28.191406 11.675781 L 28.09375 10.488281 L 27.847656 11.625 L 27.503906 11.578125 L 27.554688 11.082031 Z M 27.847656 9.695312 "/>
<path style=" stroke:none;fill-rule:nonzero;fill:rgb(0%,56.862748%,84.705883%);fill-opacity:1;" d="M 33.105469 24.933594 L 33.203125 24.933594 L 33.300781 25.675781 L 33.300781 26.519531 L 33.25 27.011719 L 32.074219 27.410156 L 31.925781 27.410156 L 31.777344 26.417969 L 31.777344 26.121094 L 32.121094 25.925781 L 32.417969 25.824219 L 32.464844 25.332031 L 32.859375 25.082031 Z M 33.105469 24.933594 "/>
<path style=" stroke:none;fill-rule:nonzero;fill:rgb(11.372549%,9.803922%,7.843138%);fill-opacity:1;" d="M 8.25 25.035156 L 10.117188 25.035156 L 10.167969 25.332031 L 10.117188 25.378906 L 8.890625 25.429688 L 10.117188 25.726562 L 10.167969 25.777344 L 10.167969 26.121094 L 8.9375 26.46875 L 10.167969 26.519531 L 10.167969 26.863281 L 8.25 26.863281 L 8.25 26.320312 L 9.183594 26.023438 L 9.382812 25.925781 L 8.25 25.628906 Z M 8.25 25.035156 "/>
<path style=" stroke:none;fill-rule:nonzero;fill:rgb(11.372549%,9.803922%,7.843138%);fill-opacity:1;" d="M 39.734375 25.035156 L 41.601562 25.035156 L 41.648438 25.082031 L 41.601562 25.628906 L 40.914062 25.824219 L 40.472656 25.972656 L 41.550781 26.269531 L 41.601562 26.320312 L 41.601562 26.914062 L 39.734375 26.863281 L 39.6875 26.816406 L 39.6875 26.519531 L 40.914062 26.46875 L 39.832031 26.171875 L 39.734375 26.121094 L 39.734375 25.726562 L 41.011719 25.429688 L 39.734375 25.378906 Z M 39.734375 25.035156 "/>
<path style=" stroke:none;fill-rule:nonzero;fill:rgb(0%,57.254905%,85.490197%);fill-opacity:1;" d="M 23.28125 34.136719 L 23.722656 34.1875 L 24.707031 34.382812 L 25.785156 34.484375 L 27.210938 34.484375 L 28.390625 34.382812 L 28.242188 34.484375 L 27.457031 34.730469 L 26.570312 34.929688 L 25.636719 35.027344 L 24.507812 35.027344 L 23.574219 34.929688 L 22.886719 34.78125 L 22.984375 34.53125 Z M 23.28125 34.136719 "/>
<path style=" stroke:none;fill-rule:nonzero;fill:rgb(85.09804%,71.764708%,1.960784%);fill-opacity:1;" d="M 33.546875 16.625 L 33.644531 16.722656 L 33.890625 17.464844 L 33.890625 17.5625 L 34.871094 17.5625 L 34.675781 17.808594 L 34.136719 18.207031 L 34.28125 18.75 L 34.382812 18.996094 L 34.332031 19.144531 L 33.644531 18.652344 L 33.398438 18.699219 L 32.808594 19.144531 L 32.761719 18.996094 L 32.957031 18.355469 L 32.90625 18.105469 L 32.269531 17.660156 L 32.269531 17.5625 L 33.25 17.5625 L 33.398438 17.019531 Z M 33.546875 16.625 "/>
<path style=" stroke:none;fill-rule:nonzero;fill:rgb(0%,57.254905%,85.490197%);fill-opacity:1;" d="M 24.214844 16.375 L 25.835938 16.375 L 27.160156 16.574219 L 27.257812 16.671875 L 26.769531 17.316406 L 25.882812 17.117188 L 24.65625 16.921875 L 24.066406 16.871094 L 22.101562 16.871094 L 22.25 16.773438 L 23.183594 16.523438 Z M 24.214844 16.375 "/>
<path style=" stroke:none;fill-rule:nonzero;fill:rgb(85.09804%,71.764708%,1.960784%);fill-opacity:1;" d="M 28.390625 13.359375 L 28.488281 13.359375 L 28.78125 14.25 L 29.714844 14.296875 L 29.664062 14.445312 L 29.027344 14.890625 L 29.125 15.386719 L 29.273438 15.882812 L 29.078125 15.78125 L 28.4375 15.335938 L 27.996094 15.632812 L 27.703125 15.882812 L 27.601562 15.882812 L 27.75 15.335938 L 27.847656 14.890625 L 27.160156 14.398438 L 27.113281 14.296875 L 28.144531 14.296875 L 28.242188 13.851562 Z M 28.390625 13.359375 "/>
<path style=" stroke:none;fill-rule:nonzero;fill:rgb(87.450981%,73.725492%,1.960784%);fill-opacity:1;" d="M 34.921875 19.195312 L 35.019531 19.246094 L 35.3125 20.136719 L 36.246094 20.183594 L 36.003906 20.433594 L 35.558594 20.777344 L 35.609375 21.125 L 35.804688 21.769531 L 35.609375 21.667969 L 34.96875 21.222656 L 34.527344 21.519531 L 34.183594 21.769531 L 34.136719 21.621094 L 34.382812 20.777344 L 33.644531 20.234375 L 33.644531 20.183594 L 34.625 20.136719 Z M 34.921875 19.195312 "/>
<path style=" stroke:none;fill-rule:nonzero;fill:rgb(85.09804%,71.372551%,1.960784%);fill-opacity:1;" d="M 16.257812 16.671875 L 16.355469 16.671875 L 16.601562 17.464844 L 16.601562 17.5625 L 17.582031 17.5625 L 17.582031 17.660156 L 16.894531 18.15625 L 16.945312 18.453125 L 17.140625 19.144531 L 16.894531 19.046875 L 16.355469 18.652344 L 16.109375 18.75 L 15.570312 19.144531 L 15.472656 19.144531 L 15.617188 18.601562 L 15.765625 18.15625 L 15.570312 18.058594 L 14.980469 17.613281 L 14.980469 17.5625 L 15.960938 17.515625 Z M 16.257812 16.671875 "/>
<path style=" stroke:none;fill-rule:nonzero;fill:rgb(85.09804%,71.372551%,1.960784%);fill-opacity:1;" d="M 21.414062 13.359375 L 21.511719 13.507812 L 21.710938 14.101562 L 21.710938 14.296875 L 22.742188 14.296875 L 22.496094 14.546875 L 22.003906 14.890625 L 22.25 15.882812 L 21.90625 15.683594 L 21.464844 15.335938 L 21.023438 15.632812 L 20.679688 15.882812 L 20.628906 15.683594 L 20.824219 15.089844 L 20.824219 14.890625 L 20.136719 14.398438 L 20.136719 14.296875 L 21.121094 14.296875 L 21.21875 13.851562 Z M 21.414062 13.359375 "/>
<path style=" stroke:none;fill-rule:nonzero;fill:rgb(87.450981%,73.725492%,1.568628%);fill-opacity:1;" d="M 14.882812 19.195312 L 14.980469 19.34375 L 15.226562 20.085938 L 15.226562 20.183594 L 16.207031 20.183594 L 15.960938 20.433594 L 15.570312 20.730469 L 15.472656 20.730469 L 15.71875 21.570312 L 15.765625 21.769531 L 15.519531 21.667969 L 15.078125 21.324219 L 14.882812 21.222656 L 14.195312 21.71875 L 14.097656 21.71875 L 14.144531 21.421875 L 14.390625 20.777344 L 14.195312 20.679688 L 13.605469 20.234375 L 13.605469 20.183594 L 14.585938 20.183594 L 14.6875 19.738281 Z M 14.882812 19.195312 "/>
<path style=" stroke:none;fill-rule:nonzero;fill:rgb(86.666667%,74.509805%,2.352941%);fill-opacity:1;" d="M 18.664062 14.695312 L 18.761719 14.792969 L 19.007812 15.585938 L 20.039062 15.632812 L 19.84375 15.832031 L 19.300781 16.226562 L 19.253906 16.425781 L 19.402344 16.773438 L 19.5 17.21875 L 18.957031 16.871094 L 18.664062 16.671875 L 17.925781 17.21875 L 17.878906 17.070312 L 18.125 16.277344 L 17.4375 15.734375 L 17.386719 15.632812 L 18.371094 15.632812 L 18.515625 15.089844 Z M 18.664062 14.695312 "/>
<path style=" stroke:none;fill-rule:nonzero;fill:rgb(87.058824%,74.509805%,1.960784%);fill-opacity:1;" d="M 31.140625 14.742188 L 31.238281 14.742188 L 31.484375 15.484375 L 31.484375 15.632812 L 32.464844 15.632812 L 32.464844 15.734375 L 31.777344 16.226562 L 31.828125 16.574219 L 31.972656 17.019531 L 31.925781 17.21875 L 31.1875 16.671875 L 30.746094 16.96875 L 30.402344 17.21875 L 30.355469 17.117188 L 30.597656 16.328125 L 30.597656 16.226562 L 29.910156 15.734375 L 29.863281 15.632812 L 30.894531 15.632812 L 30.941406 15.289062 L 31.089844 14.792969 Z M 31.140625 14.742188 "/>
<path style=" stroke:none;fill-rule:nonzero;fill:rgb(0%,57.254905%,85.490197%);fill-opacity:1;" d="M 34.136719 27.011719 L 34.234375 27.011719 L 34.136719 27.707031 L 33.792969 28.894531 L 33.496094 29.632812 L 33.054688 30.476562 L 32.660156 31.070312 L 32.171875 31.710938 L 31.925781 31.960938 L 32.023438 31.664062 L 32.464844 30.820312 L 32.957031 29.585938 L 33.25 28.546875 L 33.449219 27.359375 L 33.546875 27.160156 Z M 34.136719 27.011719 "/>
<path style=" stroke:none;fill-rule:nonzero;fill:rgb(0%,57.254905%,85.490197%);fill-opacity:1;" d="M 27.503906 16.722656 L 27.847656 16.773438 L 28.535156 17.019531 L 29.421875 17.414062 L 29.910156 17.710938 L 29.8125 17.957031 L 29.421875 18.503906 L 29.125 18.355469 L 28.289062 17.910156 L 27.0625 17.414062 L 27.160156 17.167969 Z M 27.503906 16.722656 "/>
<path style=" stroke:none;fill-rule:nonzero;fill:rgb(11.372549%,9.803922%,7.843138%);fill-opacity:1;" d="M 27.503906 40.71875 L 27.601562 40.71875 L 27.847656 42.300781 L 27.847656 42.546875 L 27.503906 42.597656 L 27.359375 41.605469 L 27.308594 41.457031 L 27.160156 42.644531 L 26.816406 42.695312 L 26.570312 42.199219 L 26.324219 41.558594 L 26.425781 42.449219 L 26.425781 42.746094 L 26.128906 42.792969 L 26.03125 42.449219 L 25.882812 41.359375 L 25.882812 40.964844 L 26.082031 40.914062 L 26.425781 40.914062 L 26.867188 41.953125 L 26.964844 41.410156 L 27.015625 40.914062 L 27.113281 40.765625 Z M 27.503906 40.71875 "/>
<path style=" stroke:none;fill-rule:nonzero;fill:rgb(0%,57.254905%,85.490197%);fill-opacity:1;" d="M 20.578125 32.898438 L 20.777344 32.949219 L 21.5625 33.394531 L 22.542969 33.839844 L 22.984375 33.988281 L 22.984375 34.1875 L 22.59375 34.679688 L 22.152344 34.582031 L 21.464844 34.335938 L 20.382812 33.789062 L 20.089844 33.59375 L 20.382812 33.148438 Z M 20.578125 32.898438 "/>
<path style=" stroke:none;fill-rule:nonzero;fill:rgb(11.372549%,9.803922%,7.843138%);fill-opacity:1;" d="M 10.019531 18.800781 L 10.363281 18.800781 L 10.609375 18.949219 L 10.707031 19.097656 L 10.707031 19.492188 L 10.902344 19.394531 L 11.246094 19.34375 L 11.691406 19.34375 L 11.589844 19.640625 L 11.542969 19.738281 L 10.65625 19.886719 L 10.511719 20.035156 L 10.511719 20.183594 L 11.101562 20.480469 L 11.050781 20.730469 L 11.003906 20.828125 L 10.757812 20.777344 L 9.28125 20.035156 L 9.382812 19.738281 L 9.773438 18.996094 Z M 10.019531 18.800781 "/>
<path style=" stroke:none;fill-rule:nonzero;fill:rgb(0%,56.862748%,85.09804%);fill-opacity:1;" d="M 31.777344 21.273438 L 31.875 21.273438 L 32.269531 21.917969 L 32.5625 22.558594 L 32.515625 22.707031 L 31.433594 22.90625 L 30.941406 22.957031 L 30.796875 22.660156 L 30.597656 22.558594 L 30.550781 22.113281 L 31.140625 21.71875 Z M 31.777344 21.273438 "/>
<path style=" stroke:none;fill-rule:nonzero;fill:rgb(11.372549%,9.803922%,7.843138%);fill-opacity:1;" d="M 17.09375 38.195312 L 17.339844 38.292969 L 18.269531 38.886719 L 19.058594 39.28125 L 19.597656 39.578125 L 19.5 39.875 L 19.007812 39.679688 L 18.566406 40.46875 L 18.320312 40.964844 L 17.976562 40.816406 L 18.613281 39.53125 L 18.613281 39.429688 L 17.683594 38.9375 L 17.582031 39.183594 L 16.992188 40.125 L 16.847656 40.171875 L 16.648438 40.074219 L 16.699219 39.828125 L 17.339844 38.835938 L 17.339844 38.6875 L 16.992188 38.492188 L 17.042969 38.242188 Z M 17.09375 38.195312 "/>
<path style=" stroke:none;fill-rule:nonzero;fill:rgb(97.647059%,98.039216%,96.078432%);fill-opacity:1;" d="M 21.21875 28.597656 L 21.5625 28.597656 L 22.199219 29.140625 L 22.886719 29.683594 L 23.132812 29.929688 L 23.230469 30.128906 L 23.230469 30.476562 L 23.132812 30.722656 L 22.839844 30.523438 L 22.152344 29.980469 L 21.414062 29.386719 L 20.777344 28.894531 L 20.679688 28.746094 Z M 21.21875 28.597656 "/>
<path style=" stroke:none;fill-rule:nonzero;fill:rgb(11.372549%,9.803922%,7.843138%);fill-opacity:1;" d="M 23.527344 9.449219 L 23.773438 9.449219 L 24.214844 10.289062 L 24.65625 11.230469 L 24.65625 11.328125 L 24.214844 11.328125 L 24.066406 10.984375 L 23.28125 10.984375 L 23.183594 11.429688 L 22.789062 11.429688 L 22.984375 10.636719 L 23.328125 9.546875 Z M 23.527344 9.449219 "/>
<path style=" stroke:none;fill-rule:nonzero;fill:rgb(0%,57.254905%,85.490197%);fill-opacity:1;" d="M 32.761719 20.628906 L 32.957031 20.730469 L 33.300781 21.324219 L 33.644531 22.113281 L 33.792969 22.558594 L 33.644531 22.609375 L 32.808594 22.609375 L 32.613281 22.113281 L 32.074219 21.175781 L 32.074219 21.074219 Z M 32.761719 20.628906 "/>
<path style=" stroke:none;fill-rule:nonzero;fill:rgb(11.372549%,9.803922%,7.843138%);fill-opacity:1;" d="M 34.527344 12.417969 L 34.773438 12.515625 L 34.921875 12.617188 L 34.824219 13.210938 L 34.527344 14.59375 L 34.382812 14.59375 L 34.183594 14.445312 L 34.183594 13.953125 L 33.695312 13.605469 L 33.496094 13.65625 L 33.300781 13.804688 L 33.054688 13.703125 L 32.90625 13.554688 L 33.839844 12.914062 Z M 34.527344 12.417969 "/>
<path style=" stroke:none;fill-rule:nonzero;fill:rgb(11.372549%,9.803922%,7.843138%);fill-opacity:1;" d="M 17.386719 11.132812 L 17.582031 11.179688 L 17.976562 11.578125 L 18.371094 11.921875 L 18.957031 12.46875 L 18.8125 12.617188 L 18.566406 12.664062 L 18.320312 12.417969 L 18.027344 12.515625 L 17.632812 12.714844 L 17.632812 13.160156 L 17.386719 13.308594 L 17.289062 13.308594 L 17.238281 13.160156 L 17.09375 11.328125 Z M 17.386719 11.132812 "/>
<path style=" stroke:none;fill-rule:nonzero;fill:rgb(11.372549%,9.803922%,7.843138%);fill-opacity:1;" d="M 13.359375 14 L 14.292969 14.445312 L 15.175781 14.890625 L 14.929688 15.1875 L 14.636719 15.089844 L 14.441406 15.039062 L 13.949219 15.484375 L 14.097656 15.929688 L 13.800781 16.179688 L 13.703125 16.03125 L 13.066406 14.347656 L 13.164062 14.148438 Z M 13.359375 14 "/>
<path style=" stroke:none;fill-rule:nonzero;fill:rgb(11.372549%,9.803922%,7.843138%);fill-opacity:1;" d="M 10.214844 22.957031 L 10.414062 23.003906 L 10.363281 23.351562 L 9.871094 23.449219 L 9.824219 24.191406 L 10.214844 24.390625 L 10.167969 24.785156 L 9.96875 24.738281 L 8.792969 24.09375 L 8.398438 23.847656 L 8.398438 23.449219 L 8.792969 23.300781 Z M 10.214844 22.957031 "/>
<path style=" stroke:none;fill-rule:nonzero;fill:rgb(11.372549%,9.803922%,7.843138%);fill-opacity:1;" d="M 10.65625 17.316406 L 12.523438 17.613281 L 12.671875 17.710938 L 12.476562 18.007812 L 11.984375 18.007812 L 11.691406 18.503906 L 11.738281 18.699219 L 11.886719 18.898438 L 11.789062 19.195312 L 11.589844 19.195312 L 10.609375 17.910156 L 10.460938 17.710938 L 10.558594 17.464844 Z M 10.65625 17.316406 "/>
<path style=" stroke:none;fill-rule:nonzero;fill:rgb(11.372549%,9.803922%,7.843138%);fill-opacity:1;" d="M 24.851562 9.398438 L 25.246094 9.398438 L 25.246094 10.140625 L 25.980469 10.140625 L 25.980469 9.597656 L 26.03125 9.398438 L 26.375 9.398438 L 26.375 11.328125 L 25.980469 11.328125 L 25.980469 10.488281 L 25.246094 10.488281 L 25.195312 11.28125 L 24.851562 11.28125 Z M 24.851562 9.398438 "/>
<path style=" stroke:none;fill-rule:nonzero;fill:rgb(11.372549%,9.803922%,7.843138%);fill-opacity:1;" d="M 36.003906 36.414062 L 36.347656 36.710938 L 36.738281 37.105469 L 37.082031 37.5 L 37.277344 37.75 L 37.035156 37.996094 L 36.246094 37.796875 L 35.757812 37.699219 L 36.199219 38.144531 L 36.445312 38.441406 L 36.347656 38.640625 L 36.148438 38.640625 L 35.609375 38.09375 L 35.265625 37.699219 L 35.019531 37.453125 L 35.117188 37.253906 L 35.214844 37.15625 L 35.707031 37.253906 L 36.542969 37.453125 L 36.148438 37.054688 L 36.148438 36.957031 L 36.050781 36.957031 L 35.804688 36.609375 Z M 36.003906 36.414062 "/>
<path style=" stroke:none;fill-rule:nonzero;fill:rgb(11.372549%,9.803922%,7.843138%);fill-opacity:1;" d="M 23.085938 40.667969 L 23.574219 40.71875 L 24.164062 40.867188 L 24.363281 41.113281 L 24.363281 41.558594 L 24.117188 41.855469 L 24.019531 41.902344 L 23.28125 41.902344 L 23.183594 42.496094 L 22.886719 42.496094 L 22.789062 42.398438 L 23.035156 40.816406 Z M 23.085938 40.667969 "/>
<path style=" stroke:none;fill-rule:nonzero;fill:rgb(0%,57.254905%,85.490197%);fill-opacity:1;" d="M 34.136719 24.589844 L 34.28125 24.589844 L 34.332031 25.035156 L 34.332031 26.320312 L 34.28125 26.714844 L 33.546875 26.914062 L 33.496094 25.378906 L 33.449219 24.785156 L 33.890625 24.636719 Z M 34.136719 24.589844 "/>
<path style=" stroke:none;fill-rule:nonzero;fill:rgb(11.372549%,9.803922%,7.843138%);fill-opacity:1;" d="M 12.082031 15.4375 L 12.523438 15.4375 L 12.621094 15.484375 L 12.574219 15.683594 L 12.476562 15.832031 L 12.179688 15.832031 L 11.933594 16.078125 L 11.933594 16.277344 L 12.230469 16.226562 L 12.769531 15.882812 L 13.113281 15.882812 L 13.410156 16.078125 L 13.507812 16.277344 L 13.507812 16.625 L 13.210938 17.070312 L 12.964844 17.265625 L 12.574219 17.316406 L 12.277344 17.167969 L 12.476562 16.871094 L 12.867188 16.871094 L 13.066406 16.671875 L 13.113281 16.425781 L 13.066406 16.328125 L 12.769531 16.375 L 12.328125 16.671875 L 11.886719 16.722656 L 11.640625 16.574219 L 11.542969 16.375 L 11.589844 15.929688 L 11.933594 15.535156 Z M 12.082031 15.4375 "/>
<path style=" stroke:none;fill-rule:nonzero;fill:rgb(11.372549%,9.803922%,7.843138%);fill-opacity:1;" d="M 15.375 12.367188 L 15.570312 12.46875 L 16.257812 13.40625 L 16.550781 13.804688 L 16.453125 14 L 16.257812 14.101562 L 15.816406 13.507812 L 15.570312 13.605469 L 15.226562 13.851562 L 15.421875 14.199219 L 15.667969 14.496094 L 15.667969 14.59375 L 15.472656 14.742188 L 15.273438 14.695312 L 14.488281 13.65625 L 14.242188 13.308594 L 14.242188 13.210938 L 14.441406 13.0625 L 14.636719 13.109375 L 14.929688 13.507812 L 14.929688 13.605469 L 15.273438 13.40625 L 15.519531 13.210938 L 15.421875 12.960938 L 15.175781 12.664062 L 15.226562 12.46875 Z M 15.375 12.367188 "/>
<path style=" stroke:none;fill-rule:nonzero;fill:rgb(11.372549%,9.803922%,7.843138%);fill-opacity:1;" d="M 24.851562 40.867188 L 25.195312 40.867188 L 25.292969 40.914062 L 25.933594 42.695312 L 25.933594 42.746094 L 25.539062 42.746094 L 25.394531 42.300781 L 24.65625 42.347656 L 24.507812 42.695312 L 24.164062 42.695312 L 24.117188 42.597656 L 24.753906 41.113281 Z M 24.851562 40.867188 "/>
<path style=" stroke:none;fill-rule:nonzero;fill:rgb(11.372549%,9.803922%,7.843138%);fill-opacity:1;" d="M 35.855469 13.457031 L 36.148438 13.65625 L 35.953125 13.953125 L 35.707031 14.199219 L 35.707031 14.296875 L 36.101562 14.644531 L 36.296875 14.644531 L 36.691406 14.199219 L 36.984375 14.445312 L 36.691406 14.84375 L 36.347656 15.1875 L 36.003906 15.585938 L 35.757812 15.882812 L 35.460938 15.632812 L 35.757812 15.238281 L 35.953125 14.992188 L 35.609375 14.644531 L 35.414062 14.546875 L 34.921875 15.089844 L 34.726562 14.992188 L 34.625 14.792969 L 34.96875 14.445312 L 35.3125 14.050781 Z M 35.855469 13.457031 "/>
<path style=" stroke:none;fill-rule:nonzero;fill:rgb(11.372549%,9.803922%,7.843138%);fill-opacity:1;" d="M 31.53125 39.480469 L 31.777344 39.53125 L 32.515625 40.222656 L 32.90625 40.570312 L 33.105469 40.816406 L 32.761719 40.964844 L 32.464844 40.71875 L 32.023438 40.867188 L 31.828125 40.964844 L 31.828125 41.410156 L 31.582031 41.558594 L 31.484375 41.558594 L 31.433594 41.359375 L 31.335938 40.171875 L 31.335938 39.578125 Z M 31.53125 39.480469 "/>
<path style=" stroke:none;fill-rule:nonzero;fill:rgb(11.372549%,9.803922%,7.843138%);fill-opacity:1;" d="M 34.382812 37.796875 L 34.96875 38.144531 L 35.902344 38.738281 L 36.050781 38.886719 L 35.757812 39.085938 L 35.511719 38.984375 L 35.265625 38.9375 L 34.871094 39.234375 L 34.773438 39.234375 L 34.871094 39.726562 L 34.578125 39.925781 L 34.28125 38.886719 L 34.085938 38.144531 L 34.085938 37.996094 Z M 34.382812 37.796875 "/>
<path style=" stroke:none;fill-rule:nonzero;fill:rgb(0%,56.862748%,84.705883%);fill-opacity:1;" d="M 22.199219 21.816406 L 22.398438 21.917969 L 22.445312 22.066406 L 22.25 22.363281 L 21.953125 22.558594 L 21.660156 22.957031 L 21.511719 23.351562 L 21.023438 23.550781 L 20.921875 23.699219 L 20.824219 23.699219 L 20.726562 23.894531 L 20.578125 23.894531 L 20.285156 23.003906 L 20.433594 22.855469 L 20.726562 22.757812 L 20.726562 22.660156 L 21.070312 22.511719 L 21.855469 22.066406 L 22.003906 22.066406 L 22.054688 21.917969 Z M 22.199219 21.816406 "/>
<path style=" stroke:none;fill-rule:nonzero;fill:rgb(11.372549%,9.803922%,7.843138%);fill-opacity:1;" d="M 30.699219 39.875 L 30.796875 39.875 L 30.699219 40.171875 L 30.453125 40.765625 L 31.238281 41.410156 L 31.433594 41.605469 L 30.992188 41.753906 L 30.304688 41.160156 L 30.207031 41.113281 L 30.109375 41.558594 L 30.207031 41.855469 L 30.207031 42.050781 L 29.863281 42.101562 L 29.320312 40.519531 L 29.320312 40.371094 L 29.664062 40.273438 L 29.910156 40.964844 L 30.304688 40.074219 Z M 30.699219 39.875 "/>
<path style=" stroke:none;fill-rule:nonzero;fill:rgb(11.372549%,9.803922%,7.843138%);fill-opacity:1;" d="M 40.03125 18.996094 L 40.175781 19.195312 L 40.226562 19.34375 L 39.488281 19.691406 L 38.949219 19.9375 L 38.898438 20.285156 L 38.996094 20.480469 L 39.292969 20.53125 L 40.519531 20.035156 L 40.617188 20.234375 L 40.617188 20.433594 L 39.441406 20.925781 L 39.097656 20.976562 L 38.800781 20.828125 L 38.554688 20.433594 L 38.507812 20.285156 L 38.507812 19.886719 L 38.652344 19.640625 L 38.996094 19.441406 Z M 40.03125 18.996094 "/>
<path style=" stroke:none;fill-rule:nonzero;fill:rgb(11.372549%,9.803922%,7.843138%);fill-opacity:1;" d="M 40.960938 22.855469 L 41.355469 22.855469 L 41.40625 23.203125 L 40.863281 23.300781 L 40.03125 23.449219 L 39.882812 23.699219 L 39.980469 24.042969 L 40.324219 24.09375 L 41.503906 23.945312 L 41.550781 24.339844 L 40.570312 24.488281 L 39.929688 24.488281 L 39.636719 24.242188 L 39.539062 23.996094 L 39.539062 23.402344 L 39.6875 23.152344 L 40.03125 23.003906 Z M 40.960938 22.855469 "/>
<path style=" stroke:none;fill-rule:nonzero;fill:rgb(11.372549%,9.803922%,7.843138%);fill-opacity:1;" d="M 37.425781 14.941406 L 37.671875 15.1875 L 37.425781 15.484375 L 36.886719 15.929688 L 36.640625 16.179688 L 36.691406 16.523438 L 36.835938 16.671875 L 37.179688 16.625 L 37.917969 15.980469 L 38.113281 15.832031 L 38.261719 15.882812 L 38.410156 16.128906 L 37.769531 16.671875 L 37.230469 17.070312 L 36.933594 17.117188 L 36.542969 16.921875 L 36.246094 16.476562 L 36.199219 16.179688 L 36.347656 15.882812 L 36.738281 15.484375 L 37.277344 15.039062 Z M 37.425781 14.941406 "/>
<path style=" stroke:none;fill-rule:nonzero;fill:rgb(11.372549%,9.803922%,7.843138%);fill-opacity:1;" d="M 33.300781 38.589844 L 33.59375 38.640625 L 33.792969 38.789062 L 33.792969 38.9375 L 33.496094 39.085938 L 33.351562 38.984375 L 33.054688 39.035156 L 32.90625 39.183594 L 32.90625 39.382812 L 33.695312 39.234375 L 33.988281 39.28125 L 34.234375 39.480469 L 34.332031 39.828125 L 34.183594 40.171875 L 33.9375 40.371094 L 33.644531 40.519531 L 33.25 40.519531 L 32.957031 40.320312 L 32.90625 40.171875 L 33.152344 40.023438 L 33.351562 40.125 L 33.695312 40.125 L 33.890625 39.925781 L 33.839844 39.679688 L 33.398438 39.726562 L 32.90625 39.777344 L 32.613281 39.578125 L 32.5625 39.480469 L 32.5625 39.085938 L 32.808594 38.789062 Z M 33.300781 38.589844 "/>
<path style=" stroke:none;fill-rule:nonzero;fill:rgb(11.372549%,9.803922%,7.843138%);fill-opacity:1;" d="M 29.125 40.421875 L 29.222656 40.421875 L 29.273438 40.71875 L 28.683594 40.867188 L 28.289062 40.914062 L 28.390625 41.261719 L 28.78125 41.210938 L 29.273438 41.160156 L 29.320312 41.457031 L 28.632812 41.605469 L 28.4375 41.605469 L 28.535156 42.101562 L 29.519531 41.902344 L 29.566406 42.199219 L 29.320312 42.300781 L 28.242188 42.496094 L 28.09375 41.902344 L 27.898438 40.867188 L 27.898438 40.667969 Z M 29.125 40.421875 "/>
<path style=" stroke:none;fill-rule:nonzero;fill:rgb(11.372549%,9.803922%,7.843138%);fill-opacity:1;" d="M 15.914062 37.402344 L 16.109375 37.453125 L 16.945312 38.09375 L 16.945312 38.292969 L 16.894531 38.390625 L 16.699219 38.34375 L 16.109375 37.898438 L 16.011719 37.898438 L 15.816406 38.195312 L 16.011719 38.292969 L 16.503906 38.640625 L 16.453125 38.835938 L 16.40625 38.9375 L 16.207031 38.835938 L 15.667969 38.441406 L 15.421875 38.6875 L 15.472656 38.886719 L 16.0625 39.332031 L 16.0625 39.53125 L 16.011719 39.628906 L 15.765625 39.53125 L 14.929688 38.886719 L 14.929688 38.6875 L 15.71875 37.648438 Z M 15.914062 37.402344 "/>
<path style=" stroke:none;fill-rule:nonzero;fill:rgb(95.294118%,95.686275%,44.313726%);fill-opacity:1;" d="M 21.121094 17.21875 L 21.21875 17.265625 L 21.023438 17.761719 L 20.578125 18.253906 L 20.089844 18.652344 L 19.449219 18.898438 L 19.203125 18.949219 L 18.8125 18.949219 L 18.714844 18.847656 L 19.203125 18.402344 L 19.792969 17.957031 L 20.777344 17.367188 Z M 21.121094 17.21875 "/>
<path style=" stroke:none;fill-rule:nonzero;fill:rgb(95.686275%,95.686275%,44.705883%);fill-opacity:1;" d="M 30.796875 32.453125 L 31.386719 32.453125 L 31.285156 32.652344 L 30.648438 33.195312 L 30.058594 33.59375 L 29.175781 34.085938 L 28.929688 34.1875 L 28.976562 33.890625 L 29.273438 33.394531 L 29.714844 32.949219 L 30.304688 32.601562 Z M 30.796875 32.453125 "/>
<path style=" stroke:none;fill-rule:nonzero;fill:rgb(0%,56.470591%,84.313726%);fill-opacity:1;" d="M 27.652344 27.902344 L 28.535156 27.902344 L 29.714844 28.003906 L 29.8125 28.199219 L 29.8125 28.398438 L 28.878906 28.894531 L 28.632812 28.84375 L 28.242188 28.597656 L 27.308594 28.003906 L 27.308594 27.953125 Z M 27.652344 27.902344 "/>
<path style=" stroke:none;fill-rule:nonzero;fill:rgb(94.509804%,96.862745%,90.980393%);fill-opacity:1;" d="M 32.660156 23.796875 L 34.871094 23.996094 L 35.019531 24.09375 L 34.039062 24.390625 L 33.59375 24.488281 L 33.398438 24.488281 L 33.398438 24.390625 L 31.238281 24.191406 L 31.335938 24.09375 Z M 32.660156 23.796875 "/>
<path style=" stroke:none;fill-rule:nonzero;fill:rgb(11.372549%,9.803922%,7.843138%);fill-opacity:1;" d="M 31.089844 10.585938 L 31.53125 10.734375 L 32.269531 11.082031 L 32.171875 11.378906 L 31.730469 11.230469 L 31.285156 11.03125 L 31.1875 11.429688 L 31.828125 11.726562 L 31.777344 12.023438 L 31.484375 11.972656 L 31.042969 11.773438 L 30.699219 12.46875 L 30.355469 12.367188 L 30.5 11.921875 L 31.042969 10.636719 Z M 31.089844 10.585938 "/>
<path style=" stroke:none;fill-rule:nonzero;fill:rgb(0%,57.254905%,85.490197%);fill-opacity:1;" d="M 17.582031 28.644531 L 18.027344 28.941406 L 18.269531 29.140625 L 18.714844 29.140625 L 19.746094 28.941406 L 19.941406 28.941406 L 19.890625 29.089844 L 18.417969 30.078125 L 18.269531 30.078125 L 17.976562 29.585938 L 17.730469 29.089844 Z M 17.582031 28.644531 "/>
<path style=" stroke:none;fill-rule:nonzero;fill:rgb(94.509804%,96.862745%,90.980393%);fill-opacity:1;" d="M 30.355469 24.339844 L 30.941406 24.390625 L 32.613281 24.539062 L 32.859375 24.589844 L 32.660156 24.6875 L 31.285156 24.933594 L 29.421875 24.785156 L 29.125 24.738281 L 29.320312 24.636719 Z M 30.355469 24.339844 "/>
<path style=" stroke:none;fill-rule:nonzero;fill:rgb(0.392157%,56.862748%,84.313726%);fill-opacity:1;" d="M 26.226562 22.066406 L 26.425781 22.164062 L 26.914062 22.707031 L 27.210938 23.152344 L 26.769531 23.105469 L 26.375 22.957031 L 26.082031 22.90625 L 25.980469 23.152344 L 25.933594 23.300781 L 25.6875 23.402344 L 25.441406 23.203125 L 25.195312 22.957031 L 25.441406 22.707031 L 26.082031 22.164062 Z M 26.226562 22.066406 "/>
<path style=" stroke:none;fill-rule:nonzero;fill:rgb(11.372549%,9.803922%,7.843138%);fill-opacity:1;" d="M 22.542969 9.546875 L 22.640625 9.546875 L 22.496094 9.992188 L 22.199219 10.6875 L 22.25 11.578125 L 21.90625 11.578125 L 21.710938 10.785156 L 21.265625 10.242188 L 20.972656 9.945312 L 20.972656 9.796875 L 21.367188 9.746094 L 21.855469 10.339844 L 21.953125 10.390625 L 22.101562 9.894531 L 22.25 9.597656 Z M 22.542969 9.546875 "/>
<path style=" stroke:none;fill-rule:nonzero;fill:rgb(0%,57.254905%,85.490197%);fill-opacity:1;" d="M 20.433594 28.992188 L 20.628906 29.089844 L 21.21875 29.535156 L 22.003906 30.179688 L 22.398438 30.476562 L 22.296875 30.671875 L 21.953125 30.96875 L 21.660156 30.722656 L 21.316406 30.328125 L 21.070312 30.078125 L 21.070312 29.980469 L 20.875 29.882812 L 20.480469 29.339844 L 20.335938 29.140625 L 20.335938 29.042969 Z M 20.433594 28.992188 "/>
<path style=" stroke:none;fill-rule:nonzero;fill:rgb(94.901961%,95.686275%,44.705883%);fill-opacity:1;" d="M 30.894531 28.300781 L 31.1875 28.398438 L 31.140625 28.695312 L 30.796875 29.140625 L 30.597656 29.289062 L 30.5 29.289062 L 30.5 29.386719 L 30.207031 29.585938 L 29.910156 29.832031 L 29.863281 29.929688 L 29.664062 29.882812 L 29.664062 29.4375 L 29.765625 28.992188 L 29.960938 28.792969 L 30.550781 28.597656 L 30.648438 28.597656 L 30.648438 28.496094 Z M 30.894531 28.300781 "/>
<path style=" stroke:none;fill-rule:nonzero;fill:rgb(11.372549%,9.803922%,7.843138%);fill-opacity:1;" d="M 32.613281 11.28125 L 32.90625 11.378906 L 33.9375 11.972656 L 33.792969 12.269531 L 33.25 12.023438 L 33.152344 12.320312 L 32.5625 13.359375 L 32.269531 13.257812 L 32.21875 13.109375 L 32.957031 11.773438 L 32.710938 11.675781 L 32.464844 11.527344 Z M 32.613281 11.28125 "/>
<path style=" stroke:none;fill-rule:nonzero;fill:rgb(0%,56.862748%,85.09804%);fill-opacity:1;" d="M 19.941406 23.105469 L 20.089844 23.152344 L 20.382812 23.996094 L 20.335938 24.242188 L 20.136719 24.292969 L 19.746094 24.09375 L 18.957031 23.894531 L 18.566406 23.847656 L 18.566406 23.699219 Z M 19.941406 23.105469 "/>
<path style=" stroke:none;fill-rule:nonzero;fill:rgb(11.372549%,9.803922%,7.843138%);fill-opacity:1;" d="M 18.761719 10.539062 L 18.957031 10.585938 L 19.449219 11.921875 L 19.746094 11.875 L 20.234375 11.675781 L 20.382812 11.726562 L 20.433594 11.972656 L 19.84375 12.21875 L 19.300781 12.417969 L 19.15625 12.367188 L 18.566406 10.734375 L 18.613281 10.585938 Z M 18.761719 10.539062 "/>
<path style=" stroke:none;fill-rule:nonzero;fill:rgb(11.372549%,9.803922%,7.843138%);fill-opacity:1;" d="M 40.816406 20.976562 L 40.914062 21.125 L 40.960938 21.371094 L 39.6875 21.769531 L 39.488281 21.769531 L 39.734375 22.609375 L 39.734375 22.757812 L 39.441406 22.808594 L 39.097656 21.769531 L 39.046875 21.519531 Z M 40.816406 20.976562 "/>
<path style=" stroke:none;fill-rule:nonzero;fill:rgb(11.372549%,9.803922%,7.843138%);fill-opacity:1;" d="M 38.652344 16.671875 L 38.851562 16.722656 L 38.949219 16.96875 L 38.410156 17.367188 L 37.722656 17.808594 L 37.964844 18.253906 L 38.210938 18.601562 L 38.015625 18.800781 L 37.917969 18.800781 L 37.230469 17.761719 L 37.277344 17.613281 L 38.457031 16.820312 Z M 38.652344 16.671875 "/>
<path style=" stroke:none;fill-rule:nonzero;fill:rgb(0%,56.470591%,84.313726%);fill-opacity:1;" d="M 18.714844 22.261719 L 19.203125 22.261719 L 19.402344 22.460938 L 19.5 22.707031 L 19.84375 22.855469 L 19.746094 22.957031 L 18.613281 23.449219 L 18.46875 23.402344 L 18.46875 22.363281 Z M 18.714844 22.261719 "/>
<path style=" stroke:none;fill-rule:nonzero;fill:rgb(0.392157%,55.686277%,82.745099%);fill-opacity:1;" d="M 31.433594 26.519531 L 31.582031 26.566406 L 31.628906 26.816406 L 31.628906 27.261719 L 31.386719 28.050781 L 31.1875 27.953125 L 30.796875 27.558594 L 30.84375 27.457031 L 30.453125 27.210938 L 30.453125 27.0625 L 31.1875 26.617188 Z M 31.433594 26.519531 "/>
<path style=" stroke:none;fill-rule:nonzero;fill:rgb(0%,56.862748%,84.705883%);fill-opacity:1;" d="M 18.027344 19.589844 L 18.074219 19.691406 L 17.582031 20.777344 L 17.191406 21.964844 L 16.992188 21.964844 L 16.945312 21.867188 L 16.75 21.867188 L 16.699219 22.066406 L 16.453125 22.707031 L 16.304688 22.757812 L 16.40625 22.3125 L 16.796875 21.421875 L 17.289062 20.53125 L 17.78125 19.886719 Z M 18.027344 19.589844 "/>
<path style=" stroke:none;fill-rule:nonzero;fill:rgb(78.823531%,87.843138%,60.392159%);fill-opacity:1;" d="M 9.382812 21.222656 L 9.773438 21.222656 L 10.214844 21.421875 L 10.363281 21.570312 L 10.363281 21.964844 L 10.265625 22.261719 L 9.726562 22.113281 L 9.085938 21.917969 L 9.039062 21.816406 L 9.234375 21.324219 Z M 9.382812 21.222656 "/>
<path style=" stroke:none;fill-rule:nonzero;fill:rgb(13.333334%,11.764706%,8.627451%);fill-opacity:1;" d="M 17.582031 34.679688 L 17.878906 34.679688 L 17.878906 34.78125 L 17.289062 34.929688 L 17.238281 35.175781 L 17.386719 35.273438 L 18.417969 35.375 L 18.761719 35.472656 L 18.8125 35.226562 L 19.105469 35.175781 L 19.351562 35.421875 L 19.351562 35.867188 L 19.300781 35.917969 L 18.859375 35.867188 L 18.664062 35.96875 L 18.664062 35.71875 L 18.269531 35.621094 L 17.484375 35.570312 L 17.140625 35.472656 L 16.992188 35.273438 L 17.042969 34.976562 L 17.289062 34.78125 Z M 17.582031 34.679688 "/>
<path style=" stroke:none;fill-rule:nonzero;fill:rgb(93.333334%,96.078432%,88.627452%);fill-opacity:1;" d="M 28.289062 24.933594 L 29.320312 24.984375 L 30.011719 25.082031 L 30.011719 25.132812 L 27.800781 25.480469 L 26.472656 25.675781 L 26.277344 25.628906 Z M 28.289062 24.933594 "/>
<path style=" stroke:none;fill-rule:nonzero;fill:rgb(94.509804%,96.862745%,90.980393%);fill-opacity:1;" d="M 36.148438 23.203125 L 36.347656 23.203125 L 36.246094 23.449219 L 35.757812 23.796875 L 34.96875 23.796875 L 33.890625 23.699219 L 33.644531 23.648438 L 33.644531 23.597656 L 35.804688 23.253906 Z M 36.148438 23.203125 "/>
<path style=" stroke:none;fill-rule:nonzero;fill:rgb(11.372549%,9.803922%,7.843138%);fill-opacity:1;" d="M 30.207031 10.289062 L 30.550781 10.339844 L 30.453125 10.835938 L 30.011719 12.171875 L 29.664062 12.121094 L 29.617188 12.023438 L 30.15625 10.339844 Z M 30.207031 10.289062 "/>
<path style=" stroke:none;fill-rule:nonzero;fill:rgb(11.372549%,9.803922%,7.843138%);fill-opacity:1;" d="M 20.382812 9.992188 L 20.628906 10.042969 L 21.070312 11.726562 L 21.070312 11.824219 L 20.726562 11.921875 L 20.578125 11.527344 L 20.234375 10.242188 L 20.234375 10.042969 Z M 20.382812 9.992188 "/>
<path style=" stroke:none;fill-rule:nonzero;fill:rgb(0.784314%,54.11765%,80.000001%);fill-opacity:1;" d="M 18.125 20.136719 L 18.320312 20.183594 L 18.515625 20.480469 L 18.417969 20.730469 L 18.171875 21.125 L 17.878906 21.371094 L 17.78125 21.371094 L 17.828125 21.570312 L 17.878906 21.816406 L 17.484375 21.867188 L 17.582031 21.421875 L 18.074219 20.234375 Z M 18.125 20.136719 "/>
<path style=" stroke:none;fill-rule:nonzero;fill:rgb(0.392157%,56.078434%,82.745099%);fill-opacity:1;" d="M 29.566406 25.777344 L 29.8125 25.875 L 29.960938 26.074219 L 30.058594 26.320312 L 30.109375 26.914062 L 29.8125 26.816406 L 29.421875 26.519531 L 29.222656 26.074219 L 29.222656 25.972656 Z M 29.566406 25.777344 "/>
<path style=" stroke:none;fill-rule:nonzero;fill:rgb(90.196079%,93.333334%,44.313726%);fill-opacity:1;" d="M 21.316406 20.433594 L 21.464844 20.480469 L 21.855469 21.027344 L 21.953125 21.421875 L 21.953125 22.066406 L 21.757812 21.964844 L 21.511719 21.667969 L 21.5625 21.472656 L 21.5625 20.976562 L 21.464844 20.976562 L 21.121094 21.175781 L 20.972656 21.175781 L 20.972656 21.074219 L 21.121094 21.027344 Z M 21.316406 20.433594 "/>
<path style=" stroke:none;fill-rule:nonzero;fill:rgb(91.764706%,94.117647%,43.921569%);fill-opacity:1;" d="M 27.652344 27.902344 L 28.242188 27.902344 L 28.289062 28.152344 L 28.535156 28.546875 L 28.535156 28.695312 L 28.339844 28.644531 L 27.359375 28.050781 L 27.308594 27.953125 Z M 27.652344 27.902344 "/>
<path style=" stroke:none;fill-rule:nonzero;fill:rgb(92.54902%,94.509804%,43.529412%);fill-opacity:1;" d="M 28.878906 25.527344 L 29.027344 25.675781 L 29.175781 26.121094 L 29.027344 26.222656 L 28.832031 26.171875 L 28.144531 25.726562 L 28.242188 25.628906 Z M 28.878906 25.527344 "/>
<path style=" stroke:none;fill-rule:nonzero;fill:rgb(0.784314%,55.29412%,81.176472%);fill-opacity:1;" d="M 20.039062 18.898438 L 20.1875 18.898438 L 20.285156 19.394531 L 20.234375 19.542969 L 20.039062 19.492188 L 20.039062 19.542969 L 19.890625 19.589844 L 19.546875 19.542969 L 19.546875 19.097656 Z M 20.039062 18.898438 "/>
<path style=" stroke:none;fill-rule:nonzero;fill:rgb(78.431374%,87.843138%,60.000002%);fill-opacity:1;" d="M 10.070312 19.195312 L 10.363281 19.246094 L 10.414062 19.292969 L 10.363281 19.640625 L 10.167969 20.035156 L 9.726562 19.839844 L 9.921875 19.34375 Z M 10.070312 19.195312 "/>
<path style=" stroke:none;fill-rule:nonzero;fill:rgb(78.431374%,87.843138%,60.392159%);fill-opacity:1;" d="M 14.144531 37.304688 L 14.34375 37.402344 L 14.6875 37.699219 L 14.636719 37.996094 L 14.34375 38.046875 L 13.898438 37.699219 L 13.996094 37.453125 Z M 14.144531 37.304688 "/>
<path style=" stroke:none;fill-rule:nonzero;fill:rgb(11.372549%,9.803922%,7.843138%);fill-opacity:1;" d="M 25.589844 36.609375 L 25.636719 36.609375 L 25.738281 37.203125 L 25.6875 37.203125 L 25.636719 38.390625 L 25.441406 38.589844 L 25.441406 36.808594 Z M 25.589844 36.609375 "/>
<path style=" stroke:none;fill-rule:nonzero;fill:rgb(0.392157%,56.078434%,83.137256%);fill-opacity:1;" d="M 29.8125 28.644531 L 29.960938 28.644531 L 29.960938 28.84375 L 29.8125 28.992188 L 29.714844 29.4375 L 29.664062 29.734375 L 29.519531 29.683594 L 29.320312 29.140625 L 29.125 29.042969 L 29.519531 28.792969 Z M 29.8125 28.644531 "/>
<path style=" stroke:none;fill-rule:nonzero;fill:rgb(0%,56.470591%,84.313726%);fill-opacity:1;" d="M 16.207031 22.957031 L 16.304688 22.957031 L 16.355469 23.402344 L 16.503906 23.648438 L 16.40625 23.996094 L 15.960938 24.042969 L 16.011719 23.597656 L 16.160156 23.003906 Z M 16.207031 22.957031 "/>
<path style=" stroke:none;fill-rule:nonzero;fill:rgb(0%,56.470591%,84.313726%);fill-opacity:1;" d="M 18.125 22.660156 L 18.222656 22.660156 L 18.222656 23.550781 L 17.828125 23.746094 L 17.535156 23.847656 L 17.140625 23.847656 L 17.042969 23.746094 L 17.09375 23.648438 L 17.683594 23.550781 L 18.074219 23.550781 L 18.074219 22.757812 Z M 18.125 22.660156 "/>
<path style=" stroke:none;fill-rule:nonzero;fill:rgb(76.862746%,87.058824%,57.647061%);fill-opacity:1;" d="M 23.378906 41.015625 L 23.820312 41.0625 L 24.019531 41.261719 L 23.96875 41.507812 L 23.820312 41.605469 L 23.328125 41.558594 Z M 23.378906 41.015625 "/>
<path style=" stroke:none;fill-rule:nonzero;fill:rgb(91.37255%,93.725491%,44.313726%);fill-opacity:1;" d="M 31.433594 27.261719 L 31.582031 27.261719 L 31.53125 27.605469 L 31.386719 28.050781 L 31.1875 27.953125 L 30.796875 27.558594 L 30.992188 27.410156 Z M 31.433594 27.261719 "/>
<path style=" stroke:none;fill-rule:nonzero;fill:rgb(77.254903%,87.450981%,58.431375%);fill-opacity:1;" d="M 14.585938 36.710938 L 14.832031 36.859375 L 15.078125 37.054688 L 15.078125 37.304688 L 14.980469 37.402344 L 14.734375 37.351562 L 14.34375 37.054688 Z M 14.585938 36.710938 "/>
<path style=" stroke:none;fill-rule:nonzero;fill:rgb(2.745098%,50.588238%,72.156864%);fill-opacity:1;" d="M 18.8125 20.53125 L 19.007812 20.628906 L 19.546875 20.679688 L 19.746094 20.730469 L 19.792969 21.027344 L 19.351562 20.976562 L 18.613281 20.828125 L 18.664062 20.730469 L 18.859375 20.679688 Z M 18.8125 20.53125 "/>
<path style=" stroke:none;fill-rule:nonzero;fill:rgb(11.372549%,9.803922%,7.843138%);fill-opacity:1;" d="M 21.660156 21.867188 L 21.855469 22.015625 L 21.855469 22.113281 L 21.070312 22.558594 L 20.875 22.609375 L 21.023438 22.164062 L 21.316406 22.066406 Z M 21.660156 21.867188 "/>
<path style=" stroke:none;fill-rule:nonzero;fill:rgb(74.901962%,86.274511%,54.509807%);fill-opacity:1;" d="M 23.574219 9.945312 L 23.675781 9.992188 L 23.917969 10.585938 L 23.871094 10.636719 L 23.378906 10.636719 Z M 23.574219 9.945312 "/>
<path style=" stroke:none;fill-rule:nonzero;fill:rgb(76.078433%,86.666667%,56.078434%);fill-opacity:1;" d="M 13.507812 14.496094 L 13.800781 14.59375 L 14.144531 14.792969 L 14.046875 14.992188 L 13.851562 15.140625 L 13.753906 15.140625 Z M 13.507812 14.496094 "/>
<path style=" stroke:none;fill-rule:nonzero;fill:rgb(76.862746%,87.058824%,57.254905%);fill-opacity:1;" d="M 10.953125 17.710938 L 11.640625 17.859375 L 11.542969 18.105469 L 11.445312 18.304688 L 11.347656 18.304688 L 10.953125 17.808594 Z M 10.953125 17.710938 "/>
<path style=" stroke:none;fill-rule:nonzero;fill:rgb(78.039217%,87.450981%,59.215689%);fill-opacity:1;" d="M 34.429688 12.914062 L 34.480469 13.109375 L 34.332031 13.605469 L 34.085938 13.507812 L 33.890625 13.308594 Z M 34.429688 12.914062 "/>
<path style=" stroke:none;fill-rule:nonzero;fill:rgb(78.431374%,87.450981%,59.607846%);fill-opacity:1;" d="M 17.484375 11.625 L 17.828125 11.921875 L 17.976562 12.070312 L 17.925781 12.21875 L 17.535156 12.367188 Z M 17.484375 11.625 "/>
<path style=" stroke:none;fill-rule:nonzero;fill:rgb(77.64706%,87.450981%,58.431375%);fill-opacity:1;" d="M 9.332031 23.550781 L 9.578125 23.550781 L 9.527344 23.996094 L 9.28125 23.945312 L 8.890625 23.746094 L 8.890625 23.648438 Z M 9.332031 23.550781 "/>
<path style=" stroke:none;fill-rule:nonzero;fill:rgb(75.294119%,86.274511%,55.29412%);fill-opacity:1;" d="M 31.679688 39.925781 L 32.023438 40.222656 L 32.171875 40.371094 L 32.171875 40.46875 L 31.875 40.617188 L 31.730469 40.617188 Z M 31.679688 39.925781 "/>
<path style=" stroke:none;fill-rule:nonzero;fill:rgb(74.117649%,85.882354%,52.941179%);fill-opacity:1;" d="M 25 41.359375 L 25.097656 41.359375 L 25.246094 41.804688 L 25.246094 42.003906 L 24.804688 42.003906 L 24.851562 41.753906 Z M 25 41.359375 "/>
<path style=" stroke:none;fill-rule:nonzero;fill:rgb(0%,55.686277%,83.137256%);fill-opacity:1;" d="M 30.597656 28.25 L 30.84375 28.25 L 30.796875 28.449219 L 30.648438 28.496094 L 30.648438 28.597656 L 30.253906 28.746094 L 30.15625 28.496094 Z M 30.597656 28.25 "/>
<path style=" stroke:none;fill-rule:nonzero;fill:rgb(76.47059%,87.058824%,56.862748%);fill-opacity:1;" d="M 34.480469 38.292969 L 34.726562 38.390625 L 35.070312 38.640625 L 34.824219 38.886719 L 34.625 38.886719 Z M 34.480469 38.292969 "/>
<path style=" stroke:none;fill-rule:nonzero;fill:rgb(11.372549%,9.803922%,7.843138%);fill-opacity:1;" d="M 28.683594 36.117188 L 28.976562 36.214844 L 28.929688 36.460938 L 28.535156 36.511719 L 28.390625 36.460938 L 28.4375 36.214844 L 28.632812 36.214844 Z M 28.683594 36.117188 "/>
<path style=" stroke:none;fill-rule:nonzero;fill:rgb(0%,57.254905%,85.490197%);fill-opacity:1;" d="M 31.582031 27.855469 L 31.679688 27.855469 L 31.730469 28.003906 L 31.730469 28.449219 L 31.628906 28.449219 L 31.335938 28.050781 L 31.433594 27.902344 Z M 31.582031 27.855469 "/>
<path style=" stroke:none;fill-rule:nonzero;fill:rgb(0%,57.254905%,85.490197%);fill-opacity:1;" d="M 25.738281 30.820312 L 26.082031 30.820312 L 25.835938 31.117188 L 25.636719 31.070312 L 25.492188 30.871094 Z M 25.738281 30.820312 "/>
<path style=" stroke:none;fill-rule:nonzero;fill:rgb(87.843138%,92.941177%,78.039217%);fill-opacity:1;" d="M 25.492188 24.488281 L 25.835938 24.539062 L 26.277344 24.835938 L 26.277344 24.886719 L 25.785156 24.835938 L 25.785156 24.589844 L 25.492188 24.539062 Z M 25.492188 24.488281 "/>
<path style=" stroke:none;fill-rule:nonzero;fill:rgb(73.725492%,85.490197%,52.156866%);fill-opacity:1;" d="M 28.832031 34.484375 L 28.929688 34.53125 L 28.929688 34.632812 L 28.144531 34.929688 L 28.242188 34.730469 Z M 28.832031 34.484375 "/>
<path style=" stroke:none;fill-rule:nonzero;fill:rgb(77.254903%,87.058824%,57.647061%);fill-opacity:1;" d="M 29.566406 34.136719 L 29.664062 34.1875 L 29.519531 34.335938 L 29.027344 34.582031 L 28.878906 34.53125 L 29.273438 34.285156 Z M 29.566406 34.136719 "/>
<path style=" stroke:none;fill-rule:nonzero;fill:rgb(11.372549%,9.803922%,7.843138%);fill-opacity:1;" d="M 19.449219 20.679688 L 19.746094 20.730469 L 19.792969 21.027344 L 19.5 21.027344 Z M 19.449219 20.679688 "/>
<path style=" stroke:none;fill-rule:nonzero;fill:rgb(88.235295%,93.333334%,79.215688%);fill-opacity:1;" d="M 22.152344 25.925781 L 22.640625 26.222656 L 22.445312 26.269531 L 22.101562 26.171875 Z M 22.152344 25.925781 "/>
<path style=" stroke:none;fill-rule:nonzero;fill:rgb(11.372549%,9.803922%,7.843138%);fill-opacity:1;" d="M 30.941406 34.828125 L 31.238281 34.828125 L 31.285156 35.078125 L 30.941406 35.027344 Z M 30.941406 34.828125 "/>
<path style=" stroke:none;fill-rule:nonzero;fill:rgb(0%,57.254905%,85.490197%);fill-opacity:1;" d="M 29.222656 25.480469 L 29.566406 25.480469 L 29.371094 25.628906 L 29.078125 25.726562 L 29.027344 25.527344 Z M 29.222656 25.480469 "/>
<path style=" stroke:none;fill-rule:nonzero;fill:rgb(88.627452%,93.333334%,79.607844%);fill-opacity:1;" d="M 22.691406 26.320312 L 22.9375 26.417969 L 23.183594 26.617188 L 22.742188 26.566406 Z M 22.691406 26.320312 "/>
<path style=" stroke:none;fill-rule:nonzero;fill:rgb(88.235295%,93.333334%,78.823531%);fill-opacity:1;" d="M 21.5625 25.527344 L 22.054688 25.824219 L 21.90625 25.875 L 21.511719 25.777344 Z M 21.5625 25.527344 "/>
</g>
</svg>
